<svg xmlns="http://www.w3.org/2000/svg" xmlns:xlink="http://www.w3.org/1999/xlink" width="978.195" height="573.285" viewBox="0 0 978.195 573.285"><defs><clipPath id="a"><path d="M495.064,230.487c.318-14.268-7.569-22.775-23.533-24.994a28.235,28.235,0,0,0-25.221,9.978l-.9,1.058c-5.14,6.053-7.8,16.535-6.659,24.393l8.317,18.421-4.394,16.192s16.149,13.389,22.438,3.367l1.159-12.61s8.479,4.937,15.642,2.347C485.662,267.284,494.419,259.606,495.064,230.487Z" transform="translate(-438.49 -205.242)" fill="#e89a49"/></clipPath></defs><g transform="translate(-233.413 -417.066)"><g transform="translate(165 343)"><path d="M997.787,572.092c10.471-20.778,11.535-47.156,4.774-69.972-9.856-33.262-32.71-60.836-54.625-87.729s-44.043-55.315-51.95-89.094c-4.924-21.029-4.2-43.7-13.777-63.055-14.857-30.044-51.443-44.055-84.928-42.594s-64.991,15.3-96.013,27.984-63.714,24.636-97.129,22.039c-36.954-2.874-70.165-23.195-99.811-45.441s-57.878-47.285-91.787-62.252-75.879-18.139-106.328,3c-27.8,19.3-39.925,53.66-52.034,85.263s-28.444,65.363-59.516,78.772c-21.381,9.225-46.032,6.959-68.259,13.9-42.332,13.214-68.3,58.47-71.8,102.676-3.432,43.289,10.478,85.9,26,126.511Z" transform="translate(26.194 72.626)" fill="#d3e3f8"/></g><g transform="translate(233.413 417.066)"><g transform="translate(259.584 291.665)"><g transform="translate(0 34.336)"><path d="M266.227,443.938c.849-22.937,2.2-45.857,3.718-68.76,1.848-27.834,4.067-56.073-4.143-83.2-3-9.9-11.1-28.4-24.675-20.591-14.353,8.252-7.508,26.628-2.768,38.321a155.375,155.375,0,0,1,7.587,23.817c1.514,6.64,4.572,16.233,2.736,23.015-3.482,12.864-21.384-6.47-26.747,7.409-5.238,13.56,12.121,21.51,19.536,29.51,9.651,10.411,15.13,24.135,17.56,37.977a112.761,112.761,0,0,1,1.429,12.291" transform="translate(-220.965 -269.517)" fill="#4f9677"/></g><g transform="translate(27.929)"><path d="M309.176,327.126c2.571-4.518,2.54-11.253-1.909-13.944-7.889-4.775-18.7,7.814-26.318,2.611-3.824-2.611-4-8.087-3.775-12.712q.717-14.86,1.434-29.723c.472-9.792-.423-21.953-9.39-25.917s-18.935,3.9-23.456,12.585c-11.4,21.905-4.486,48.572,4.008,71.76,8.408,22.956,18.82,96.875,13.253,121.607h5.264l2.037-.288c0-27.173,3.472-47.181,20.786-62.231,4.458-3.874,9.515-7.208,12.948-12.013s4.835-11.75,1.343-16.514c-2.642-3.606-7.515-5.259-9.635-9.194-2.466-4.576-.171-10.337,3.157-14.33S306.607,331.643,309.176,327.126Z" transform="translate(-239.78 -246.386)" fill="#75bc79"/></g><g transform="translate(26.098 196.615)"><rect width="44.663" height="74.961" fill="#fff"/></g></g><g transform="translate(793.729 300.297)"><g transform="translate(71.411)"><path d="M634.162,319.538c-2.4-10.993-4.8-22.059-5.192-33.305a77.152,77.152,0,0,1,.822-14.661c1.182-7.5,11.713-8.284,14.165-1.1a76.238,76.238,0,0,1,4.029,21.331c.165,3.853.068,7.876,2.611,11.121a6.167,6.167,0,0,0,4.173,2.415c4.17.407,6.334-3.5,7.645-6.968,3.919-10.392,5.7-21.475,9.338-31.966a69.067,69.067,0,0,1,4.4-10.14c4.346-8.05,16.71-3.095,14.309,5.733-.594,2.184-1.284,4.34-2.01,6.45-3.14,9.108-7.021,18.261-6.929,27.893.019,2.035.318,4.321,2.975,4.988a5.31,5.31,0,0,0,5.106-1.668,169.308,169.308,0,0,1,44.3-34.009,5.992,5.992,0,0,1,5.924.043c3.457,2.141,2.123,6.543.27,9.591-11.848,19.484-53.028,42.361-48.643,50.8s23.689-3.5,31.322-4.07c4.325-.324,9.545.211,11.3,4.441a7.473,7.473,0,0,1-.341,6.04c-1.642,3.439-4.845,5.5-7.953,7.48L671.3,374.606c-5.963,3.79-14.077,11.283-21.173,5.709-6.349-4.985-6.588-17.765-8.163-24.99Q638.061,337.433,634.162,319.538Z" transform="translate(-628.916 -252.202)" fill="#4f9677"/></g><g transform="translate(0 54.696)"><path d="M661.394,289.146a5.064,5.064,0,0,0-2.825.243c-3.269,1.317-3.427,4.826-3.383,7.845q.2,13.758.395,27.515a3.134,3.134,0,0,1-5.215,2.39L622.584,302.48c-3.935-3.491-8.191-7.149-13.832-6.834a7.548,7.548,0,0,0-6.542,4.19c-1.906,4.18,1.039,8.026,3.769,11.157l25.637,29.391a9.036,9.036,0,0,1,2.322,5.381c.285,5.271-4.3,6.662-7.884,5.777-2.406-.6-40-14.747-44.652-5.038-2.139,4.464,1.9,7.995,5.555,10.232a153.13,153.13,0,0,0,76.369,22.373c7.575.156,21.938-2.7,15.549-44.768-2.087-13.75-2.831-28.266-10.664-39.755C666.538,292.134,664.521,289.745,661.394,289.146Z" transform="translate(-580.808 -289.049)" fill="#64a167"/></g><g transform="translate(87.585 56.289)"><path d="M649.217,400.916c.312,1.87.879,4.063,2.67,4.719,1.661.61,3.42-.472,4.836-1.519,11.985-8.856,33.939-30.114,50.791-46.954,4.554-4.551-.925-11.908-6.663-8.958-4.918,2.528-9.126,4.817-11.308,6.294a4.023,4.023,0,0,1-5.656-5.5c7.419-11.284,15.651-23.7,17.447-25.969,11.206-14.171,3.827-27.736-6.9-13.5-3.889,5.161-7.725,10.661-11.032,15.574a3.92,3.92,0,0,1-7.121-2.761c1.143-7.57,2.267-15.567,2.6-19.806.249-3.181.488-6.478-1.222-9.384a6.062,6.062,0,0,0-3.552-2.832c-4.656-1.26-7.848,3.7-9.4,7.947-5.25,14.338-5.264,49.164-6.068,51s-3.094,3.19-4.881,2.255c-5.5-2.878-.113-13.189-7.266-15.824-7.753-2.853-6.942,6.6-6.268,11.317C642.8,365.039,646.442,382.921,649.217,400.916Z" transform="translate(-639.813 -290.123)" fill="#75bc79"/></g><g transform="translate(68.32 108.309)"><path d="M648.855,421.652c-.059,0-.119,0-.18-.007a2.226,2.226,0,0,1-2.042-2.4c2.512-31.665-2.868-54.569-7.824-68.207-5.365-14.767-11.4-22.151-11.461-22.224a2.226,2.226,0,0,1,3.422-2.849c1.035,1.241,25.264,31.1,20.3,93.633A2.226,2.226,0,0,1,648.855,421.652Z" transform="translate(-626.834 -325.167)" fill="#75bc79"/></g><g transform="translate(97.3 125.137)"><path d="M648.794,420.366a2.124,2.124,0,0,1-2.224-2.011c-.712-17.235-.58-59.543,15.991-80.652.1-.129.18-.194.227-.261a2.242,2.242,0,0,1,3.09-.543,2.213,2.213,0,0,1,.6,3.055c-.074.111-.214.3-.416.557-5.216,6.644-17.122,27.4-15.046,77.661a2.094,2.094,0,0,1-2.135,2.2Z" transform="translate(-646.357 -336.504)" fill="#90d58e"/></g><g transform="translate(64.429 192.93)"><path d="M679.268,457.136H634.6l-10.391-74.961h63.961Z" transform="translate(-624.213 -382.174)" fill="#fff"/></g></g><g transform="translate(371.113 120.449)"><g transform="translate(15.056 296.476)"><g transform="translate(0 129.806)"><path d="M347.2,418.932l.374,11.471a7.881,7.881,0,0,1-7.619,8.133l-30.336.852a3.271,3.271,0,0,1-3.2-4.318h0a3.269,3.269,0,0,1,2.862-2.215l6.607-.123a17.392,17.392,0,0,0,16.254-14.513h0Z" transform="translate(-306.243 -418.219)" fill="#1d262d"/></g><g transform="translate(11.36)"><path d="M344.278,431.014c.3-13.647.582-29.275.582-40.936,0-1.051,2.1-59.307,2.1-59.307L313.9,333.4l2.328,49.339a106.531,106.531,0,0,0,1.331,12.507l5.955,35.772Z" transform="translate(-313.896 -330.771)" fill="#885017"/></g><g transform="translate(20.538 97.619)"><path d="M320.079,396.535l5.36,32.187,15.064.713s.454-15.136.839-32.9Z" transform="translate(-320.079 -396.535)" fill="#fff"/><g transform="translate(0.874 5.249)"><path d="M340.814,405.318q.062-2.547.125-5.247H320.668l.874,5.247Z" transform="translate(-320.668 -400.071)" fill="#ff3b43"/></g><g transform="translate(2.534 15.219)"><path d="M340.048,410.987c.036-1.337.071-2.721.108-4.2H321.786l.7,4.2Z" transform="translate(-321.786 -406.788)" fill="#ff3b43"/></g></g></g><g transform="translate(75.224 296.476)"><g transform="translate(3.085 129.806)"><path d="M349.233,418.932l-.374,11.471a7.88,7.88,0,0,0,7.619,8.133l30.336.852a3.271,3.271,0,0,0,3.2-4.318h0a3.269,3.269,0,0,0-2.862-2.215l-6.607-.123A17.392,17.392,0,0,1,364.3,418.219h0Z" transform="translate(-348.855 -418.219)" fill="#1d262d"/></g><path d="M349.459,431.014c-.3-13.647-.582-29.275-.582-40.936,0-1.051-2.1-59.307-2.1-59.307l33.065,2.624-2.328,49.339a106.5,106.5,0,0,1-1.331,12.507l-5.957,35.772Z" transform="translate(-346.777 -330.771)" fill="#885017"/><g transform="translate(2.624 97.619)"><path d="M369.807,396.535l-5.36,32.187-15.064.713s-.454-15.136-.839-32.9Z" transform="translate(-348.545 -396.535)" fill="#fff"/><g transform="translate(0.117 5.249)"><path d="M348.747,405.318q-.06-2.547-.123-5.247h20.271l-.874,5.247Z" transform="translate(-348.624 -400.071)" fill="#ff3b43"/></g><g transform="translate(0.358 15.219)"><path d="M348.894,410.987c-.036-1.337-.071-2.721-.108-4.2h18.369l-.7,4.2Z" transform="translate(-348.786 -406.788)" fill="#ff3b43"/></g></g></g><g transform="translate(51.288)"><circle cx="12.012" cy="12.012" r="12.012" transform="translate(0 9.148) rotate(-22.383)" fill="#1d262d"/></g><g transform="translate(23.675 206.828)"><path d="M313.86,368.423h35.546c1.02-15.482,3.8-32.968,6.953-53.187,1.636-10.472,3.836-21.054,4.1-30.826l-47.711-14.033s-.922,25.315-.641,33.369C312.571,317.238,313.1,343.628,313.86,368.423Z" transform="translate(-312.049 -270.377)" fill="#ffb000"/></g><g transform="translate(62.82 202.525)"><path d="M349.278,369.828H385.24c.172-24.6.1-50.5.257-63.864a154.269,154.269,0,0,1,1.711-21.74l-44.521-16.745c-7.4,23.962-3.331,40.723-1.426,51.306C344.73,338.056,347.8,354.85,349.278,369.828Z" transform="translate(-338.421 -267.478)" fill="#ffd01f"/></g><g transform="translate(21.366 80.529)"><path d="M385.587,202.671c-18.108-.548-16.7-17.005-16.7-17.005l-12.111-.374-12.113.374s1.631,15.395-16.477,15.941c-5.884.178-17.692,19.291-17.692,19.291H393.53S388.3,202.753,385.587,202.671Z" transform="translate(-310.494 -185.292)" fill="#b56b1f"/></g><g transform="translate(53.156 85.699)"><path d="M333.712,188.775a17.041,17.041,0,0,1-1.8,4.562c5.67,12.3,21.385,13.863,28.447-.843a12.713,12.713,0,0,1-1.214-3.718Z" transform="translate(-331.91 -188.775)" fill="#885017"/></g><g transform="translate(39.246 14.891)"><path d="M322.8,168.9c1.671-17.811,14.7-28.034,27.523-27.826s25.6,10.842,26.836,28.7c.724,10.46-1.553,21.733-3.193,28.214a23.528,23.528,0,0,1-5.333,10.128c-5.8,6.343-13.337,11.4-19.261,11.305s-13.334-5.393-18.981-11.918a23.746,23.746,0,0,1-5.084-10.3C323.823,190.677,321.82,179.336,322.8,168.9Z" transform="translate(-322.539 -141.073)" fill="#b56b1f"/></g><g transform="translate(50.034 55.177)"><path d="M334.042,170.331a2.117,2.117,0,1,1-2.118-2.118A2.117,2.117,0,0,1,334.042,170.331Z" transform="translate(-329.807 -168.213)" fill="#193441"/></g><g transform="translate(39.253 43.258)"><path d="M377.209,161.565c-1.716,11.694-4.318,22.665-14.062,28.95-1-1.617-5.915-5.874-13.554-5.874-7.343,0-11.964,4.135-13.106,5.874-6.016-4-9.346-9.8-11.014-17.085a8.046,8.046,0,0,1,.193-4.6,30.259,30.259,0,0,1-2.911-8.644c-.864,10.284,1.089,21.35,2.547,27.768a23.746,23.746,0,0,0,5.084,10.3c5.647,6.525,13.055,11.822,18.981,11.918s13.46-4.962,19.261-11.305a23.528,23.528,0,0,0,5.333-10.128C375.55,182.467,377.722,171.724,377.209,161.565Z" transform="translate(-322.544 -160.183)" fill="#1d262d"/></g><g transform="translate(78.98 55.177)"><path d="M349.307,170.331a2.118,2.118,0,1,0,2.118-2.118A2.117,2.117,0,0,0,349.307,170.331Z" transform="translate(-349.307 -168.213)" fill="#193441"/></g><g transform="translate(58.275 74.771)"><path d="M336.757,181.413a1.364,1.364,0,0,0-1.174,2.089,9.872,9.872,0,0,0,16.165.138,1.387,1.387,0,0,0-1.09-2.227Z" transform="translate(-335.359 -181.413)" fill="#fff"/></g><g transform="translate(47.922 62.733)"><path d="M337.31,176.76c0,1.909-2,3.456-4.464,3.456s-4.462-1.547-4.462-3.456,2-3.457,4.462-3.457S337.31,174.851,337.31,176.76Z" transform="translate(-328.384 -173.303)" fill="#d18015"/></g><g transform="translate(76.403 62.733)"><path d="M347.571,176.76c0,1.909,2,3.456,4.462,3.456s4.464-1.547,4.464-3.456-2-3.457-4.464-3.457S347.571,174.851,347.571,176.76Z" transform="translate(-347.571 -173.303)" fill="#d18015"/></g><g transform="translate(37.817 12.705)"><path d="M378.863,164.3c-1.238-12.659-9.908-24.7-28.484-24.7s-27.246,12.043-28.484,24.7,1.471,20.631,2.409,20.241c1.529-.634,3.242-3.582,3.242-9.3,0-10.925,5.638-14.759,9.69-13.892,3.813.815,6.6,3.717,13.143,3.717s9.329-2.9,13.143-3.717c4.052-.867,9.69,2.967,9.69,13.892,0,6.833,1.713,8.669,3.242,9.3C377.391,184.933,380.1,176.96,378.863,164.3Z" transform="translate(-321.577 -139.6)" fill="#1d262d"/></g><g transform="translate(2.235 96.523)"><path d="M406.975,246.751l20.237-6.277c-4.668-16.919-7.53-30.522-15.175-38.037s-26.731-6.3-26.731-6.3-5.474,13.978-24.771,14.047v0s.721.009.662.009c-18.967,0-22.83-14.053-22.83-14.053s-18.047-1.217-25.692,6.3-10.4,20.725-15.069,37.644l20.287,6.671-.845,94.79s12.314,5.1,43.487,5.541v.292h0v-.292c31.172-.445,45.715-5.541,45.715-5.541Z" transform="translate(-297.606 -196.067)" fill="#fff"/></g><g transform="translate(2.383 226.131)"><g transform="translate(7.079 11.393)"><rect width="47.057" height="11.393" transform="translate(47.057 11.393) rotate(180)" fill="#1d262d"/></g><g transform="translate(54.488 6.803)"><rect width="7.223" height="21.067" transform="translate(7.223 21.067) rotate(180)" fill="#ff3b43"/></g><g transform="translate(0 6.803)"><rect width="7.223" height="21.067" fill="#ff3b43"/></g><g transform="translate(45.715)"><rect width="11.888" height="34.674" transform="translate(11.888 34.674) rotate(180)" fill="#1d262d"/></g><g transform="translate(4.107)"><rect width="11.888" height="34.674" fill="#1d262d"/></g></g><g transform="translate(0 140.749)"><path d="M296.28,268.242l-.122-2.037c-.058-1.324-.04-2.25-.058-3.39.019-2.051.059-4.021.138-5.883.347-7.486,1.009-14.136,1.657-19.885.358-2.86.653-5.48,1-7.787q.278-1.83.517-3.4a157.142,157.142,0,0,0,25.767,7.076c-.472,2.421-1.017,5.167-1.655,8.229-.572,2.724-1.189,5.676-1.842,8.8-.677,3.1-1.357,6.377-1.986,9.66-.347,1.657-.643,3.275-.925,4.857q-.165,1.046-.332,2.1l-.12.735-.016.092-.006.024c-.086-1.093-.022-.278-.04-.511l0,.088.018.347.018.349.009.174.006.018a.18.18,0,0,1-.012.076c-.013.013-.034.033.006.266l.145,1.072c.137.791.269,1.587.448,2.446q.543,2.614,1.088,5.244c.794,3.631,1.59,7.263,2.371,10.837.836,3.613,1.658,7.168,2.455,10.609.827,3.441,1.591,6.791,2.449,9.922.812,3.147,1.657,6.1,2.455,8.816.408,1.355.735,2.679,1.192,3.885a20.379,20.379,0,0,0,1.664,3.282,23.4,23.4,0,0,1,2.657,5.348,10.35,10.35,0,0,1,.413,5.382l-.018.074A6.172,6.172,0,0,1,326.3,338.7a10.405,10.405,0,0,1-3.312-4.321,23.039,23.039,0,0,1-1.584-5.8,20.867,20.867,0,0,0-.929-3.583c-.45-1.214-1.082-2.431-1.664-3.732-1.189-2.592-2.482-5.4-3.916-8.345-1.385-2.966-2.969-6.052-4.536-9.28s-3.18-6.591-4.82-9.994c-1.611-3.433-3.28-6.928-4.76-10.564-.754-1.827-1.514-3.65-2.185-5.6-.346-.947-.7-1.97-1.03-2.992,0,0-.763-2.305-.858-2.751l-.393-1.279Z" transform="translate(-296.1 -225.861)" fill="#b56b1f"/></g><g transform="translate(70.086 226.131)"><g transform="translate(7.574 11.393)"><rect width="47.057" height="11.393" fill="#1d262d"/></g><g transform="translate(0 6.803)"><rect width="7.223" height="21.067" fill="#ff3b43"/></g><g transform="translate(54.488 6.803)"><rect width="7.223" height="21.067" transform="translate(7.223 21.067) rotate(180)" fill="#ff3b43"/></g><g transform="translate(4.107)"><rect width="11.888" height="34.674" fill="#1d262d"/></g><g transform="translate(45.716)"><rect width="11.888" height="34.674" transform="translate(11.888 34.674) rotate(180)" fill="#1d262d"/></g></g><g transform="translate(94.457 140.749)"><path d="M399.277,268.242l.122-2.037c.059-1.324.04-2.25.058-3.39-.018-2.051-.058-4.021-.138-5.883-.347-7.486-1.008-14.136-1.657-19.885-.356-2.86-.652-5.48-1-7.787q-.278-1.83-.517-3.4a157.1,157.1,0,0,1-25.767,7.076c.472,2.421,1.017,5.167,1.657,8.229.57,2.724,1.188,5.676,1.842,8.8.675,3.1,1.355,6.377,1.986,9.66.346,1.657.641,3.275.923,4.857q.167,1.046.333,2.1l.12.735.018.092,0,.024c.086-1.093.022-.278.042-.511l0,.088-.019.347-.018.349-.009.174,0,.018a.142.142,0,0,0,.012.076c.012.013.034.033-.006.266l-.147,1.072c-.137.791-.269,1.587-.448,2.446q-.543,2.614-1.088,5.244c-.794,3.631-1.588,7.263-2.371,10.837-.836,3.613-1.658,7.168-2.455,10.609-.827,3.441-1.59,6.791-2.449,9.922-.81,3.147-1.655,6.1-2.454,8.816-.41,1.355-.736,2.679-1.193,3.885a20.263,20.263,0,0,1-1.664,3.282,23.394,23.394,0,0,0-2.657,5.348,10.35,10.35,0,0,0-.413,5.382l.018.074a6.172,6.172,0,0,0,9.328,3.545,10.4,10.4,0,0,0,3.313-4.321,23.11,23.11,0,0,0,1.582-5.8A21,21,0,0,1,375.08,325c.451-1.214,1.082-2.431,1.664-3.732,1.19-2.592,2.483-5.4,3.916-8.345,1.386-2.966,2.969-6.052,4.536-9.28s3.18-6.591,4.821-9.994c1.611-3.433,3.279-6.928,4.759-10.564.756-1.827,1.514-3.65,2.185-5.6.347-.947.7-1.97,1.03-2.992,0,0,.763-2.305.858-2.751l.393-1.279Z" transform="translate(-359.734 -225.861)" fill="#b56b1f"/></g></g><g transform="translate(0 264.666)"><g transform="translate(102.471 106.989)"><path d="M138.138,310.08s.105.689.306,1.98.5,3.154.813,5.543c.632,4.775,1.612,11.577,2.535,19.771.957,8.189,1.946,17.759,2.817,28.039.427,5.142.882,10.453,1.223,15.865s.7,10.91.962,16.422q.156,4.137.312,8.264.065,4.132.129,8.219c.006,5.451-.088,10.823-.23,16.027-.309,10.413-.931,20.148-1.743,28.56-.2,2.1-.444,4.13-.705,6.059-.3,1.933-.549,3.772-.664,5.553-.22,3.56-.419,6.877-1.614,9.739a14.059,14.059,0,0,1-2.307,3.925,14.226,14.226,0,0,1-1.633,1.568,13.549,13.549,0,0,1-1.863,1.138,7.689,7.689,0,0,1-3.184.687,9.453,9.453,0,0,1-1.1-.065,3.928,3.928,0,0,1-2.314-6.54l1.928-2.1a.783.783,0,0,0-.569-.533c-.4-.114-.153-.669.488-2.287a62.192,62.192,0,0,0,2.454-6.972,23.343,23.343,0,0,0,.566-4.974c.05-1.79.074-3.683.058-5.669a243.675,243.675,0,0,0-2.287-27.393c-.629-5.023-1.38-10.213-2.157-15.484-.744-5.278-1.5-10.639-2.253-16s-1.513-10.732-2.258-16.013c-.781-5.281-1.551-10.48-2.295-15.51-1.538-10.058-2.975-19.445-4.205-27.492-2.452-16.058-4.088-26.763-4.088-26.763l0-.036a11.575,11.575,0,0,1,22.882-3.519Z" transform="translate(-115.121 -300.274)" fill="#ffb09b"/></g><g transform="translate(82.567 273.135)"><path d="M140.819,412.2l1.394,13.3a8.6,8.6,0,0,1-8.318,8.878l-28.493.929a3.571,3.571,0,0,1-3.5-4.713h0a3.571,3.571,0,0,1,3.123-2.417l2.592-.135c8.9-.462,17.771-6.981,19.235-15.772Z" transform="translate(-101.712 -412.203)" fill="#ffc0a9"/></g><g transform="translate(364.587 255.994)"><path d="M323.8,417.333l-13.61-16.677-6.714,13.812c1.789,4.706,3.389,15.991-3.75,19.778a18.05,18.05,0,0,1-2.244.186l-2.48.039a3.414,3.414,0,0,0,.111,6.827l10.233.037L321.2,428.672A8.223,8.223,0,0,0,323.8,417.333Z" transform="translate(-291.704 -400.656)" fill="#ffc0a9"/></g><g transform="translate(98.059 139.641)"><path d="M208.885,322.271c4.054,19,30.045,50.931,30.045,50.931s-93.89-.184-93.7,2.341c1.593,21.276-7.07,80.314-7.067,80.32l-22.021,1.182-3.971-88.586A22.14,22.14,0,0,1,128,346.239Z" transform="translate(-112.149 -322.271)" fill="#2b2241"/></g><g transform="translate(169.513 129.926)"><path d="M277.543,390.542l95.526,50.071S373,454.9,368.615,461.3c-11.388.249-108.943-39.758-108.943-39.758s-37.236-17.354-79.747-55.142a95.806,95.806,0,0,1-19.638-24.813l46.823-25.861S224.969,335,229.6,341.266C234.25,347.547,277.543,390.542,277.543,390.542Z" transform="translate(-160.286 -315.726)" fill="#45316b"/></g><path d="M183.366,323.413l-4.53-5.3c-2.911-3.432-7.229-8.232-12.43-13.916-5.231-5.639-11.443-12.136-18.344-18.409a114.71,114.71,0,0,0-10.783-8.715,41.164,41.164,0,0,0-5.362-3.2,17.375,17.375,0,0,0-2.271-.931l-.062-.022-.031-.01c.254.059-.377-.094-.337-.085l-.237-.076-.474-.15-.949-.3-1.9-.6c-5.816-1.976-10.612-4.03-15.521-6.187-4.844-2.185-9.539-4.392-14.067-6.546-4.5-2.185-8.857-4.3-12.985-6.3-4.131-1.977-8.016-3.882-11.635-5.558-3.638-1.627-6.84-3.435-9.968-4.333a67.916,67.916,0,0,1-8.02-2.532,17.426,17.426,0,0,1-6.221-4.067,4.845,4.845,0,0,1,3.337-7.971h.027a17.487,17.487,0,0,1,7.219,1.553,71.314,71.314,0,0,1,7.429,3.858,29.977,29.977,0,0,0,4.725,2q2.563.888,5.381,1.867c3.742,1.318,7.843,2.621,12.17,4.015l13.673,4.162c4.741,1.409,9.641,2.846,14.6,4.214,4.9,1.4,10.109,2.826,14.446,3.885l3.7.763a34.81,34.81,0,0,1,5.258,1.532,59.136,59.136,0,0,1,8.572,4.091,114.522,114.522,0,0,1,13.821,9.475c4.168,3.249,7.971,6.533,11.473,9.724s6.721,6.26,9.614,9.159c5.822,5.764,10.343,10.83,13.542,14.367,1.6,1.771,2.806,3.212,3.646,4.2l1.309,1.562A11.575,11.575,0,0,1,183.524,323.6Z" transform="translate(-46.089 -228.198)" fill="#ffc0a9"/><g transform="translate(98.175 62.158)"><path d="M194.07,382.734s-17.588-13.624-31.237-24.711c-10.192-8.278-14.47-1.533-23.118-6.481-6.953-3.98-8.648-11.7-9.022-12.151l-18.464-.594s-.312-15.858,7.637-29.076l6.142-13.352c6.972-8.648,9.605-11.98,17.764-15.9,4.361-2.1,11.6-10.394,11.6-10.394s11.8,13.76,18.117,21.141a259.04,259.04,0,0,0,30.764,30.411c6.331,5.219,24.106,12.895,30.722,16.309C230.911,353.766,214.544,371.255,194.07,382.734Z" transform="translate(-112.227 -270.072)" fill="#fff"/></g><g transform="translate(27.406 31.06)"><g transform="translate(8.62 1.179)"><path d="M70.69,264.913c-.92,6.059.264,12.215,1.277,18.259a330.37,330.37,0,0,1,4.085,71.757c15.251-7.8,23.888-24.987,25.908-42,1.823-15.344-1.677-29.887-3.447-45-1.085-9.258-2.914-19.177-14.943-17.9C76.2,250.8,71.714,258.165,70.69,264.913Z" transform="translate(-70.359 -249.916)" fill="#ff3b43"/></g><g transform="translate(13.193 9.027)"><path d="M116.671,260.631c-14.828-9.5-30.655-5.59-38.267,4.48S71.3,291.537,84.4,303.323c7.674,6.9,17.8,11.97,23.818,14.627a23.174,23.174,0,0,0,11.088,2c8.436-.655,16.928-3.435,20.444-8.087s3.9-13.612,2.262-21.947a23.381,23.381,0,0,0-4.9-10.184C132.94,274.626,125.358,266.2,116.671,260.631Z" transform="translate(-73.439 -255.204)" fill="#ffc0a9"/></g><g transform="translate(58.431 30.438)"><path d="M104.717,273.354a2.084,2.084,0,1,0-.359-2.926A2.085,2.085,0,0,0,104.717,273.354Z" transform="translate(-103.915 -269.628)" fill="#193441"/></g><g transform="translate(40.883 52.889)"><path d="M95.462,285.194a2.085,2.085,0,1,1-2.927.359A2.085,2.085,0,0,1,95.462,285.194Z" transform="translate(-92.093 -284.753)" fill="#193441"/></g><g transform="translate(59.877 47.708)"><path d="M113.607,281.789a1.341,1.341,0,0,1,2.33.355,9.716,9.716,0,0,1-9.692,12.622,1.366,1.366,0,0,1-1.067-2.194Z" transform="translate(-104.89 -281.262)" fill="#fff"/></g><g transform="translate(63.463 34.047)"><path d="M108.409,279.569c1.481,1.156,3.892.545,5.387-1.367s1.505-4.4.024-5.558-3.892-.545-5.387,1.367S106.928,278.411,108.409,279.569Z" transform="translate(-107.305 -272.059)" fill="#ffaf8a"/></g><g transform="translate(46.198 56.138)"><path d="M102.189,287.526c1.481,1.158,1.47,3.646-.024,5.558s-3.907,2.523-5.387,1.366-1.47-3.644.024-5.556S100.707,286.37,102.189,287.526Z" transform="translate(-95.674 -286.941)" fill="#ffaf8a"/></g><path d="M133.836,268.306c-.775-3.638-3.482-6.545-6.344-8.921a49.5,49.5,0,0,0-14.277-8.272,24.981,24.981,0,0,0-11.893-1.841c-4.018.533-7.97,2.761-9.781,6.386a8.267,8.267,0,0,0-.46,1.177,13.182,13.182,0,0,0-7.849-1.248c-5.831.689-11,4.545-14.137,9.51s-4.4,10.931-4.532,16.8A48.96,48.96,0,0,0,85.28,322.507c2.384,1.651,5.353,3.132,8.079,2.146,3.666-1.327,4.523-6.18,3.9-10.029-1.32-8.146-6.5-16.159-4.127-24.063.9-2.991,2.816-5.577,3.889-8.508a27.727,27.727,0,0,0,.929-15.255,13.442,13.442,0,0,0,5.737,3.095c5.669,1.383,12.064-.871,17.26,1.777,3.119,1.59,5.961,4.912,9.35,4.038C133.227,274.953,134.465,271.263,133.836,268.306Z" transform="translate(-64.552 -249.122)" fill="#ff3b43"/></g><g transform="translate(97.106 81.317)"><path d="M111.507,300.326l6.763,6.758s9.546-2.218,12.309-6.908-1.343-13.61-1.343-13.61l-7.631-3.586Z" transform="translate(-111.507 -282.979)" fill="#ffc0a9"/></g><g transform="translate(31.965 295.275)"><rect width="390.473" height="7.085" rx="2.25" fill="#fff"/></g></g><g transform="translate(559.984 206.469)"><g transform="translate(12.968 183.627)"><path d="M482.738,330.452l16.6,9.785L552.4,362.028a19.183,19.183,0,0,1,8.259,29.008,57.054,57.054,0,0,0-4.667,7.03c-1.694,3.775-51.281,70.569-51.281,70.569l-15.73.822c0-.006,26.3-49.222,29.266-56.968s6.125-15.4,9.5-22.955c.448-1.006.926-2,1.388-3-15.291-6.616-19.938-6.381-40.648-13.411-32.612-11.069-68.581-8.544-52.412-60.431Z" transform="translate(-432.075 -312.697)" fill="#bf2c32"/></g><g transform="translate(74.807 337.772)"><path d="M473.735,416.541Z" transform="translate(-473.735 -416.541)" fill="#fff"/></g><g transform="translate(70.094 339.781)"><path d="M508.2,434.818a3.33,3.33,0,0,0-2.936-2.224l-2.418-.1a17.778,17.778,0,0,1-16.7-14.6l-15.326.888-.258,11.681a8.025,8.025,0,0,0,.117,1.484c.03.177.079.343.12.517a7.375,7.375,0,0,0,.248.864c.073.2.156.4.243.6.105.232.221.454.347.674.113.2.23.664.359.852.033.047.059.414.094.414h.027c1.406,2.969,3.684,3.007,6.292,3.065l26.576.453A3.435,3.435,0,0,0,508.2,434.818Z" transform="translate(-470.56 -417.895)" fill="#1d262d"/></g><g transform="translate(54.35 339.781)"><path d="M497.594,434.818a3.33,3.33,0,0,0-2.936-2.224l-2.418-.1a17.778,17.778,0,0,1-16.7-14.6l-15.326.888-.258,11.681a8.025,8.025,0,0,0,.117,1.484c.03.177.079.343.12.517a7.387,7.387,0,0,0,.248.864c.073.2.156.4.243.6.105.232.221.454.347.674.113.2.23.664.359.852.033.047.059.414.094.414h.027c1.406,2.969,3.684,3.007,6.292,3.065l26.576.453A3.435,3.435,0,0,0,497.594,434.818Z" transform="translate(-459.953 -417.895)" fill="#193441"/></g><g transform="translate(7.641 189.988)"><path d="M485.454,316.982l6.12,22.313,60.671,25.818a15.1,15.1,0,0,1,6.442,18.791c-1.57,3.846-64.836,86.329-64.836,86.329l-18.895-.524s3.15-38.313,47.261-76.9a8.69,8.69,0,0,0,1.527-2.926S503.293,386,481.78,382.062c-43.037-7.873-68.754-26.242-43.037-63.5Z" transform="translate(-428.486 -316.982)" fill="#ff3b43"/></g><g transform="translate(46.754 106.822)"><path d="M541.609,287.576c-.028-.319-.043-.485-.043-.485a5.113,5.113,0,0,0-5.549-4.637l-.208.024-2.182.294a1.523,1.523,0,0,0-.386.132,5.213,5.213,0,0,0-.968.558,7.39,7.39,0,0,0-2.366,2.93c-.744,1.426-1.015,3.6-2.47,5.347-1.465,1.732-3.092,3.693-5.057,5.629a62.716,62.716,0,0,1-6.549,5.759,38.985,38.985,0,0,1-7.5,4.671,16.6,16.6,0,0,1-3.463,1.189,3.331,3.331,0,0,1-2.592-.534,18.871,18.871,0,0,1-2.609-2.243,64.346,64.346,0,0,1-6.07-7.322c-1.986-2.733-3.837-5.647-5.624-8.506-3.543-5.75-6.654-11.416-9.255-16.31s-4.7-9.049-6.141-11.939c-.209-.423-.4-.809-.582-1.177a112.629,112.629,0,0,1-17.159,19.319c.929,1.68,1.955,3.494,3.076,5.419,3.028,5.16,6.717,11.106,11.183,17.333q3.34,4.682,7.407,9.47a71.415,71.415,0,0,0,9.533,9.438,37.207,37.207,0,0,0,6.76,4.4,24.119,24.119,0,0,0,4.711,1.752,20.556,20.556,0,0,0,2.892.512c.531.04,1.064.068,1.6.083l.414,0,.044,0,.089-.01.177-.016.355-.036a21.924,21.924,0,0,0,4.95-.914,22.8,22.8,0,0,0,3.984-1.6,30.562,30.562,0,0,0,6.1-4.141,54.693,54.693,0,0,0,8.075-9.013c2.16-2.949,3.889-5.825,5.494-8.415,1.553-2.629,2.981-4.98,4.14-7.125s3.09-3.4,4.112-4.835a7.868,7.868,0,0,0,1.634-3.77A6.014,6.014,0,0,0,541.609,287.576Z" transform="translate(-454.836 -260.955)" fill="#db8832"/></g><g transform="translate(0 93.685)"><path d="M482.7,256.852c-1.891-2.929-4.976-4.68-10.428-4.744-2.145-.025-21.63.128-21.63.128-10.388,2.148-14.369,2.93-21.261,8.148-7.368,5.578-7.432,14.706-3.2,32.768l8.639,36.86-4.6,37.815s22.45,1.388,33.6-2.439,27.6-13.717,27.6-13.717l-1.585-11.22a161.3,161.3,0,0,1-.9-41.227c.38-3.251.245-6.433-.588-8.373a73.207,73.207,0,0,1-6.678-17.382c2.985-2.752,5.59-8.225,5.59-8.225A60.816,60.816,0,0,0,482.7,256.852Z" transform="translate(-423.339 -252.105)" fill="#fff"/></g><g transform="translate(22.49 24.122)"><path d="M495.064,230.487c.318-14.268-7.569-22.775-23.533-24.994a28.235,28.235,0,0,0-25.221,9.978l-.9,1.058c-5.14,6.053-7.8,16.535-6.659,24.393l8.317,18.421-4.394,16.192s16.149,13.389,22.438,3.367l1.159-12.61s8.479,4.937,15.642,2.347C485.662,267.284,494.419,259.606,495.064,230.487Z" transform="translate(-438.49 -205.242)" fill="#e89a49"/><g clip-path="url(#a)"><g transform="translate(50.378 35.121)"><path d="M472.432,232.331c.094,1.769,2.02,3.107,4.3,2.987s4.061-1.652,3.968-3.421-2.02-3.105-4.3-2.987S472.34,230.562,472.432,232.331Z" transform="translate(-472.429 -228.902)" fill="#ffaf8a"/></g></g></g><g transform="translate(59.386 70.842)"><path d="M464.354,237.711a1.078,1.078,0,0,0-.776,1.728,7.806,7.806,0,0,0,12.74-1.041,1.1,1.1,0,0,0-1.015-1.677Z" transform="translate(-463.346 -236.716)" fill="#fff"/></g><g transform="translate(52.033 61.206)"><path d="M458.395,233.248c-.08,1.769,1.709,3.288,3.993,3.392s4.2-1.248,4.282-3.019-1.709-3.288-3.993-3.39S458.475,231.478,458.395,233.248Z" transform="translate(-458.392 -230.224)" fill="#ffaf8a"/></g><g transform="translate(54.55 54.85)"><path d="M460.11,227.616a1.966,1.966,0,1,0,2.236-1.652A1.967,1.967,0,0,0,460.11,227.616Z" transform="translate(-460.088 -225.942)" fill="#193441"/></g><g transform="translate(15.607 127.084)"><path d="M541.184,283.354a5.327,5.327,0,0,0-2.1-.355l-.288.013a6.972,6.972,0,0,0-1.712.371,14.3,14.3,0,0,0-4.1,2.129,64.374,64.374,0,0,0-5.339,4.778,22.06,22.06,0,0,1-3.622,2.469q-2,1.165-4.2,2.448c-2.942,1.679-6.171,3.423-9.626,5.149s-7.132,3.454-10.93,5.112-7.738,3.227-11.615,4.507a54.437,54.437,0,0,1-5.614,1.619,23,23,0,0,1-2.457.453,3.274,3.274,0,0,1-2.532-.778,23.6,23.6,0,0,1-3.307-3.087,80.443,80.443,0,0,1-6.951-9.013c-4.374-6.5-8.14-13.187-11.284-18.944q-1.6-2.984-2.993-5.62a119.8,119.8,0,0,1-18.656,15.516c.368.62.739,1.245,1.13,1.885,1.839,3.049,3.9,6.329,6.224,9.745s4.863,7.008,7.789,10.633a88.246,88.246,0,0,0,10.214,10.984,43.617,43.617,0,0,0,7.317,5.311,25.829,25.829,0,0,0,5.238,2.252,20.4,20.4,0,0,0,3.365.705c.591.083,1.268.105,1.9.131l.543.007.107-.007.214-.016.427-.031c.494-.033,1.13-.089,1.683-.153l1.309-.211c.824-.159,1.62-.338,2.359-.54a42.943,42.943,0,0,0,4.13-1.349,67.459,67.459,0,0,0,7.024-3.3,134.4,134.4,0,0,0,11.887-7.465c3.66-2.54,7.075-5.08,10.262-7.526,3.168-2.437,6.163-4.741,8.929-6.867l3.935-3.052A25.529,25.529,0,0,1,533.5,298.7a52.381,52.381,0,0,0,6.416-3.549,14.14,14.14,0,0,0,3.392-3.327,7.937,7.937,0,0,0,.922-1.585A5.321,5.321,0,0,0,541.184,283.354Z" transform="translate(-433.853 -274.605)" fill="#e89a49"/></g><g transform="translate(73.156 52.721)"><path d="M472.644,226.182a1.966,1.966,0,1,0,2.235-1.652A1.967,1.967,0,0,0,472.644,226.182Z" transform="translate(-472.622 -224.508)" fill="#193441"/></g><g transform="translate(11.065)"><path d="M508.174,213.118c-3.153-.395-6.292,1.317-9.442.9-3.613-.481-6.266-3.6-8.136-6.729s-3.439-6.611-6.359-8.795c-5.651-4.223-11.86-2.2-16.5,1.98a14.851,14.851,0,1,0-26.983,11.351A21.61,21.61,0,0,0,430.8,230.19c-.525,22.83,19.419,35.754,19.419,35.754s4.461-8.727,0-14.761-4.265-10.367.2-10.628,8.332,15.417,13.187,3.346a104.2,104.2,0,0,0,4.567-16.922,25.046,25.046,0,0,0,4.358,1.956c7.612,2.608,12.639-3.368,19.791-2.593,3,.325,5.516,2.338,8.362,3.329,4.823,1.682,10.915-.187,13.193-4.759S513.242,213.753,508.174,213.118Z" transform="translate(-430.793 -188.991)" fill="#193441"/></g></g><g transform="translate(721.028 80.482)"><g transform="translate(24.856 234.36)"><g transform="translate(0 104.063)"><g transform="translate(0 129.805)"><path d="M589.538,420.265l.376,11.471a7.883,7.883,0,0,1-7.621,8.134l-30.336.851a3.271,3.271,0,0,1-3.2-4.317h0a3.271,3.271,0,0,1,2.862-2.215l6.607-.125a17.392,17.392,0,0,0,16.254-14.513h0Z" transform="translate(-548.576 -419.552)" fill="#1d262d"/></g><g transform="translate(11.36)"><path d="M586.611,432.347c.3-13.647.582-29.273.582-40.936,0-1.049,2.1-59.306,2.1-59.306l-33.065,2.623,2.328,49.339a106.8,106.8,0,0,0,1.331,12.507l5.957,35.772Z" transform="translate(-556.229 -332.105)" fill="#ffc0a9"/></g><g transform="translate(20.538 97.617)"><path d="M562.412,397.868l5.36,32.187,15.063.713s.454-15.136.839-32.9Z" transform="translate(-562.412 -397.868)" fill="#fff"/><g transform="translate(0.874 5.249)"><path d="M583.148,406.653q.06-2.549.123-5.249H563l.874,5.249Z" transform="translate(-563.001 -401.404)" fill="#ffd01f"/></g><g transform="translate(2.535 15.221)"><path d="M582.381,412.32c.036-1.337.071-2.719.108-4.2H564.12l.7,4.2Z" transform="translate(-564.12 -408.122)" fill="#ffd01f"/></g></g></g><g transform="translate(60.17 104.063)"><g transform="translate(3.083 129.805)"><path d="M591.567,420.265l-.374,11.471a7.883,7.883,0,0,0,7.621,8.134l30.335.851a3.27,3.27,0,0,0,3.2-4.317h0a3.269,3.269,0,0,0-2.86-2.215l-6.608-.125a17.391,17.391,0,0,1-16.253-14.513h0Z" transform="translate(-591.188 -419.552)" fill="#1d262d"/></g><path d="M591.792,432.347c-.3-13.647-.582-29.273-.582-40.936,0-1.049-2.1-59.306-2.1-59.306l33.065,2.623-2.328,49.339a107.11,107.11,0,0,1-1.331,12.507l-5.957,35.772Z" transform="translate(-589.111 -332.105)" fill="#ffc0a9"/><g transform="translate(2.623 97.617)"><path d="M612.14,397.868l-5.359,32.187-15.065.713s-.454-15.136-.839-32.9Z" transform="translate(-590.878 -397.868)" fill="#fff"/><g transform="translate(0.117 5.249)"><path d="M591.082,406.653q-.062-2.549-.125-5.249h20.271l-.873,5.249Z" transform="translate(-590.957 -401.404)" fill="#ffd01f"/></g><g transform="translate(0.358 15.221)"><path d="M591.227,412.32c-.034-1.337-.07-2.719-.108-4.2H609.49l-.7,4.2Z" transform="translate(-591.119 -408.122)" fill="#ffd01f"/></g></g></g><g transform="translate(7.39 5.507)"><path d="M553.625,372.663h42.968c1.02-15.481-.658-32.968,2.5-53.185,1.636-10.472,3.836-29.962,4.1-39.734L558.446,265.71S552.869,347.868,553.625,372.663Z" transform="translate(-553.555 -265.71)" fill="#315ad6"/></g><g transform="translate(46.151)"><path d="M587.686,374.46H628.1c.172-24.6-5.256-101.162-4.4-107.017L579.667,262l4.455,61.418S586.2,359.482,587.686,374.46Z" transform="translate(-579.667 -262)" fill="#4a6dd6"/></g></g><g transform="translate(115.446)"><path d="M641.956,179.521c-.116,1.286-.252,2.178-.384,3.282-.284,1.979-.578,3.877-.894,5.664-1.306,7.187-14.158,35.34-14.158,35.34L609.605,207.9s1.652-4.861,2.666-7.735c.9-2.559,1.884-5.33,2.92-8.262,1.054-2.906,2.136-5.984,3.169-9.074.549-1.557,1.045-3.082,1.523-4.572q.294-.989.594-1.991l.211-.693.028-.088.007-.022c-.058,1.067-.013.272-.025.5l.006-.085.028-.338.027-.338.013-.169v-.018a.134.134,0,0,1,.021-.071c.015-.012.037-.027.028-.258v-1.054c-.03-.782-.053-1.568-.116-2.421q-.187-2.6-.372-5.207c-.3-3.612-.594-7.223-.886-10.777-.34-3.6-.674-7.14-1-10.567-.353-3.432-.658-6.766-1.081-9.9-.377-3.147-.81-6.107-1.229-8.837-.22-1.361-.364-2.684-.65-3.905a19.74,19.74,0,0,0-1.182-3.386,22.759,22.759,0,0,1-1.875-5.513,10.081,10.081,0,0,1,.3-5.252l.028-.07a6.014,6.014,0,0,1,9.469-2.216,10.138,10.138,0,0,1,2.641,4.6,22.453,22.453,0,0,1,.778,5.808,20.492,20.492,0,0,0,.433,3.582c.279,1.231.73,2.489,1.125,3.821.813,2.657,1.7,5.535,2.7,8.569.954,3.044,2.084,6.231,3.181,9.552s2.218,6.779,3.361,10.279c1.112,3.525,2.271,7.118,3.23,10.823.493,1.863.99,3.723,1.386,5.688.212.962.419,2,.609,3.025L641.96,173a10.027,10.027,0,0,1,.183,1.1l.214,1.287Z" transform="translate(-609.605 -104.116)" fill="#ffc0a9"/></g><path d="M532.232,179.521c.116,1.286.252,2.178.383,3.282.283,1.979.579,3.877.9,5.664,1.306,7.187,14.158,35.34,14.158,35.34L564.582,207.9s-1.652-4.861-2.666-7.735c-.9-2.559-1.884-5.33-2.92-8.262-1.055-2.906-2.136-5.984-3.171-9.074-.549-1.557-1.043-3.082-1.521-4.572q-.294-.989-.594-1.991l-.211-.693-.028-.088-.007-.022c.058,1.067.013.272.025.5l-.006-.085-.028-.338-.027-.338-.015-.169,0-.018a.134.134,0,0,0-.021-.071c-.015-.012-.037-.027-.03-.258l0-1.054c.03-.782.053-1.568.116-2.421q.187-2.6.372-5.207c.3-3.612.594-7.223.886-10.777.34-3.6.674-7.14,1-10.567.353-3.432.658-6.766,1.081-9.9.377-3.147.81-6.107,1.229-8.837.22-1.361.364-2.684.65-3.905a19.74,19.74,0,0,1,1.182-3.386,22.685,22.685,0,0,0,1.873-5.513,10.092,10.092,0,0,0-.3-5.252l-.028-.07a6.014,6.014,0,0,0-9.469-2.216,10.138,10.138,0,0,0-2.641,4.6,22.513,22.513,0,0,0-.779,5.808,20.341,20.341,0,0,1-.432,3.582c-.279,1.231-.73,2.489-1.125,3.821-.813,2.657-1.7,5.535-2.7,8.569-.954,3.044-2.084,6.231-3.181,9.552s-2.218,6.779-3.361,10.279c-1.112,3.525-2.271,7.118-3.232,10.823-.491,1.863-.989,3.723-1.385,5.688-.212.962-.419,2-.609,3.025L532.227,173a10.045,10.045,0,0,0-.183,1.1l-.214,1.287Z" transform="translate(-531.831 -104.116)" fill="#ffc0a9"/><g transform="translate(29.03 111.871)"><path d="M625.425,195.616c-17.908-.542-16.294-15.764-16.294-15.764l-11.976-.37-11.978.37s1.614,15.222-16.293,15.764c-5.819.175-17.5,19.076-17.5,19.076H633.5S628.1,195.7,625.425,195.616Z" transform="translate(-551.388 -179.482)" fill="#ffc0a9"/></g><g transform="translate(60.465 116.982)"><path d="M574.348,182.925a16.8,16.8,0,0,1-1.783,4.513c5.608,12.163,21.149,13.707,28.132-.834a12.528,12.528,0,0,1-1.2-3.678Z" transform="translate(-572.565 -182.925)" fill="#ffaf96"/></g><g transform="translate(46.711 46.964)"><path d="M563.556,163.274c1.654-17.612,14.538-27.721,27.218-27.516s25.313,10.72,26.536,28.38c.717,10.343-1.533,21.491-3.157,27.9a23.25,23.25,0,0,1-5.273,10.015c-5.737,6.272-13.19,11.272-19.048,11.179s-13.186-5.332-18.77-11.786a23.49,23.49,0,0,1-5.028-10.18C564.57,184.806,562.588,173.592,563.556,163.274Z" transform="translate(-563.299 -135.755)" fill="#ffc0a9"/></g><g transform="translate(10.27 100.765)"><path d="M666.778,184.865,642.286,172l-17.3,25.174s-4.079,13.3-21.636,13.679c-19.021-.381-22.125-13.679-22.125-13.679l-19.209-24.656L538.75,186.1l24.917,44.076,1.8,90.632s7.155,5.152,37.88,5.663c29.262-.511,39.679-6.034,39.679-6.034l-.822-87.292Z" transform="translate(-538.75 -172)" fill="#45316b"/></g><g transform="translate(57.379 86.802)"><path d="M574.673,164.686a2.094,2.094,0,1,1-2.093-2.093A2.093,2.093,0,0,1,574.673,164.686Z" transform="translate(-570.486 -162.593)" fill="#193441"/></g><g transform="translate(86.004 86.802)"><path d="M589.77,164.686a2.094,2.094,0,1,0,2.094-2.093A2.093,2.093,0,0,0,589.77,164.686Z" transform="translate(-589.77 -162.593)" fill="#193441"/></g><g transform="translate(65.528 105.009)"><path d="M577.359,174.859a1.348,1.348,0,0,0-1.161,2.065,9.759,9.759,0,0,0,15.984.137,1.371,1.371,0,0,0-1.076-2.2Z" transform="translate(-575.976 -174.859)" fill="#fff"/></g><g transform="translate(55.29 94.273)"><path d="M577.905,171.045c0,1.887-1.976,3.417-4.413,3.417s-4.413-1.53-4.413-3.417,1.976-3.419,4.413-3.419S577.905,169.156,577.905,171.045Z" transform="translate(-569.079 -167.626)" fill="#ffaf8a"/></g><g transform="translate(83.453 94.273)"><path d="M588.052,171.045c0,1.887,1.976,3.417,4.413,3.417s4.413-1.53,4.413-3.417-1.976-3.419-4.413-3.419S588.052,169.156,588.052,171.045Z" transform="translate(-588.052 -167.626)" fill="#ffaf8a"/></g><g transform="translate(45.298 40.059)"><path d="M618.547,140.156c-5.293-2.483-10.51-7.781-16.344-8.856-4.045-.745-7.606.822-11.531,1.422-4.643.711-9.95.364-14.519,1.7-7.229,2.111-12.746,8.547-10.368,15.154a29.4,29.4,0,0,0-3.123,10.7c-1.223,12.518,1.456,20.4,2.382,20.017,1.513-.628,3.206-3.543,3.206-9.2,0-7.8,2.906-11.927,6.03-13.307,10.357,6.931,22.919,4.613,34.217.616,2.664,1.812,4.912,5.837,4.912,12.691,0,6.757,1.692,8.572,3.2,9.2.928.384,3.607-7.5,2.382-20.017a30.86,30.86,0,0,0-1.171-5.863C624.228,150.576,627.818,144.505,618.547,140.156Z" transform="translate(-562.347 -131.103)" fill="#ab661f"/></g></g><g transform="translate(75.077 62.368)"><g transform="translate(35.665)"><rect width="87.064" height="109.617" fill="#ffc366"/><g transform="translate(14.27 14.089)"><rect width="58.525" height="81.438" fill="#fff"/></g><g transform="translate(17.313 29.434)"><g transform="translate(20.251 36.749)"><path d="M151.938,152.086h-5.2a.742.742,0,0,1-.742-.742v-14.1a.742.742,0,1,1,1.484,0V150.6h4.453a.742.742,0,1,1,0,1.484Z" transform="translate(-146 -136.5)" fill="#ffc366"/></g><g transform="translate(27.673 30.812)"><path d="M156.938,154.024h-5.2a.742.742,0,0,1-.742-.742V133.242a.742.742,0,1,1,1.484,0v19.3h4.453a.742.742,0,0,1,0,1.484Z" transform="translate(-151 -132.5)" fill="#ffc366"/></g><path d="M132.357,138.567h0a20.685,20.685,0,0,0,24.6,12.781h0A24.289,24.289,0,0,0,174.9,131.037l.683-5.157a12.5,12.5,0,0,0-9.984-13.9h0a12.5,12.5,0,0,0-14.553,9.347l-5.362,22.347Z" transform="translate(-132.357 -111.743)" fill="#a8cfff"/><g transform="translate(41.895 9.901)"><path d="M162.02,119.556s-2.918,1.363-.442,4.591l4.321.6-1.376-2.335,2.233-4Z" transform="translate(-160.581 -118.413)" fill="#e89a49"/></g></g></g><g transform="translate(124.528 33.869)"><circle cx="34.172" cy="34.172" r="34.172" transform="translate(0 15.549) rotate(-13.15)" fill="#91baee"/><g transform="translate(11.968 11.968)"><circle cx="26.945" cy="26.945" r="26.945" transform="matrix(0.083, -0.997, 0.997, 0.083, 0, 53.706)" fill="#fff"/></g><g transform="translate(27.591 26.913)"><path d="M212.578,148.935l-12.917-11.145a1.485,1.485,0,0,1,1.939-2.249l11.035,9.521,14.587-11.869a1.485,1.485,0,0,1,1.875,2.3Z" transform="translate(-199.146 -132.861)" fill="#91baee"/></g><g transform="translate(36.291 36.291)"><path d="M214.526,143.939a4.76,4.76,0,1,1-4.759-4.76A4.76,4.76,0,0,1,214.526,143.939Z" transform="translate(-205.007 -139.179)" fill="#ffc366"/></g></g><g transform="translate(10.562 47.629)"><path d="M126.588,124h-.677c-22.212,0-29.722,22.266-13.147,43.047h26.97C156.31,146.266,148.8,124,126.588,124Z" transform="translate(-103.782 -124)" fill="#7dc1a3"/><g transform="translate(7.186 15.483)"><path d="M112.344,138.274a.793.793,0,0,1-.485-.165l-2.923-2.247a.8.8,0,1,1,.974-1.266l2.923,2.246a.8.8,0,0,1-.488,1.432Z" transform="translate(-108.624 -134.431)" fill="#ffc366"/></g><g transform="translate(14.589 7.188)"><path d="M114.41,133.387a.8.8,0,0,1-.478-1.44L117.87,129a.8.8,0,1,1,.957,1.28l-3.94,2.947A.789.789,0,0,1,114.41,133.387Z" transform="translate(-113.611 -128.842)" fill="#ffc366"/></g><g transform="translate(9.287 27.646)"><path d="M112.7,145.888a.793.793,0,0,1-.531-.2l-1.866-1.665a.8.8,0,0,1,1.063-1.192l1.867,1.667a.8.8,0,0,1-.533,1.394Z" transform="translate(-110.039 -142.625)" fill="#ffc366"/></g><g transform="translate(18.529 20.74)"><path d="M117.064,143.064a.8.8,0,0,1-.6-1.333l3.139-3.493a.8.8,0,1,1,1.189,1.069l-3.139,3.493A.8.8,0,0,1,117.064,143.064Z" transform="translate(-116.265 -137.972)" fill="#ffc366"/></g><g transform="translate(27.517 7.376)"><path d="M125.942,133.324a.8.8,0,0,1-.558-.226l-2.823-2.758a.8.8,0,0,1,1.116-1.144l2.823,2.758a.8.8,0,0,1-.558,1.37Z" transform="translate(-122.32 -128.969)" fill="#ffc366"/></g><g transform="translate(32.411 14.133)"><path d="M126.416,139.469a.8.8,0,0,1-.592-1.336l3.953-4.351a.8.8,0,0,1,1.183,1.075l-3.953,4.351A.8.8,0,0,1,126.416,139.469Z" transform="translate(-125.617 -133.521)" fill="#ffc366"/></g><g transform="translate(28.661 28.479)"><path d="M125.569,147.142a.8.8,0,0,1-.652-.337l-1.679-2.356a.8.8,0,1,1,1.3-.928l1.679,2.356a.8.8,0,0,1-.65,1.265Z" transform="translate(-123.09 -143.186)" fill="#ffc366"/></g><g transform="translate(21.668 33.994)"><path d="M119.177,150.682a.8.8,0,0,1-.707-1.17l1.143-2.182a.8.8,0,0,1,1.415.742l-1.143,2.182A.8.8,0,0,1,119.177,150.682Z" transform="translate(-118.379 -146.901)" fill="#ffc366"/></g><g transform="translate(37.117 25.289)"><path d="M131.263,144.991a.8.8,0,0,1-.652-.335l-1.676-2.357a.8.8,0,0,1,1.3-.926l1.676,2.357a.8.8,0,0,1-.65,1.262Z" transform="translate(-128.787 -141.037)" fill="#ffc366"/></g><g transform="translate(4.441 41.04)"><path d="M142.825,161.5v-9.85H106.774v9.85a12.147,12.147,0,0,0,12.147,12.147h11.758A12.146,12.146,0,0,0,142.825,161.5Z" transform="translate(-106.774 -151.648)" fill="#d3e3f8"/></g></g><g transform="translate(0 109.092)"><rect width="209.793" height="10.41" fill="#ffdb82"/></g></g><g transform="translate(285.117 28.604)"><g transform="translate(9.154)"><g transform="translate(0 18.555)"><path d="M276.99,124.219H244.333V88.594l16.081-6.927,16.576,6.927Z" transform="translate(-244.333 -81.667)" fill="#d3e3f8"/></g><g transform="translate(8.906)"><path d="M265.177,80.3a7.422,7.422,0,0,1-14.844,0c0-4.1,7.422-11.133,7.422-11.133S265.177,76.2,265.177,80.3Z" transform="translate(-250.333 -69.167)" fill="#ffdb82"/></g><g transform="translate(13.112 8.164)"><circle cx="3.154" cy="3.154" r="3.154" fill="#ff9f89"/></g></g><g transform="translate(49.232 14.102)"><g transform="translate(0 14.273)"><path d="M296.454,121.015h-25.12v-27.4l12.37-5.328,12.75,5.328Z" transform="translate(-271.333 -88.282)" fill="#d3e3f8"/></g><g transform="translate(6.851)"><path d="M287.367,87.23a5.709,5.709,0,1,1-11.418,0c0-3.153,5.709-8.563,5.709-8.563S287.367,84.078,287.367,87.23Z" transform="translate(-275.949 -78.667)" fill="#ffdb82"/></g><g transform="translate(10.086 6.28)"><path d="M282.982,85.323a2.427,2.427,0,1,1-2.427-2.425A2.427,2.427,0,0,1,282.982,85.323Z" transform="translate(-278.128 -82.898)" fill="#ff9f89"/></g></g><g transform="translate(0 60.107)"><rect width="84.61" height="10.41" fill="#ffdb82"/></g></g><g transform="translate(556.35 0)"><g transform="translate(6.056 31.572)"><rect width="105.153" height="130.626" fill="#e5eefb"/></g><g transform="translate(0 28.356)"><rect width="117.266" height="8.906" fill="#ffdb82"/></g><g transform="translate(13.103)"><path d="M430.556,81.834l-.838-1.225L474.662,49.9l44.949,29.965-.823,1.235-44.114-29.41Z" transform="translate(-429.718 -49.897)" fill="#ffdb82"/></g><g transform="translate(23.938 56.585)"><circle cx="23.725" cy="23.725" r="23.725" fill="#fff"/></g><g transform="translate(62.259 79.815)"><path d="M462.833,143.25V103.667h39.584Z" transform="translate(-462.833 -103.667)" fill="#91baee"/></g><g transform="translate(6.056 122.613)" opacity="0.5"><rect width="41.919" height="20.29" transform="translate(41.919 20.29) rotate(180)" fill="#91baee"/></g><g transform="translate(89.225 111.482)"><rect width="9.204" height="51.459" fill="#fff"/></g><g transform="translate(0 158.24)"><rect width="117.266" height="8.906" transform="translate(0 0)" fill="#ffdb82"/></g></g><g transform="translate(3.738 567.417)"><path d="M48.607,435.088h0a2.934,2.934,0,0,0,2.935,2.935h963.115a2.934,2.934,0,0,0,2.935-2.935h0a2.934,2.934,0,0,0-2.935-2.933H51.542A2.934,2.934,0,0,0,48.607,435.088Z" transform="translate(-48.607 -432.155)" fill="#32c553"/></g></g></g></svg>