<svg xmlns="http://www.w3.org/2000/svg" xmlns:xlink="http://www.w3.org/1999/xlink" width="677.837" height="537.878" viewBox="0 0 677.837 537.878"><defs><clipPath id="a"><rect width="677.837" height="537.878" fill="none"/></clipPath><linearGradient id="b" x1="0.5" y1="1" x2="0.5" gradientUnits="objectBoundingBox"><stop offset="0" stop-color="gray" stop-opacity="0.251"/><stop offset="0.54" stop-color="gray" stop-opacity="0.122"/><stop offset="1" stop-color="gray" stop-opacity="0.102"/></linearGradient><linearGradient id="e" y2="-0.001" xlink:href="#b"/><linearGradient id="h" x1="29.773" y1="26.262" x2="29.773" y2="25.263" xlink:href="#b"/><linearGradient id="i" y1="0.999" xlink:href="#b"/><linearGradient id="j" x1="35.813" y1="30.815" x2="35.813" y2="29.815" xlink:href="#b"/><linearGradient id="k" x1="39.503" y1="24.82" x2="39.503" y2="23.82" xlink:href="#b"/><linearGradient id="l" x1="30.785" y1="19.69" x2="30.785" y2="18.69" xlink:href="#b"/><linearGradient id="m" x1="25.655" y1="10.971" x2="25.655" y2="9.972" xlink:href="#b"/><linearGradient id="n" x1="25.656" y1="0.713" x2="25.656" y2="-0.287" xlink:href="#b"/><linearGradient id="o" x1="40.017" y1="-13.391" x2="40.017" y2="-14.391" xlink:href="#b"/><linearGradient id="p" x1="50.274" y1="-13.135" x2="50.274" y2="-14.134" xlink:href="#b"/><linearGradient id="q" x1="58.481" y1="-8.006" x2="58.481" y2="-9.006" xlink:href="#b"/><linearGradient id="r" x1="63.609" y1="0.2" x2="63.609" y2="-0.799" xlink:href="#b"/><linearGradient id="s" x1="0.499" y1="0.414" x2="0.409" y2="0.857" gradientUnits="objectBoundingBox"><stop offset="0" stop-color="#f9cfbf"/><stop offset="1" stop-color="#e293d3"/></linearGradient><linearGradient id="t" x1="766.198" y1="-290.864" x2="-1597.578" y2="608.1" xlink:href="#s"/><linearGradient id="u" x1="690.757" y1="-1111.242" x2="-1491.349" y2="2401.723" xlink:href="#s"/><linearGradient id="w" x1="-0.72" y1="-843.455" x2="7.027" y2="4512.793" xlink:href="#s"/><linearGradient id="x" x1="0.511" y1="3.538" x2="0.965" y2="128.111" xlink:href="#s"/><linearGradient id="y" x1="0.499" y1="0.247" x2="0.507" y2="0.999" xlink:href="#s"/><linearGradient id="z" x1="4.212" y1="950.667" x2="27.44" y2="6899.825" xlink:href="#s"/></defs><g clip-path="url(#a)"><g transform="translate(-200.919 -831.164)"><ellipse cx="338.918" cy="21.303" rx="338.918" ry="21.303" transform="translate(200.919 1326.435)" opacity="0.1"/><g transform="translate(68.894 -46.263)"><rect width="220.479" height="145.792" transform="translate(238.733 877.427)" fill="url(#b)"/><rect width="216.069" height="124.157" transform="translate(240.663 894.652)" fill="#fff"/><rect width="216.069" height="14.193" transform="translate(240.663 880.458)" fill="#32c553"/><rect width="210.557" height="108.31" transform="translate(243.694 903.61)" fill="url(#b)"/><rect width="25.355" height="20.256" transform="translate(246.313 905.539)" fill="#32c553" opacity="0.5"/><rect width="25.355" height="20.256" transform="translate(271.943 905.539)" fill="#fff"/><rect width="25.355" height="20.256" transform="translate(297.574 905.539)" fill="#32c553" opacity="0.2"/><rect width="25.355" height="20.256" transform="translate(323.204 905.539)" fill="#fff"/><rect width="25.355" height="20.256" transform="translate(348.835 905.539)" fill="#fff"/><rect width="25.355" height="20.256" transform="translate(374.466 905.539)" fill="#32c553" opacity="0.5"/><rect width="25.355" height="20.256" transform="translate(400.096 905.539)" fill="#fff"/><rect width="25.355" height="20.256" transform="translate(425.727 905.539)" fill="#32c553" opacity="0.2"/><rect width="25.355" height="20.256" transform="translate(246.313 926.208)" fill="#32c553" opacity="0.2"/><rect width="25.355" height="20.256" transform="translate(271.943 926.208)" fill="#32c553" opacity="0.2"/><rect width="25.355" height="20.256" transform="translate(297.574 926.208)" fill="#fff"/><rect width="25.355" height="20.256" transform="translate(323.204 926.208)" fill="#32c553" opacity="0.5"/><rect width="25.355" height="20.256" transform="translate(348.835 926.208)" fill="#fff"/><rect width="25.355" height="20.256" transform="translate(374.466 926.208)" fill="#32c553" opacity="0.2"/><rect width="25.355" height="20.256" transform="translate(400.096 926.208)" fill="#32c553" opacity="0.5"/><rect width="25.355" height="20.256" transform="translate(425.727 926.208)" fill="#fff"/><rect width="25.355" height="20.256" transform="translate(246.313 946.602)" fill="#fff"/><rect width="25.355" height="20.256" transform="translate(271.943 946.602)" fill="#fff"/><rect width="25.355" height="20.256" transform="translate(297.574 946.602)" fill="#32c553" opacity="0.2"/><rect width="25.355" height="20.256" transform="translate(323.204 946.602)" fill="#fff"/><rect width="25.355" height="20.256" transform="translate(348.835 946.602)" fill="#32c553" opacity="0.2"/><rect width="25.355" height="20.256" transform="translate(374.466 946.602)" fill="#fff"/><rect width="25.355" height="20.256" transform="translate(400.096 946.602)" fill="#fff"/><rect width="25.355" height="20.256" transform="translate(425.727 946.602)" fill="#32c553" opacity="0.2"/><rect width="25.355" height="20.256" transform="translate(246.313 966.997)" fill="#fff"/><rect width="25.355" height="20.256" transform="translate(271.943 966.997)" fill="#32c553" opacity="0.5"/><rect width="25.355" height="20.256" transform="translate(297.574 966.997)" fill="#32c553" opacity="0.5"/><rect width="25.355" height="20.256" transform="translate(323.204 966.997)" fill="#fff"/><rect width="25.355" height="20.256" transform="translate(348.835 966.997)" fill="#fff"/><rect width="25.355" height="20.256" transform="translate(374.466 966.997)" fill="#32c553" opacity="0.5"/><rect width="25.355" height="20.256" transform="translate(400.096 966.997)" fill="#fff"/><rect width="25.355" height="20.256" transform="translate(425.727 966.997)" fill="#32c553" opacity="0.5"/><rect width="25.355" height="20.256" transform="translate(246.313 987.667)" fill="#38d39f" opacity="0.5"/><rect width="25.355" height="20.256" transform="translate(271.943 987.667)" fill="#38d39f" opacity="0.2"/><rect width="25.355" height="20.256" transform="translate(297.574 987.667)" fill="#fff"/><rect width="25.355" height="20.256" transform="translate(323.204 987.667)" fill="#32c553" opacity="0.5"/><rect width="25.355" height="20.256" transform="translate(348.835 987.667)" fill="#32c553" opacity="0.2"/><rect width="25.355" height="20.256" transform="translate(374.466 987.667)" fill="#fff"/><rect width="25.355" height="20.256" transform="translate(400.096 987.667)" fill="#32c553" opacity="0.2"/><rect width="25.355" height="20.256" transform="translate(425.727 987.667)" fill="#fff"/><rect width="7.717" height="7.717" transform="translate(248.379 948.531)" fill="#32c553"/><rect width="7.717" height="7.717" transform="translate(324.996 907.743)" fill="#32c553"/><rect width="7.717" height="7.717" transform="translate(324.169 948.531)" fill="#32c553"/><rect width="7.717" height="7.717" transform="translate(350.351 968.099)" fill="#32c553"/><rect width="7.717" height="7.717" transform="translate(401.337 948.531)" fill="#32c553"/><path d="M47.279,0A47.279,47.279,0,1,1,0,47.279,47.235,47.235,0,0,1,47.279,0Z" transform="translate(228.919 964.778)" fill="url(#b)"/><circle cx="46.003" cy="46.003" r="46.003" transform="translate(230.195 966.054)" fill="#32c553"/><circle cx="37.377" cy="37.377" r="37.377" transform="translate(238.822 974.68)" fill="#fff"/><circle cx="2.235" cy="2.235" r="2.235" transform="translate(273.963 1009.821)" fill="url(#e)"/><line x1="12.14" y2="28.75" transform="translate(276.518 983.306)" fill="#38d39f"/><path d="M170.988,411.989l-1.378-.463,12.4-29.026,1.378.648Z" transform="translate(106.054 600.344)" fill="url(#b)"/><rect width="31.209" height="0.959" transform="matrix(0.389, -0.921, 0.921, 0.389, 276.073, 1011.861)"/><line x2="7.987" y2="14.695" transform="translate(276.518 1012.377)" fill="#38d39f"/><path d="M178.6,503.934l-7.992-14.882,1.1-.551,8.268,14.607Z" transform="translate(105.329 523.557)" fill="url(#b)"/><rect width="0.959" height="16.726" transform="translate(276.093 1012.614) rotate(-28.52)"/><circle cx="0.959" cy="0.959" r="0.959" transform="translate(310.061 1012.057)" fill="#38d39f"/><circle cx="1.246" cy="1.246" r="1.246" transform="translate(244.503 995.292) rotate(-60)" fill="url(#h)"/><circle cx="1.246" cy="1.246" r="1.246" transform="translate(244.821 1029.841) rotate(-30)" fill="url(#i)"/><circle cx="1.246" cy="1.246" r="1.246" transform="translate(240.133 1011.771)" fill="url(#j)"/><circle cx="1.246" cy="1.246" r="1.246" transform="translate(257.215 981.603) rotate(-30)" fill="url(#k)"/><circle cx="1.246" cy="1.246" r="1.246" transform="translate(274.466 977.132) rotate(-30)" fill="url(#l)"/><circle cx="1.246" cy="1.246" r="1.246" transform="translate(291.717 981.604) rotate(-30)" fill="url(#m)"/><circle cx="1.246" cy="1.246" r="1.246" transform="translate(304.495 994.383) rotate(-30)" fill="url(#n)"/><circle cx="1.246" cy="1.246" r="1.246" transform="translate(304.177 1029.843) rotate(-30)" fill="url(#o)"/><circle cx="1.246" cy="1.246" r="1.246" transform="translate(291.078 1042.302) rotate(-30)" fill="url(#p)"/><circle cx="1.246" cy="1.246" r="1.246" transform="translate(274.465 1046.136) rotate(-30)" fill="url(#q)"/><circle cx="1.246" cy="1.246" r="1.246" transform="translate(257.854 1042.302) rotate(-30)" fill="url(#r)"/><circle cx="0.959" cy="0.959" r="0.959" transform="translate(275.239 976.596)" fill="#32c553"/><circle cx="0.959" cy="0.959" r="0.959" transform="translate(292.14 982.527) rotate(-60)" fill="#32c553"/><circle cx="0.959" cy="0.959" r="0.959" transform="translate(304.767 994.456) rotate(-30)" fill="#32c553"/><circle cx="0.959" cy="0.959" r="0.959" transform="translate(304.568 1030.647) rotate(-60)" fill="#32c553"/><circle cx="0.959" cy="0.959" r="0.959" transform="translate(291.469 1042.34) rotate(-30)" fill="#32c553"/><circle cx="0.959" cy="0.959" r="0.959" transform="translate(257.637 981.829) rotate(-30)" fill="#32c553"/><circle cx="0.959" cy="0.959" r="0.959" transform="translate(245.011 995.157) rotate(-60)" fill="#32c553"/><circle cx="1.246" cy="1.246" r="1.246" transform="translate(309.289 1012.594) rotate(-30)" fill="#32c553"/><circle cx="0.959" cy="0.959" r="0.959" transform="translate(245.213 1029.945) rotate(-30)" fill="#32c553"/><circle cx="0.959" cy="0.959" r="0.959" transform="translate(258.309 1043.043) rotate(-60)" fill="#32c553"/><circle cx="0.959" cy="0.959" r="0.959" transform="translate(240.42 1012.057)" fill="#32c553"/><circle cx="0.959" cy="0.959" r="0.959" transform="translate(275.239 1045.597)" fill="#32c553"/><path d="M220.048,512.931a37.382,37.382,0,0,1,69.8-18.6A37.382,37.382,0,1,0,223.08,527.7,37.25,37.25,0,0,1,220.048,512.931Z" transform="translate(20.692 502.641)" fill="#32c553" opacity="0.2"/><circle cx="1.598" cy="1.598" r="1.598" transform="translate(274.6 1010.458)" fill="#32c553"/></g><g transform="translate(51.048 870.725)"><g transform="translate(161.872 214.017)"><path d="M192.493,134.215l-11.832,6.923s-5.154-12.609-5.351-22.539-1.782-39.949-1.782-39.949,8.92,18.707,14.074,28.159,4.891,11.79,4.891,11.79Z" transform="translate(-103.834 -77.203)" fill="#2a2220"/><path d="M176.33,132.192l-12.836,3.641s-2.732-12.388-1.106-21.314,5.584-36.111,5.584-36.111,5.3,18.653,8.6,28.219,2.619,11.593,2.619,11.593Z" transform="translate(-161.872 -78.408)" fill="#2a2220"/><path d="M292.912,192.647s-40.045-14.8-124.9-107.7c0,0-7.133,1.644-1.979,18.085s45.922,79.342,70.739,96.609,29.576,27.95,29.576,27.95S288.751,218.75,292.912,192.647Z" transform="translate(-150.462 -45.878)" fill="#fbbebe" opacity="0.6"/><path d="M268.271,193.031l17.182-43.847s-30.927,0-57.628-19.729-49.168-28.506-49.168-28.506-5.285-12.328,0-15.616c0,0,99.658,27.95,118.951,31.238s23,23.024,23.263,44.672-.263,38.64-.263,38.64S290.738,212.766,268.271,193.031Z" transform="translate(-89.997 -43.936)" fill="#fba4ac" opacity="0.6"/><path d="M234.381,204.923,181.255,137.9s18.235-15.616,26.563-34.939l35.692,22.1Z" transform="translate(-65.369 43.812)" fill="#3f3d56"/><path d="M202.956,105.609c-2.666,4.819-4.382,10.66-6.086,15.61a193.717,193.717,0,0,0-6.445,21.015,132.717,132.717,0,0,0-3.049,28.62l16.537,20.865,9.129-79.863Z" transform="translate(-34.9 57.016)" fill="#19001c"/><path d="M252.038,213.8s-30.664,3.288-44.935,0-24.058-35.172-13.751-71.3,11.371-39.148,11.371-39.148,31.454,9.871,52.337,6.851c0,0-11.1,57.006.263,56.731Z" transform="translate(-26.45 45.749)" fill="#2a002f"/><path d="M254.613,122.7S243.8,150.425,238.6,158.209l-16.459-29.331s1.877-14.666,1.877-19.156S258.935,117.871,254.613,122.7Z" transform="translate(138.197 72.769)" fill="#fab8bc" opacity="0.6"/><path d="M240.909,126.128c4.077-.12,7.987-.227,11.9-.161.8-2,1.3-3.264,1.3-3.264,4.322-4.831-30.593-17.47-30.593-12.98,0,2.792-.724,9.53-1.273,14.217C228.438,125.189,234.506,126.313,240.909,126.128Z" transform="translate(138.7 72.769)" fill="#fbc2ca" opacity="0"/><path d="M267.485,170.07s-30.527-.676-43.734-15.939,15.807-52.749,29.014-54.77S305.593,158.621,267.485,170.07Z" transform="translate(129.444 25.664)" fill="#fbc5cc" opacity="0.6"/><path d="M314.38,166.028c-4.042,15.419-12.268,22.9-7.372,34.873,0,0-12.543-4.036-12.693-19.454-.149-14.857,4.681-44.039-5.309-45.455a19.549,19.549,0,0,1-.676,2.254c-8.017,21.679-21.224,27.711-27.077,31.747-5.835,4.054-18.617,11.234-16.459,3.587,2.182-7.623,1.3-26.031-5.423-39.04-5-9.661-2.571-22.073-.986-27.83-6.5,1.537-15.305,2.768-14.576,1.859,1-1.262,7.712-7.623,13.912-9.351a13.415,13.415,0,0,1,9.237.586c19.209-5.949,40.266,11.3,42.424,28.512.347-.377,5.476-5.674,16.471-1.644C317.267,130.862,318.421,150.621,314.38,166.028Z" transform="translate(146.282 22.143)" fill="#3f3d56"/><path d="M336.023,124.505l16.459,29.331S348,173.285,320.867,180.172s-105.08,2.69-120.093,2.092c0,0-5.285-30.832,3.952-47.291,0,0,35.023-9.721,50.322-16.381s37.241-13.542,58.029-4.867S336.023,124.505,336.023,124.505Z" transform="translate(24.317 77.142)" fill="#ff6f61" opacity="0.6"/><path d="M253.416,164.789s9.094,21.326,8.011,35.692-27.5,19.3-42,0,10.391-99.437,29.23-100.561c0,0,8.442.9,27.5,13.691s30.1,24.022,40.272,24.919a16.723,16.723,0,0,0,15.156-6.84s1.728-1.692,2.379,3.246-7.36,27.161-20.566,24.913-1.943-4.49-21.218-10.325-25.284-6.325-34.861-10.774C257.314,138.752,258.617,142.345,253.416,164.789Z" transform="translate(103.027 28.697)" fill="#fbc6cc"/><path d="M223.4,113.426s-.108-5.949-1.513-8.418c0,0,14.181,10.439,20.351,12.687a93.337,93.337,0,0,1,11.5,5.166S229.25,117.354,223.4,113.426Z" transform="translate(136.938 54.023)" fill="#fbc6cc"/><g transform="translate(0.001 0.006)" style="mix-blend-mode:color-burn;isolation:isolate"><path d="M614.019,227.217c-11.019-4.03-16.142,1.267-16.477,1.644-2.164-17.212-23.233-34.461-42.424-28.512a13.433,13.433,0,0,0-9.243-.586c-6.206,1.728-12.9,8.089-13.912,9.351-.215.275.436.359,1.62.275-1.423,1.232-2.858,2.6-4.3,4.089-10.8-5.937-15.724-6.463-15.724-6.463-11.467.682-25.182,30.652-30.88,58.345-15.329-1.148-30.186,3.88-41.438,8.783-15.311,6.654-50.328,16.381-50.328,16.381-8.215-5.9,1.554-56.175,1.554-56.175s.532-16.991.281-38.634c-.281-21.661-3.964-41.39-23.275-44.672-19.293-3.3-118.939-31.25-118.939-31.25s.257-2.326-4.89-11.778S231.56,79.862,231.56,79.862s1.6,30,1.794,39.931,5.339,22.551,5.339,22.551l11.844-6.923S273,144.192,299.7,163.915s57.616,19.729,57.616,19.729L340.132,227.51s-.568,1.626-4.944,16.77l-5.261-3.246-25.595-15.867s-40.063-14.785-124.911-107.7l-.161.054c0-1.178-.353-4.185-2.678-10.887-3.312-9.578-8.609-28.225-8.609-28.225s-3.964,27.179-5.578,36.1c-1.638,8.92,1.106,21.314,1.106,21.314l12.824-3.641.078-.424c.281,1.16.616,2.427,1.046,3.8,5.142,16.441,45.916,79.336,70.739,96.6s29.558,27.95,29.558,27.95l36.6,46.155,16.513,20.806v.018l.042.048c3.091,5.919,7.15,9.781,11.622,10.8,14.265,3.3,44.947,0,44.947,0l.024-.12c16.178.67,92.729,4.705,119.567-2.1,27.137-6.893,31.609-26.342,31.609-26.342,4.1-6.14,11.688-24.674,14.719-32.225,2.523,1.71,11.431-3.42,16.023-6.618,1.614-1.112,3.8-2.391,6.283-4.1h.018c.753.167,1.578.341,2.583.514,13.2,2.254,21.224-19.969,20.573-24.907s-2.385-3.252-2.385-3.252a17.432,17.432,0,0,0,.67-2.254c9.99,1.417,5.165,30.6,5.321,45.456.138,15.419,12.693,19.454,12.693,19.454-4.891-11.969,3.33-19.454,7.372-34.873S625.426,231.408,614.019,227.217Zm-90.194,38.156c-.257,2.912-.628,6.415-.945,9.267l-.06.478c-.179,1.423-.335,2.654-.43,3.521-.12.873-.179,1.405-.179,1.405a7.736,7.736,0,0,0-1.106-.735c-1.536-4.46-2.8-7.419-2.8-7.419.789-3.4,1.441-6.379,1.955-8.974a40.961,40.961,0,0,0,3.563,2.326h.018A.38.38,0,0,0,523.825,265.373Zm30.838,8.549v-.036h.024Z" transform="translate(-161.872 -78.409)" fill="url(#s)"/><path d="M222.431,109.659a.38.38,0,0,0-.018.132v-.132Z" transform="translate(139.54 77.173)" fill="url(#t)"/><path d="M227.591,111.106l-.02.034v-.034Z" transform="translate(165.222 84.375)" fill="url(#u)"/><path d="M227.591,111.106l-.02.034v-.034Z" transform="translate(165.222 84.375)" fill="url(#u)"/></g></g><g transform="translate(518.312 51.17)"><path d="M277.121,119.957s-26.378,15.539-31.077,16.674h33.994l19.652-12.788-11.24-5.183Z" transform="translate(-99.249 284.839)" fill="#2a2220"/><path d="M250.623,117.413s3.539,24.483,3.7,29.5c0,0,11.82,5.5,15.861.969s1.459-34.634,1.459-34.634Z" transform="translate(-76.452 257.884)" fill="#fecc9b"/><path d="M271.644,113.246l-21.021,4.167s.084.6.233,1.65a11.969,11.969,0,0,1,7.7,1.064c3.366,1.859,4.944,4.962,6.188,8.394a52.109,52.109,0,0,1,2.3,6.72c.675,3.181.161,6.272.155,9.488a8.966,8.966,0,0,1-1.513,4.92,6.144,6.144,0,0,0,4.5-1.77C274.233,143.354,271.644,113.246,271.644,113.246Z" transform="translate(-76.452 257.884)" fill="#f6b07f"/><path d="M312.792,94.81s-59.721,68.431-63.015,82.218-4.747,11.222-1.728,22.444,19.209,80.5,21.153,99.054c0,0,16.615-.981,19.1-1.68s-1.184-36.3-5.5-53.132-13.817-42.3-13.817-42.3L356.6,84.449,352.281,76.9S317.138,89.782,312.792,94.81Z" transform="translate(-97.475 76.921)" fill="#aa87b3"/><path d="M276.454,273.748s.981.55-5.746,1.094c0,0,3.755-13.637-5.745-48.6s-20.07-46.4-14.456-60,57.837-75.958,60-81.142,1.722-3.665,10.355-2.589c0,0-20.931,32.153-33.666,48.774s-32.452,38.843-28.309,50.28S281.261,232.125,276.454,273.748Z" transform="translate(-84.825 99.57)" fill="#8a6495"/><path d="M281.229,120.825s-25.092,12.3-33.181,14.564H298.2s.825-10.516-2.409-15.7Z" transform="translate(-89.272 289.962)" fill="#2a2220"/><path d="M270.571,116.4s-2.571,15.5-2.409,20.836c0,0-7.121,4.532-14.564,1.136l.646-19.921S266.016,115.3,270.571,116.4Z" transform="translate(-61.64 272.419)" fill="#fecc9b"/><path d="M374.546,76.97s8.418,17.7,1.513,33.45-32.8,39.919-41.432,49.635S291.9,202.348,291.9,202.348s9.279,15.108,10.57,41.653-10.57,67.331-10.57,67.331-16.19,2.8-18.779,2.158c0,0,1.082-58.806-21.254-109.63,0,0-6.475-7.282,2.266-18.773s48.552-63.666,63.66-80.281S337.646,80.42,337.646,80.42Z" transform="translate(-81.759 77.28)" fill="#aa87b3"/><path d="M340.391,91.533a15.457,15.457,0,0,0-3.043-2.487c-7.7-4.789-19.371-3.157-27.926-2.643-2.876.185-5.728.4-8.573.711-1.931.209-3.844.43-5.763.7a121.138,121.138,0,0,0-15.861,3.252c-7.33,2.045-14.851,3.378-22.025,5.853,1.178-1.363,1.842-2.11,1.842-2.11,4.334-5.028,39.489-17.906,39.489-17.906l2.164,3.779L336.5,77.327A51.105,51.105,0,0,1,340.391,91.533Z" transform="translate(-43.717 76.946)" fill="#8a6495"/><path d="M266.749,77.067s13.129,34.377,11.025,44.092-11.652,32.691-11.814,41.593,1.3,9.225,1.512,14.295.084,9.064-1.524,4.968-2.362-7.557-3.761-6.152-8.788,10.684-9.47,15.108c0,0-1.644.43-1.859-5.076s7.443-18.88,8.089-26.431,4.747-37.821,3.294-42.675S245.1,88.038,245.1,88.038Z" transform="translate(-103.949 77.763)" fill="#fecc9b"/><path d="M262.133,85.736a31.17,31.17,0,0,0,5.937-5.088c-.807-2.224-1.321-3.581-1.321-3.581L245.1,88.038s1,1.519,2.511,3.868C252.5,89.909,257.548,88.438,262.133,85.736Z" transform="translate(-103.949 77.763)" fill="#f6b07f"/><path d="M243.248,82.594s5.554,15.138,8.143,17.888c0,0,20.877-5.841,27.191-14.737L245.616,74.75Z" transform="translate(-113.169 66.227)" fill="#dfe546"/><path d="M263.331,102s-4.747,4.532-26.545-27.412C236.786,74.587,258.363,79.34,263.331,102Z" transform="translate(-145.341 65.416)" fill="#c2c744"/><path d="M232.687,65.729s-.347-14.707,18.552-14.558S275.2,68.73,273.707,75.133s-5.243,8.525-7.6,8.28S232.687,65.729,232.687,65.729Z" transform="translate(-165.749 -51.17)" fill="#604d3f"/><path d="M247.287,52.336a9,9,0,0,1,1.214,2.421c3,9.279-1.381,18.211-11.646,18.8,4.376,2.3,7.778,3.976,8.5,4.054,2.362.245,6.122-1.883,7.6-8.28C253.839,65.555,252.44,57.968,247.287,52.336Z" transform="translate(-145.002 -45.364)" fill="#433029"/><path d="M247.078,62.209A84.968,84.968,0,0,0,276.9,66.783l-22.82,32.368L237.733,91.54,243.4,63.363Z" transform="translate(-140.626 3.79)" fill="#fecc9b"/><path d="M248.208,76.875c.6-4.263,2.29-9.644,1-13.936-1.375-.436-2.134-.729-2.134-.729L243.4,63.363,237.733,91.54l7.5,3.492C246.545,89.077,247.37,82.859,248.208,76.875Z" transform="translate(-140.626 3.79)" fill="#f6b07f"/><path d="M236.786,136.751s28.488-63.23,48.122-71.642,75.534,0,115.238,35.824S438.128,151,438.128,151s-56.54,8.848-77.471,17.481c0,0-16.836-24.387-36.47-21.583s-37.336,2.8-46.4-4.962l-14.456,22.228S251.458,143.878,236.786,136.751Z" transform="translate(-145.341 3.252)" fill="#dfe546"/><path d="M243.644,89.832l9.279-17.266S241.27,97.814,290.044,94.795C290.044,94.795,256.379,102.023,243.644,89.832Z" transform="translate(-111.197 55.354)" fill="#c2c744"/><path d="M336.522,102.4s-27.9,34.562-35.669,33.05-20.937-5.823-47.261-26.109c0,0-11.114-8.956-13.488-9.715S225,94.771,222.515,90.67s.107-6.469,1.835-9.386,5.823-9.494,9.171-7.228,8.412,14.456,14.564,17.482,45.533,19.2,45.533,19.2,19.168-24.178,23.992-28.434C317.611,82.305,332.761,89.312,336.522,102.4Z" transform="translate(-221.491 60.447)" fill="#fecc9b"/><path d="M244.7,86.215c1.435,2.242,2.858,4.484,4.359,6.684a40.435,40.435,0,0,1,4.071,8.454c3.139-3.665,5.189-6.212,5.189-6.212C254.56,82.054,239.41,75.047,239.41,75.047c-.562.49-1.321,1.262-2.212,2.224C240.271,79.627,242.645,83.017,244.7,86.215Z" transform="translate(-143.29 67.706)" fill="#f6b07f"/><path d="M233.555,99.927l6.475,2.266s-3.342-3.127,2.589-11.114,10.863-15.317,10.863-15.317S238.087,92.7,233.555,99.927Z" transform="translate(-161.427 71.261)" fill="#f6b07f"/><path d="M298.621,82.4a24.494,24.494,0,0,1,.992,15.6c-2.379,8.334-7.934,29.564-15.873,29.367s-10.516-6.349-14.289-6.05-3.27-3.079-3.27-3.079a3.143,3.143,0,0,1-3.97-1.387c-1.489-2.481-6.248-7.539-6.248-7.539s-2.284,4.861-4.071,3.671-4.167-12.3-9.823-16.567S225.108,84.809,227.188,72.8,274.957,40.944,298.621,82.4Z" transform="translate(-194.381 -20.269)" fill="#fecc9b"/><path d="M245.782,60.793s-9.871,2.045-13.141,9.53c0,0-3.97-1.542-3.97-3.527S237.005,57.965,245.782,60.793Z" transform="translate(-185.742 -6.62)" fill="#604d3f"/><path d="M233.525,75.239A17.079,17.079,0,0,0,237,66.014s1.255,4.418-3.456,10.146A2.635,2.635,0,0,1,233.525,75.239Z" transform="translate(-161.726 22.734)" fill="#6d5148"/><path d="M283.783,93.559a63.6,63.6,0,0,1-8.005-6.606c-5.506-5.058-18.9-10.714-25-7.288s-23,9.237-20.13,23.221c0,0-3.533-.006-3.982-14s12.974-41.821,42.729-33.929,36.3,31.848,36.3,40.033-4.215,11.294-4.215,11.294-1.668-6.63-8.549-14.988Z" transform="translate(-195.793 -39.182)" fill="#604d3f"/><path d="M227.439,78.034s5.805-22.438,29.618-24.076c0,0,6.834,0,5.273,2.828s-11.688-.98-22.988,9.213S227.289,84.706,227.439,78.034Z" transform="translate(-191.953 -37.288)" fill="#756052"/><path d="M240.152,65.418c3.318,3.318,4.562,7.455,2.78,9.237s-5.919.538-9.237-2.78-4.562-7.455-2.78-9.237S236.834,62.1,240.152,65.418Z" transform="translate(-178.618 1.878)" fill="#433029"/><g transform="translate(52.574 64.796)"><path d="M235.5,65.135c1.56,2.015,2,3.976.987,4.376s-3.115-.915-4.675-2.93-2-3.976-.981-4.376S233.941,63.121,235.5,65.135Z" transform="translate(-230.284 -61.379)" fill="#fff"/><path d="M230.9,62.3a7.914,7.914,0,0,1,3.605,2.445c1.62,1.925,2.631.389.526-1.369S229.114,61.92,230.9,62.3Z" transform="translate(-229.517 -62.008)" fill="#fff"/></g><path d="M238.293,71.244s-6.7-10.863,0-13.1,8.035,4.317,9.673,7.294,3.121,7.443,0,7.892S241.564,74.813,238.293,71.244Z" transform="translate(-152.653 -18.708)" fill="#fecc9b"/><g transform="translate(0.001)" style="mix-blend-mode:color-burn;isolation:isolate"><path d="M270.734,76.969v.024l-.323.036a1.4,1.4,0,0,0,.149-.036A.945.945,0,0,1,270.734,76.969Z" transform="translate(22.065 77.275)" fill="url(#w)"/><path d="M243.579,69.819v.019l-5.512-2.568Z" transform="translate(-138.964 28.987)" fill="url(#x)"/><path d="M518.17,219.649c-.06-.43-.114-.867-.167-1.279a.725.725,0,0,1-.042-.221c-.072-.49-.167-.975-.239-1.447a.187.187,0,0,1-.024-.114c-.167-.861-.353-1.668-.52-2.451a.378.378,0,0,1-.042-.149c-.2-.849-.431-1.674-.634-2.421-.43-1.483-.867-2.756-1.238-3.749l-.018-.042c-.1-.239-.191-.466-.263-.693-.113-.3-.227-.538-.3-.765-.239-.58-.389-.879-.389-.879l-.323.036a1.4,1.4,0,0,0,.149-.036.945.945,0,0,1,.173-.024s1.722-14.247-37.988-50.077c-39.71-35.806-95.6-44.23-115.25-35.806a19.827,19.827,0,0,0-3.8,2.212h-.018a86.809,86.809,0,0,1-27.167-3.862c-.9-.287-1.56-.508-1.877-.622,1.238-1.483,3.2-4.705,3.2-10.3,0-4.663-2.134-14.51-9.542-23.568,2.362.245,6.11-1.871,7.611-8.268a12.654,12.654,0,0,0,.167-3.88,2.946,2.946,0,0,0-.036-.395c-.018-.185-.036-.371-.072-.562-.042-.3-.1-.6-.149-.9a22.651,22.651,0,0,0-1.052-3.749c-.113-.3-.245-.622-.359-.939-.281-.658-.6-1.315-.933-1.949-.173-.317-.359-.64-.544-.957s-.377-.622-.562-.921a21.68,21.68,0,0,0-2.087-2.66l-.036-.054-.018-.024c-3.6-3.934-9.016-6.917-16.8-6.971-18.9-.149-18.557,14.546-18.557,14.546-25.086-2.415-36.47,22.258-36.057,35.154.43,13.368,3.677,13.966,3.958,13.99h.018c3.24,5.7,9.207,9.709,12.842,12.447,5.644,4.275,8.023,15.371,9.823,16.573,1.782,1.184,4.072-3.671,4.072-3.671s4.759,5.058,6.242,7.533a3.135,3.135,0,0,0,3.976,1.387c0,.078-.018.149-.018.227a2.267,2.267,0,0,0,.018.526.643.643,0,0,0,.018.167c.132.957.771,2.362,3.246,2.152,3.767-.275,6.355,5.871,14.283,6.056,3.844.1,7.127-4.795,9.751-10.833l5.512,2.547,6.672,3.115c-11.114,18.713-19.837,38.078-19.837,38.078,1.052,1.537,2.063,3,3.019,4.37-.167.185-.353.395-.562.6-.562.6-1.178,1.291-1.853,2.045l-.018.018v.018H313.5v.018l-.018.042h-.018a3.591,3.591,0,0,0-.3.335c-2.4,2.643-15.353,17.081-19.5,23.663l-.06.072s-39.369-16.178-45.521-19.2-11.228-15.228-14.57-17.476c-3.354-2.266-7.443,4.317-9.165,7.222-1.728,2.924-4.329,5.285-1.836,9.392,2.475,4.1,15.2,8.191,17.583,8.962,2.38.747,13.482,9.709,13.482,9.709,26.342,20.268,39.5,24.6,47.267,26.1,5.662,1.106,22.007-16.943,30.485-26.826l2.924-3.468c3.994,2.977,5.213,1.818,5.213,1.818L351.569,200c.167.448,5.584,15.168,8.137,17.87,0,0,1.124-.323,2.942-.9,0,0,.992,1.519,2.511,3.862,4.484,6.977,13.536,21.242,14.624,24.883,1.465,4.855-2.642,35.13-3.3,42.67-.634,7.557-8.3,20.943-8.077,26.437.2,5.512,1.853,5.082,1.853,5.082a5.167,5.167,0,0,1,.15-.693c.018,1.931.526,4.179,1.65,8.358,3.037,11.216,19.221,80.49,21.152,99.054,0,0,.951-.06,2.451-.149,0,0,.018.09.042.281a1.11,1.11,0,0,1,.036.257,1.049,1.049,0,0,1,.036.245c.018.149.06.3.078.49.018.114.036.245.054.371.789,5.59,3.318,23.628,3.45,27.842,0,0-26.378,15.544-31.065,16.668h22.121a93.918,93.918,0,0,1-10.14,3.9h50.149s.825-10.54-2.415-15.712c-.149-5.345,2.415-20.83,2.415-20.83l1.2-.209s11.868-40.8,10.576-67.325c-1.3-26.551-10.576-41.659-10.576-41.659s34.1-32.59,42.729-42.3c8.645-9.715,34.533-33.881,41.438-49.629A36.731,36.731,0,0,0,518.17,219.649Zm-81.351,3.258-.036.036c-.1.114-.436.508-1,1.148a5.081,5.081,0,0,1-.448.5c-.036.06-.114.132-.167.209s-.131.149-.191.227c-7.479,8.6-35.621,41.414-51.051,62.973,1.877-10.439,9.524-29.361,11.4-37.928,1.686-7.778-6.433-31.442-9.715-40.493-.167-.454-.335-.885-.466-1.279-.149-.371-.281-.711-.377-1.01-.239-.658-.412-1.088-.466-1.238l-.018-.054a16.947,16.947,0,0,0,2.607-2.852,110.352,110.352,0,0,0,13.123-1.782c.072-.018.149-.018.2-.036l.114-.018c19.652-2.816,36.487,21.577,36.487,21.577Z" transform="translate(-221.491 -51.17)" fill="url(#y)"/><path d="M236.192,60.255a.155.155,0,0,0,.108.054h-.018Z" transform="translate(-148.299 -5.938)" fill="url(#z)"/><path d="M236.192,60.255a.155.155,0,0,0,.108.054h-.018Z" transform="translate(-148.299 -5.938)" fill="url(#z)"/></g></g></g></g></g></svg>