<svg xmlns="http://www.w3.org/2000/svg" width="64.992" height="47.414" viewBox="0 0 64.992 47.414"><g transform="translate(-16.993 -106.157)"><g transform="translate(26.319 106.157)"><circle cx="6.22" cy="6.22" r="6.22" fill="#32c553"/></g><g transform="translate(16.993 106.54)"><g transform="translate(0 0)"><path d="M79.362,150.193h-.006l-3.2.007a3.567,3.567,0,0,0-.884-1.355l-15.512-14.83a3.584,3.584,0,0,0-4.614-.286l-8.079,6-3.641-14.05,8.088-12.132a2.69,2.69,0,0,0-2.038-4.172l-10.77-.8a8.507,8.507,0,0,1,2.323,5.563l3.457.256-4.778,7.166-10.1,2.415L32.847,127l-9.03-5.28,1.91-2.238a8.5,8.5,0,0,1-1.575-6.436l-6.517,7.636a2.689,2.689,0,0,0,.7,4.07l12.639,7.335-2.651-.575L32.644,150.3l-13.029.067A2.622,2.622,0,0,0,17,153c0,1.446.234,2.616,1.679,2.616h.949l59.741-.175a2.622,2.622,0,0,0-.006-5.244Zm-34.463.08,12.093-8.986,9.348,8.936Z" transform="translate(-16.993 -108.58)" fill="#32c553"/></g></g></g></svg>