<svg id="Group_356" data-name="Group 356" xmlns="http://www.w3.org/2000/svg" width="694.906" height="455.215" viewBox="0 0 694.906 455.215">
  <path id="Path_511" data-name="Path 511" d="M103.456,261.052c-5.232,15.84,10.151,30.085,22.251,41.558a163,163,0,0,1,38.356,55.9c5.26,12.76,8.918,26.488,7.937,40.257-2.78,39.051-39.555,65.069-68.939,90.938-4.163,3.7-8.325,7.569-10.751,12.556-7.787,16,5.45,34.446,20.03,44.651,51.921,36.326,126.861,25.521,177.222-12.938,26.079-19.921,48.494-47.008,80.1-55.865,20.207-5.634,41.654-2.964,62.562-1.226A666.094,666.094,0,0,0,526.471,478c11.023-.681,22.55-1.744,31.782-7.8,23.375-15.315,19.43-51.628,36.3-73.905,12.127-16.01,32.845-22.183,50.878-31.032a159.174,159.174,0,0,0,66.65-61.847c14.477-24.642,21.978-52.656,29.3-80.275,5.518-20.752,11.057-42.485,6.384-63.448s-23.123-40.536-44.515-38.7c-16.426,1.41-29.493,14.389-45.312,19.035-37.893,11.159-74.682-27.6-113.992-23.859-24.751,2.35-44.713,21.12-59.8,40.877s-27.864,42-47.792,56.88c-31,23.164-73.469,23.981-111.417,16.48S250.572,208.144,212.2,203.225c-22.6-2.9-39.93,10.573-60.287,17.979C133.235,228,110.378,240.1,103.456,261.052Z" transform="translate(-90.002 -115.915)" fill="#32c553" opacity="0.1"/>
  <ellipse id="Ellipse_302" data-name="Ellipse 302" cx="49.556" cy="15.056" rx="49.556" ry="15.056" transform="translate(44.425 425.103)" opacity="0.1"/>
  <ellipse id="Ellipse_303" data-name="Ellipse 303" cx="132.353" cy="8.782" rx="132.353" ry="8.782" transform="translate(430.201 238.806)" opacity="0.1"/>
  <g id="Group_352" data-name="Group 352" transform="translate(435.222 46.596)" opacity="0.5">
    <path id="Path_512" data-name="Path 512" d="M705.042,68.4h0a6.922,6.922,0,0,1,6.922,6.922V267.784H698.12V75.315a6.922,6.922,0,0,1,6.922-6.915Z" transform="translate(-657.727 -68.4)" fill="#32c553"/>
    <path id="Path_513" data-name="Path 513" d="M927.956,68.4h0a6.922,6.922,0,0,1,6.922,6.922V267.784H921V75.315a6.922,6.922,0,0,1,6.956-6.915Z" transform="translate(-728.763 -68.4)" fill="#32c553"/>
    <rect id="Rectangle_1493" data-name="Rectangle 1493" width="13.844" height="246.515" rx="6.922" transform="translate(246.515 29.179) rotate(90)" fill="#32c553"/>
    <rect id="Rectangle_1494" data-name="Rectangle 1494" width="10.846" height="51.995" rx="5.423" transform="translate(25.432 10.097)" fill="#32c553"/>
    <rect id="Rectangle_1495" data-name="Rectangle 1495" width="10.846" height="42.274" rx="5.423" transform="translate(14.586 14.961)" fill="#32c553"/>
    <rect id="Rectangle_1496" data-name="Rectangle 1496" width="10.846" height="51.995" rx="5.423" transform="translate(221.076 62.092) rotate(180)" fill="#32c553"/>
    <rect id="Rectangle_1497" data-name="Rectangle 1497" width="10.846" height="42.274" rx="5.423" transform="translate(231.922 57.228) rotate(180)" fill="#32c553"/>
  </g>
  <g id="Group_353" data-name="Group 353" transform="translate(533.074 127.151)" opacity="0.5">
    <path id="Path_514" data-name="Path 514" d="M794.055,186.64h28.3a11.582,11.582,0,0,1,11.582,11.582v48.616H782.5V198.222A11.582,11.582,0,0,1,794.055,186.64Z" transform="translate(-782.473 -186.64)" fill="#32c553"/>
    <rect id="Rectangle_1498" data-name="Rectangle 1498" width="7.528" height="25.092" transform="translate(21.951 55.831)" fill="#32c553"/>
    <rect id="Rectangle_1499" data-name="Rectangle 1499" width="7.528" height="25.092" transform="translate(6.895 84.057)" fill="#32c553"/>
    <rect id="Rectangle_1500" data-name="Rectangle 1500" width="7.528" height="25.092" transform="translate(38.261 84.057)" fill="#32c553"/>
    <rect id="Rectangle_1501" data-name="Rectangle 1501" width="51.437" height="6.901" transform="translate(0 79.035)" fill="#32c553"/>
  </g>
  <ellipse id="Ellipse_304" data-name="Ellipse 304" cx="282.269" cy="20.697" rx="282.269" ry="20.697" transform="translate(40.037 373.046)" opacity="0.1"/>
  <path id="Path_515" data-name="Path 515" d="M670.36,578.636s19.444,8.781,28.852,8.781c0,0,10.035,2.507,15.67,5.021s27.6,3.76,27.6,3.76,25.718,9.409,28.852,13.8,12.542-15.669,12.542-15.669l-5.021-12.542-94.7-18.19Z" transform="translate(-274.973 -258.6)" fill="#ffb9b9"/>
  <path id="Path_516" data-name="Path 516" d="M670.36,578.636s19.444,8.781,28.852,8.781c0,0,10.035,2.507,15.67,5.021s27.6,3.76,27.6,3.76,25.718,9.409,28.852,13.8,12.542-15.669,12.542-15.669l-5.021-12.542-94.7-18.19Z" transform="translate(-274.973 -258.6)" opacity="0.05"/>
  <path id="Path_517" data-name="Path 517" d="M811.23,616.211s11.916,15.669,6.9,25.091-3.134,9.408,0,10.035,20.7,4.394,22.585-9.408,5.647-44.535,5.647-44.535l-25.752-2.514S827.54,618.091,811.23,616.211Z" transform="translate(-319.871 -268.57)" fill="#737a9d"/>
  <path id="Path_518" data-name="Path 518" d="M593.94,550.6l53.944,25.092s16.937-13.176,15.67-20.071L600.828,540.56Z" transform="translate(-250.616 -251.257)" fill="#4c4c78"/>
  <path id="Path_519" data-name="Path 519" d="M593.94,550.6l53.944,25.092s16.937-13.176,15.67-20.071L600.828,540.56Z" transform="translate(-250.616 -251.257)" opacity="0.1"/>
  <path id="Path_520" data-name="Path 520" d="M859.717,582.313l-5.668,13.8-13.149,3.12A83.981,83.981,0,0,0,829.121,591c-7.079-4.088-16.392-8.087-25.208-7.453,0,0-35.127-5.648-37.007-8.175,0,0-22.584-5.021-27.6-4.395-2.418.3-7.617-1.437-12.345-3.324-5.076-2.044-9.613-4.2-9.613-4.2l16.31-25.719a43.812,43.812,0,0,0,5.859,2.044c6.234,1.826,17.454,4.2,33.662,4.2,26.345,0,62.726,26.972,62.726,26.972s.361.123.981.307c2.725.824,10.492,2.766,14.075-.307C855.323,567.257,859.717,582.313,859.717,582.313Z" transform="translate(-289.949 -250.355)" fill="#ffb9b9"/>
  <path id="Path_521" data-name="Path 521" d="M912.006,597.6l-5.668,13.8-13.149,3.12a83.991,83.991,0,0,0-11.779-8.23c19.13,1.438,7.705-19.682,7.705-19.682h.041c2.725.825,10.492,2.766,14.075-.307C907.612,582.545,912.006,597.6,912.006,597.6Z" transform="translate(-342.239 -265.643)" opacity="0.1"/>
  <path id="Path_522" data-name="Path 522" d="M881.52,606.6s15.172,21.276,8.789,33.26-3.992,11.977,0,12.781,26.359,5.594,28.75-11.977c1.84-13.51.225-39.439-.62-50.694a5.375,5.375,0,0,0-5.845-4.946L890.4,587.064S902.286,608.994,881.52,606.6Z" transform="translate(-342.273 -265.421)" fill="#737a9d"/>
  <path id="Path_523" data-name="Path 523" d="M262.71,528.515l.627,30.739,6.9,5.014h23.838L298.464,558V528.515l-6.9-6.275H268.985Z" transform="translate(-83.732 -166.451)" fill="#38d39f"/>
  <path id="Path_524" data-name="Path 524" d="M356.471,648.28s4.394,28.226,0,30.74l-3.134-.627-.627-30.106Z" transform="translate(-173.732 -285.59)" fill="#fff" opacity="0.2"/>
  <path id="Path_525" data-name="Path 525" d="M433.724,642.251l5.021-5.021H462.59l5.021,5.021s6.275,18.19,1.254,30.106L463.2,678H439.358l-5.648-5.021Z" transform="translate(-199.548 -282.068)" fill="#38d39f"/>
  <path id="Path_526" data-name="Path 526" d="M262.71,528.515l.627,30.739,6.9,5.014h23.838L298.464,558V528.515l-6.9-6.275H268.985Z" transform="translate(-83.732 -166.451)"/>
  <path id="Path_527" data-name="Path 527" d="M433.724,642.251l5.021-5.021H462.59l5.021,5.021s6.275,18.19,1.254,30.106L463.2,678H439.358l-5.648-5.021Z" transform="translate(-199.548 -282.068)"/>
  <path id="Path_528" data-name="Path 528" d="M439.358,645.854s5.021,21.958,0,29.479H433.71V644.6Z" transform="translate(-199.548 -284.417)" fill="#fff" opacity="0.2"/>
  <path id="Path_529" data-name="Path 529" d="M405.19,491.76s2.507,24.465,2.507,27.6-1.254,23.845,2.507,43.909-2.507,45.155-2.507,45.155h20.7l8.782-67.747L430.9,504.922l-2.507-11.289Z" transform="translate(-190.458 -235.704)" fill="#ffb9b9"/>
  <path id="Path_530" data-name="Path 530" d="M405.19,491.76s2.507,24.465,2.507,27.6-1.254,23.845,2.507,43.909-2.507,45.155-2.507,45.155h20.7l8.782-67.747L430.9,504.922l-2.507-11.289Z" transform="translate(-190.458 -235.704)" opacity="0.05"/>
  <path id="Path_531" data-name="Path 531" d="M393.061,400.388s-27.6.627-5.648,46.416c0,0,5.648,18.817,5.648,21.958s28.225,3.134,31.339,0-5.021-28.852-5.021-40.775S411.251,396.627,393.061,400.388Z" transform="translate(-182.09 -206.43)" fill="#cbcdda"/>
  <path id="Path_532" data-name="Path 532" d="M393.061,400.388s-27.6.627-5.648,46.416c0,0,5.648,18.817,5.648,21.958s28.225,3.134,31.339,0-5.021-28.852-5.021-40.775S411.251,396.627,393.061,400.388Z" transform="translate(-182.09 -206.43)" opacity="0.05"/>
  <path id="Path_533" data-name="Path 533" d="M344.422,361s23.845,25.718,43.909,6.9l-2.507,66.493s-32.62-39.514-55.184-36.38Z" transform="translate(-166.698 -194.028)" fill="#ffb9b9"/>
  <path id="Path_534" data-name="Path 534" d="M739.479,539.868c-.954,7.351-3.952,22.83-12.556,27.844-5.075-2.044-9.613-4.2-9.613-4.2l16.31-25.718A43.83,43.83,0,0,0,739.479,539.868Z" transform="translate(-289.937 -250.374)" opacity="0.1"/>
  <path id="Path_535" data-name="Path 535" d="M685.486,506.494s-1.88,30.74-16.937,33.247l-90.937-16.405a27.451,27.451,0,0,1-12.086-5.45c-3.672-2.889-8.175-6.813-10.839-10.41-1.444-1.962-2.316-3.836-2.173-5.382.627-6.9,28.226-23.211,18.817-52.064a17.193,17.193,0,0,1,4.415-2.534c7.855-3.263,25.936-5.661,52.036,21.351C627.781,468.88,676.077,507.775,685.486,506.494Z" transform="translate(-237.408 -220.979)" fill="#4c4c78"/>
  <path id="Path_536" data-name="Path 536" d="M296.78,532.2l.627,30.739,6.895,5.021h23.838l4.394-6.275V532.2l-6.9-6.268H303.048Z" transform="translate(-94.591 -167.627)"/>
  <path id="Path_537" data-name="Path 537" d="M390.541,652s4.394,28.226,0,30.74l-3.134-.627L386.78,652Z" transform="translate(-184.591 -286.775)" fill="#fff" opacity="0.2"/>
  <path id="Path_538" data-name="Path 538" d="M488.06,645.011l5.021-5.021h23.845l5.021,5.021s6.275,18.19,1.254,30.106l-5.648,5.648H493.708l-5.648-5.021Z" transform="translate(-216.871 -282.947)"/>
  <path id="Path_539" data-name="Path 539" d="M493.7,648.614s5.021,21.958,0,29.479H488.05V647.36Z" transform="translate(-216.867 -285.296)" fill="#fff" opacity="0.2"/>
  <path id="Path_540" data-name="Path 540" d="M436.752,664.86h33.935a5.09,5.09,0,0,1,4.81,5.335h0a5.094,5.094,0,0,1-4.81,5.335H436.752c-2.882,0-5.117-2.787-4.769-5.954h0A5.011,5.011,0,0,1,436.752,664.86Z" transform="translate(-198.987 -290.874)" fill="#3d3d3d"/>
  <path id="Path_541" data-name="Path 541" d="M573.2,497.746c-6.711,4.7-13.782,7.78-18.524,10.4-1.444-1.962-2.317-3.836-2.173-5.382.627-6.9,28.225-23.211,18.817-52.064a17.189,17.189,0,0,1,4.415-2.534,19.162,19.162,0,0,0,4.367-.6S585.743,488.965,573.2,497.746Z" transform="translate(-237.405 -221.62)" opacity="0.1"/>
  <path id="Path_542" data-name="Path 542" d="M375.986,408.651s9.408,9.408,18.5,15.37c8.393,5.5-6.588-49.87-6.588-49.87s9.293-7.494,14.75-11.943a18.694,18.694,0,0,1,13-4.224c12.556.811,35.556,6.091,54.114,31.543,26.972,37.007,51.437,29.479,51.437,29.479s5.648,41.4-6.9,50.183-26.345,11.916-23.845,16.937-11.289-24.465-42.655-29.479-65.866-26.972-65.233-37.634C382.573,419.007,373.478,411.805,375.986,408.651Z" transform="translate(-181.011 -193.056)" fill="#cbcdda"/>
  <path id="Path_543" data-name="Path 543" d="M356.541,377.956a31.517,31.517,0,0,0-.477-5.41c-8.216-4.088-7.051-9.647-7.051-9.647l-13.8,37.007c5.048-.681,10.6.736,16.174,3.406C358.721,397.516,356.541,387.964,356.541,377.956Z" transform="translate(-168.154 -194.634)" opacity="0.1"/>
  <circle id="Ellipse_305" data-name="Ellipse 305" cx="31.366" cy="31.366" r="31.366" transform="translate(129.421 151.302)" fill="#ffb9b9"/>
  <path id="Path_544" data-name="Path 544" d="M277.806,370c-.579,1.86-1.472,3.774-3.154,4.769-2.044,1.213-4.864.613-6.683-.954a11.27,11.27,0,0,1-3.311-6.254A21,21,0,0,1,265,357.307c.818-2.827,2.228-5.45,2.82-8.346.634-3.079.314-6.3,1.022-9.367.961-4.156,3.7-7.637,6.37-10.969a11.323,11.323,0,0,1,7.378-4.905l13.128-3.958a44.36,44.36,0,0,1,7.644-1.826,26.48,26.48,0,0,1,9.94.872,22.9,22.9,0,0,1,7.208,3.216,26.663,26.663,0,0,1,5.689,5.757c6.942,9.075,10.9,23.92,18.061,32.852-2.827.872-5.655-2.044-8.482-1.158a1.989,1.989,0,0,1-1.274.1,2.091,2.091,0,0,1-.933-1.036,21.712,21.712,0,0,0-11.1-9.5c-3.474-1.315-8.175-1.308-10.076,1.88-1.288,2.153-.77,4.871-.429,7.358s.279,5.45-1.69,6.983a7.3,7.3,0,0,1-3.665,1.24,40.385,40.385,0,0,1-18.163-1.778c-2.044-.681-4.122-2.814-6.281-2.132C279.25,363.513,278.575,367.526,277.806,370Z" transform="translate(-145.516 -180.259)" opacity="0.1"/>
  <path id="Path_545" data-name="Path 545" d="M276.8,368.992c-.579,1.86-1.472,3.774-3.154,4.769-2.044,1.213-4.864.613-6.683-.954a11.27,11.27,0,0,1-3.311-6.254,21,21,0,0,1,.341-10.253c.818-2.827,2.228-5.45,2.82-8.346.634-3.079.314-6.3,1.022-9.368.961-4.156,3.7-7.637,6.37-10.969a11.323,11.323,0,0,1,7.378-4.905l13.128-3.958a44.363,44.363,0,0,1,7.644-1.819,26.482,26.482,0,0,1,9.94.872,22.9,22.9,0,0,1,7.208,3.216,26.662,26.662,0,0,1,5.689,5.757c6.942,9.075,10.9,23.92,18.061,32.851-2.827.872-5.655-2.044-8.482-1.158a1.99,1.99,0,0,1-1.274.1,2.092,2.092,0,0,1-.947-1.036,21.712,21.712,0,0,0-11.1-9.5c-3.475-1.315-8.175-1.308-10.076,1.88-1.288,2.153-.77,4.871-.429,7.358s.279,5.45-1.69,6.983a7.3,7.3,0,0,1-3.665,1.24,40.388,40.388,0,0,1-18.163-1.778c-2.044-.681-4.122-2.814-6.281-2.133C278.24,362.507,277.565,366.519,276.8,368.992Z" transform="translate(-145.194 -179.94)" fill="#b96b6b"/>
  <g id="Group_354" data-name="Group 354" transform="translate(194.49 179.385)" opacity="0.1">
    <path id="Path_546" data-name="Path 546" d="M395.806,379.22l-2.125,1.717s8.782,32.449,9.129,45.2C407.292,424.92,398.667,390.2,395.806,379.22Z" transform="translate(-381.28 -379.22)"/>
    <path id="Path_547" data-name="Path 547" d="M515.5,487.891c-12.542,8.782-26.345,11.916-23.845,16.937S480.363,480.363,449,475.349c-29.425-4.708-61.608-24.322-64.96-35.536-4.7-4.02-8.121-7.433-8.121-7.433-2.507,3.134,6.588,10.349,6.588,10.349-.627,10.662,33.873,32.62,65.233,37.634s45.162,34.5,42.655,29.479,11.289-8.175,23.845-16.937c3.59-2.514,5.689-7.7,6.86-13.823C519.884,482.958,518.085,486.1,515.5,487.891Z" transform="translate(-375.478 -396.163)"/>
  </g>
  <path id="Path_548" data-name="Path 548" d="M470.46,558.235c-1.88,2.507-3.134,28.226-3.134,28.226s7.494,37.007-15.67,33.246-3.134-30.106-3.134-30.106l-3.134-36.38c-11.916-31.339-9.409-53.944-9.409-53.944l-2.228-20.486-.913-8.366,26.972-6.275c-.736.981-.422,7.1.238,14.2,1.029,11.132,2.9,24.683,2.9,24.683C468.573,509.305,472.341,555.721,470.46,558.235Z" transform="translate(-199.271 -226.904)" fill="#ffb9b9"/>
  <path id="Path_549" data-name="Path 549" d="M425.281,381.057s-27.6.627-5.648,46.416c0,0,5.648,18.817,5.648,21.958s28.225,3.134,31.339,0-5.021-28.852-5.021-40.775S443.471,377.29,425.281,381.057Z" transform="translate(-192.359 -200.269)" opacity="0.1"/>
  <path id="Path_550" data-name="Path 550" d="M460.017,478.355c-5.859,1.6-20.221,1.744-26.3.436l-.913-8.366,26.972-6.275C459.05,465.124,459.363,471.242,460.017,478.355Z" transform="translate(-199.258 -226.904)" opacity="0.1"/>
  <path id="Path_551" data-name="Path 551" d="M423.441,381.057s-27.6.627-5.648,46.416c0,0,5.648,18.817,5.648,21.958s28.225,3.134,31.339,0-5.021-28.852-5.021-40.775S441.631,377.29,423.441,381.057Z" transform="translate(-191.772 -200.269)" fill="#cbcdda"/>
  <g id="Group_355" data-name="Group 355" transform="translate(27.89 278.975)" opacity="0.5">
    <path id="Path_552" data-name="Path 552" d="M64.172,409.5l-19.975.409-3.257,4.483v15.492l4.074,2.855H64.172l4.081-4.483V413.581Z" transform="translate(-40.94 -409.493)" fill="#32c553"/>
    <path id="Path_553" data-name="Path 553" d="M155.105,527.853s-18.347,2.854-19.975,0l.409-2.044,19.566-.409Z" transform="translate(-132.275 -525.4)" fill="#32c553" opacity="0.2"/>
    <path id="Path_554" data-name="Path 554" d="M156.569,591.23l3.263,3.263v15.492l-3.263,3.263s-11.82,4.088-19.566.817l-3.672-3.672V594.9l3.263-3.672Z" transform="translate(-131.702 -546.381)" fill="#32c553"/>
    <path id="Path_555" data-name="Path 555" d="M157.278,594.9s-14.266,3.263-19.158,0V591.23H158.1Z" transform="translate(-133.228 -546.381)" fill="#32c553" opacity="0.2"/>
    <path id="Path_556" data-name="Path 556" d="M152.825,557.9V579.95a3.311,3.311,0,0,1-3.468,3.127h0a3.311,3.311,0,0,1-3.468-3.127V557.9a3.356,3.356,0,0,1,3.87-3.107h0A3.263,3.263,0,0,1,152.825,557.9Z" transform="translate(-135.705 -534.76)" fill="#32c553"/>
    <path id="Path_557" data-name="Path 557" d="M111.128,410.42l-19.975.409-3.263,4.483V430.8l4.081,2.855h19.158l4.074-4.483V414.5Z" transform="translate(-55.904 -409.786)" fill="#32c553"/>
    <path id="Path_558" data-name="Path 558" d="M202.055,528.783s-18.347,2.854-19.975,0l.409-2.044,19.566-.409Z" transform="translate(-147.239 -525.697)" fill="#32c553" opacity="0.2"/>
    <path id="Path_559" data-name="Path 559" d="M203.519,592.157l3.263,3.263v15.492l-3.263,3.263s-11.82,4.088-19.566.818l-3.672-3.672v-15.5l3.263-3.672Z" transform="translate(-146.666 -546.674)" fill="#32c553"/>
    <path id="Path_560" data-name="Path 560" d="M204.238,595.822s-14.266,3.263-19.158,0V592.15h19.975Z" transform="translate(-148.195 -546.674)" fill="#32c553" opacity="0.2"/>
    <path id="Path_561" data-name="Path 561" d="M199.755,558.817V580.87A3.311,3.311,0,0,1,196.288,584h0a3.311,3.311,0,0,1-3.468-3.127V558.817a3.356,3.356,0,0,1,3.87-3.107h0A3.263,3.263,0,0,1,199.755,558.817Z" transform="translate(-150.662 -535.053)" fill="#32c553"/>
    <path id="Path_562" data-name="Path 562" d="M172.83,427.74l-16.446.334-2.684,3.693V444.52l3.359,2.344H172.83l3.352-3.693V431.092Z" transform="translate(-76.879 -415.307)" fill="#32c553"/>
    <path id="Path_563" data-name="Path 563" d="M263.586,545.66s-15.1,2.35-16.446,0l.334-1.676,16.106-.334Z" transform="translate(-167.975 -531.217)" fill="#32c553" opacity="0.2"/>
    <path id="Path_564" data-name="Path 564" d="M264.8,597.83l2.684,2.684v12.754l-2.684,2.684s-9.729,3.359-16.105.681l-3.025-3.018V600.848l2.684-3.018Z" transform="translate(-167.507 -548.485)" fill="#32c553"/>
    <path id="Path_565" data-name="Path 565" d="M265.382,600.848s-11.745,2.685-15.772,0V597.83h16.446Z" transform="translate(-168.762 -548.485)" fill="#32c553" opacity="0.2"/>
    <path id="Path_566" data-name="Path 566" d="M261.719,570.379v18.156a2.725,2.725,0,0,1-2.854,2.562h0a2.725,2.725,0,0,1-2.855-2.575V570.379a2.759,2.759,0,0,1,3.188-2.555h0a2.684,2.684,0,0,1,2.521,2.555Z" transform="translate(-170.802 -538.91)" fill="#32c553"/>
    <path id="Path_567" data-name="Path 567" d="M211.48,428.49l-16.446.341-2.684,3.686V445.27l3.359,2.35H211.48l3.359-3.693V431.849Z" transform="translate(-89.197 -415.546)" fill="#32c553"/>
    <path id="Path_568" data-name="Path 568" d="M302.246,546.42s-15.1,2.35-16.446,0l.334-1.676,16.105-.334Z" transform="translate(-180.297 -531.459)" fill="#32c553" opacity="0.2"/>
    <path id="Path_569" data-name="Path 569" d="M303.454,598.584l2.684,2.684v12.754l-2.684,2.684s-9.729,3.359-16.106.681l-3.018-3.018V601.588l2.684-3.018Z" transform="translate(-179.828 -548.721)" fill="#32c553"/>
    <path id="Path_570" data-name="Path 570" d="M304.042,601.588s-11.745,2.684-15.772,0V598.57h16.439Z" transform="translate(-181.084 -548.721)" fill="#32c553" opacity="0.2"/>
    <path id="Path_571" data-name="Path 571" d="M300.329,571.139v18.156a2.725,2.725,0,0,1-2.855,2.575h0a2.725,2.725,0,0,1-2.855-2.575V571.139a2.759,2.759,0,0,1,3.188-2.555h0A2.684,2.684,0,0,1,300.329,571.139Z" transform="translate(-183.108 -539.153)" fill="#32c553"/>
  </g>
  <path id="Path_572" data-name="Path 572" d="M199.637,704.485s-9.654-3.27-14.307,5.239a15.519,15.519,0,0,0,.2,14.94c3.052,5.518,9.34,12.679,21.256,12.045,10.11-.538,13.469-8.257,14.382-15.431a15.854,15.854,0,0,0-21.052-16.971Z" transform="translate(-119.807 -303.153)" fill="#32c553"/>
  <path id="Path_573" data-name="Path 573" d="M187.586,725.287a15.519,15.519,0,0,1-.2-14.94c4.646-8.51,14.307-5.239,14.307-5.239l.5-.177a15.711,15.711,0,0,1,11.343.252,15.711,15.711,0,0,0-13.394-1.281l-.5.177s-9.654-3.271-14.307,5.239a15.519,15.519,0,0,0,.2,14.94,23.52,23.52,0,0,0,10.9,10.335A23.937,23.937,0,0,1,187.586,725.287Z" transform="translate(-119.807 -303.019)" fill="#32c553" opacity="0.1"/>
  <path id="Path_574" data-name="Path 574" d="M199.86,711s3.577,2.814,12.263,0" transform="translate(-125.016 -305.58)" fill="#32c553" opacity="0.2"/>
  <path id="Path_575" data-name="Path 575" d="M198.74,681s6.132,16.623,5.627,20.97l4.857-.511s-8.175-14.573-6.132-20.438Z" transform="translate(-124.659 -296.018)" fill="#32c553"/>
  <path id="Path_576" data-name="Path 576" d="M198.74,681s6.132,16.623,5.627,20.97l4.857-.511s-8.175-14.573-6.132-20.438Z" transform="translate(-124.659 -296.018)" fill="#32c553" opacity="0.2"/>
  <path id="Path_577" data-name="Path 577" d="M226.627,681.843s-9.661-4.939-13.98-.858S207.66,695.5,207.66,695.5,223.411,697.669,226.627,681.843Z" transform="translate(-127.502 -295.498)" fill="#32c553"/>
  <path id="Path_578" data-name="Path 578" d="M226.627,681.843s-9.661-4.939-13.98-.858S207.66,695.5,207.66,695.5,223.411,697.669,226.627,681.843Z" transform="translate(-127.502 -295.498)" fill="#32c553" opacity="0.1"/>
  <path id="Path_579" data-name="Path 579" d="M207.66,696.626s2.534-12.106,18.967-13.625" transform="translate(-127.502 -296.656)" fill="none" stroke="#1d9e3d" stroke-miterlimit="10" stroke-width="1"/>
  <path id="Path_580" data-name="Path 580" d="M259.457,726.575s-9.654-3.27-14.307,5.239a15.52,15.52,0,0,0,.2,14.941c3.052,5.518,9.34,12.678,21.256,12.045,10.11-.538,13.469-8.257,14.382-15.431A15.853,15.853,0,0,0,259.941,726.4Z" transform="translate(-138.872 -310.193)" fill="#32c553"/>
  <path id="Path_581" data-name="Path 581" d="M247.436,747.387a15.519,15.519,0,0,1-.2-14.94c4.646-8.509,14.307-5.239,14.307-5.239l.5-.177a15.71,15.71,0,0,1,11.343.252A15.71,15.71,0,0,0,259.985,726l-.5.177s-9.654-3.27-14.307,5.239a15.52,15.52,0,0,0,.2,14.941,23.52,23.52,0,0,0,10.9,10.335A23.933,23.933,0,0,1,247.436,747.387Z" transform="translate(-138.882 -310.062)" fill="#fff" opacity="0.1"/>
  <path id="Path_582" data-name="Path 582" d="M259.71,733.09s3.577,2.814,12.263,0" transform="translate(-144.091 -312.62)" opacity="0.2"/>
  <path id="Path_583" data-name="Path 583" d="M258.58,703.07s6.132,16.623,5.628,20.97l4.857-.511s-8.175-14.573-6.132-20.438Z" transform="translate(-143.731 -303.052)" fill="#38d39f"/>
  <path id="Path_584" data-name="Path 584" d="M258.58,703.07s6.132,16.623,5.628,20.97l4.857-.511s-8.175-14.573-6.132-20.438Z" transform="translate(-143.731 -303.052)" fill="#32c553"/>
  <path id="Path_585" data-name="Path 585" d="M286.477,703.943s-9.661-4.939-13.98-.859S267.51,717.6,267.51,717.6,283.261,719.762,286.477,703.943Z" transform="translate(-146.577 -302.542)" fill="#38d39f"/>
  <path id="Path_586" data-name="Path 586" d="M286.477,703.943s-9.661-4.939-13.98-.859S267.51,717.6,267.51,717.6,283.261,719.762,286.477,703.943Z" transform="translate(-146.577 -302.542)" fill="#32c553"/>
  <path id="Path_587" data-name="Path 587" d="M267.51,718.766s2.534-12.106,18.967-13.626" transform="translate(-146.577 -303.712)" fill="none" stroke="#1d9e3d" stroke-miterlimit="10" stroke-width="1"/>
  <path id="Path_588" data-name="Path 588" d="M143.354,661.212s.947-1.056-.831-1.478V658h1.07a9.17,9.17,0,0,0-7.263-8.966v-2.105h.279V644.2h-6.881v2.725h.2v2.133a9.17,9.17,0,0,0-7.14,8.938h.954v1.669s-2.262,1.07,0,2.977,1.908,3.332,1.908,3.332-.954,3.57-2.855,4.047v33.213a7.378,7.378,0,0,0,7.378,7.378H136a7.378,7.378,0,0,0,7.351-7.371V670.021s-3.331-2.5-2.725-4.047a37.472,37.472,0,0,1,2.725-4.762Z" transform="translate(-100.435 -284.289)" fill="#32c553"/>
</svg>
