<svg xmlns="http://www.w3.org/2000/svg" width="64.687" height="60.768" viewBox="0 0 64.687 60.768"><g transform="translate(0 -4.466)"><g transform="translate(0 4.466)"><path d="M106.458,65.807H80.972a1.154,1.154,0,0,0,0,2.307h25.486a1.154,1.154,0,1,0,0-2.307Z" transform="translate(-49.269 -42.329)" fill="#32c553" stroke="#32c553" stroke-width="1"/><path d="M107.615,80.713a1.155,1.155,0,0,0-1.156-1.156H80.972a1.155,1.155,0,0,0,0,2.31h25.486A1.154,1.154,0,0,0,107.615,80.713Z" transform="translate(-49.269 -50.816)" fill="#32c553" stroke="#32c553" stroke-width="1"/><path d="M80.972,93.32a1.156,1.156,0,0,0,0,2.313H95.89a1.156,1.156,0,0,0,0-2.313H80.972Z" transform="translate(-49.269 -59.311)" fill="#32c553" stroke="#32c553" stroke-width="1"/><path d="M10.595,31.2c.079-.028.809-.288,1.9-.612v-.467a1.554,1.554,0,0,1,1.555-1.553h1.113A9.932,9.932,0,0,1,13.939,25.8a4.331,4.331,0,0,0-4.22,4.322v1.58a3.711,3.711,0,0,1,.4-.251A1.941,1.941,0,0,1,10.595,31.2Z" transform="translate(-5.999 -17.637)" fill="#32c553"/><path d="M94.385,25.775H57.173a9.8,9.8,0,0,1-1.227,2.78h38.44a1.556,1.556,0,0,1,1.555,1.553V61.049A1.556,1.556,0,0,1,94.386,62.6H58.979L59.2,65.38H94.386a4.334,4.334,0,0,0,4.333-4.331V30.108A4.337,4.337,0,0,0,94.385,25.775Z" transform="translate(-34.533 -17.619)" fill="#32c553" stroke="#32c553" stroke-width="1"/><path d="M9.714,98.3v5.379a4.309,4.309,0,0,0,2.235,3.766l.544-6.765V94.836l-.1.471A4.231,4.231,0,0,1,9.714,98.3Z" transform="translate(-5.996 -60.247)" fill="#32c553"/><path d="M30.5,17.3c3.234,0,5.855-3.749,5.855-6.982a5.855,5.855,0,0,0-11.71,0C24.646,13.555,27.266,17.3,30.5,17.3Z" transform="translate(-15.213 -4.466)" fill="#32c553"/><path d="M23.767,45.629a2.316,2.316,0,0,0,.784.137H35.673a2.316,2.316,0,0,0,0-4.633H24.942a35.955,35.955,0,0,0-8.8-1.816L15.6,40.407h-.015l1.559,12.148L15.288,55.79l-1.851-3.236L15,40.407h-.015l-.55-1.1A36.906,36.906,0,0,0,5.236,41.27c-.075.029-.127.088-.2.122a2.173,2.173,0,0,0-.414.253,2.243,2.243,0,0,0-.307.291,2.52,2.52,0,0,0-.264.358,2.59,2.59,0,0,0-.184.421,1.653,1.653,0,0,0-.1.23L.055,59.621a2.316,2.316,0,0,0,1.758,2.761,2.225,2.225,0,0,0,.507.056,2.321,2.321,0,0,0,2.26-1.814L8,45.236c.236-.072.51-.152.8-.236V60.809L6.958,83.736a2.782,2.782,0,0,0,2.548,2.993c.078.006.149.008.226.008A2.78,2.78,0,0,0,12.5,84.18l1.667-20.713a2.756,2.756,0,0,0,2.241,0L18.072,84.18a2.782,2.782,0,0,0,2.766,2.557c.073,0,.147,0,.225-.008a2.778,2.778,0,0,0,2.546-2.993L21.767,60.813V45C22.948,45.34,23.745,45.623,23.767,45.629Z" transform="translate(0 -25.969)" fill="#32c553"/></g></g></svg>