<svg id="Group_357" data-name="Group 357" xmlns="http://www.w3.org/2000/svg" width="677.837" height="484.725" viewBox="0 0 677.837 484.725">
  <ellipse id="Ellipse_299" data-name="Ellipse 299" cx="338.918" cy="21.303" rx="338.918" ry="21.303" transform="translate(0 442.118)" opacity="0.1"/>
  <path id="Path_474" data-name="Path 474" d="M1026.689,757.537a23.87,23.87,0,0,1-.516,5.01c-.065.31-.136.646-.207.91-1.833,7.353-7,12.73-13.176,13.073h-.646c-6.527,0-12.047-5.629-13.867-13.382-.052-.206-.1-.413-.142-.645a23.887,23.887,0,0,1-.516-5.009c0-10.5,6.5-19.012,14.525-19.012S1026.689,747.047,1026.689,757.537Z" transform="translate(-402.015 -309.893)" fill="#3f3d56"/>
  <path id="Path_475" data-name="Path 475" d="M1026.7,757.555a23.907,23.907,0,0,1-.516,5.01c-.065.31-.136.645-.207.91h-.646a29.572,29.572,0,0,1-4.751-.645,29.072,29.072,0,0,1-4.235.968,29.638,29.638,0,0,1-3.319.31h-1.123a29.974,29.974,0,0,1-3.979-.265,29.162,29.162,0,0,1-6.24-1.549,29.491,29.491,0,0,1-3.37.9c-.052-.207-.1-.413-.142-.645a23.907,23.907,0,0,1-.516-5.01c0-10.5,6.5-19.011,14.525-19.011S1026.7,747.064,1026.7,757.555Z" transform="translate(-402.028 -309.911)" opacity="0.1"/>
  <path id="Path_476" data-name="Path 476" d="M1038.562,689.659a29.4,29.4,0,0,0-3.163-13.3l-17.081,5.313,15-8.818a29.508,29.508,0,0,0-22.181-12.647,30.241,30.241,0,0,0-2.3-3.047L984.3,664.8l20.122-11.827a29.528,29.528,0,0,0-46.48,15.739l21.013,24.2-22.795-16.494a29.528,29.528,0,0,0,26.423,52.1,29.7,29.7,0,0,0,18.9.516,29.528,29.528,0,0,0,35.906-28.824c0-.645,0-1.291-.064-1.937A29.492,29.492,0,0,0,1038.562,689.659Z" transform="translate(-382.9 -277.424)" fill="#32c553"/>
  <path id="Path_477" data-name="Path 477" d="M1038.035,717.913a78.537,78.537,0,0,0-27.333-.349c-10.258,1.7-20.742,5.429-30.774,2.7-5.887-1.6-10.974-5.306-16.726-7.359a31.69,31.69,0,0,0-17.269-1.039,29.541,29.541,0,0,0,36.6,39.424,29.7,29.7,0,0,0,18.9.517,29.528,29.528,0,0,0,35.906-28.825,19.362,19.362,0,0,0-.065-1.936A29.138,29.138,0,0,0,1038.035,717.913Z" transform="translate(-382.883 -300.198)" opacity="0.1"/>
  <rect id="Rectangle_1485" data-name="Rectangle 1485" width="6.656" height="54.885" rx="2.29" transform="translate(445.81 111.01)" fill="#3f3d56"/>
  <rect id="Rectangle_1486" data-name="Rectangle 1486" width="3.738" height="18.069" rx="1.5" transform="translate(224.5 68.01)" fill="#3f3d56"/>
  <rect id="Rectangle_1487" data-name="Rectangle 1487" width="4.209" height="31.452" rx="1.69" transform="translate(224.364 101.095)" fill="#3f3d56"/>
  <rect id="Rectangle_1488" data-name="Rectangle 1488" width="4.009" height="31.723" rx="1.61" transform="translate(224.429 143.546)" fill="#3f3d56"/>
  <rect id="Rectangle_1489" data-name="Rectangle 1489" width="222.782" height="452.776" rx="35.69" transform="translate(226.617 8.302)" fill="#3f3d56"/>
  <rect id="Rectangle_1490" data-name="Rectangle 1490" width="31.109" height="6.32" rx="2.54" transform="translate(316.518 21.82)" fill="#e6e8ec"/>
  <circle id="Ellipse_300" data-name="Ellipse 300" cx="3.583" cy="3.583" r="3.583" transform="translate(352.333 21.394)" fill="#e6e8ec"/>
  <path id="Path_478" data-name="Path 478" d="M642.619,123.395V517.186a17.694,17.694,0,0,1-17.695,17.688H465.045a17.7,17.7,0,0,1-17.695-17.688V123.395A17.7,17.7,0,0,1,465.045,105.7h23.924v3.073a14.577,14.577,0,0,0,14.57,14.551h81.34a14.57,14.57,0,0,0,14.57-14.57V105.7h25.506A17.7,17.7,0,0,1,642.619,123.395Z" transform="translate(-206.976 -85.61)" fill="#fff"/>
  <path id="Path_479" data-name="Path 479" d="M644.02,343.086V476.995h-1.4v.136H447.35v-163.6q1.879-2.143,3.809-4.448c27.423-32.749,64.7-41.367,93.548-42.271,19.767-.645,39.444,3.441,58.229,11.556,9.922,4.286,24.163,8.986,39.683,9.451v50.625C643.568,341.15,644.02,343.086,644.02,343.086Z" transform="translate(-206.976 -142.692)" fill="#32c553" opacity="0.2"/>
  <path id="Path_480" data-name="Path 480" d="M644.02,373.1V507.012H447.35V419.293c7-1.762,16.785-8.541,29.334-27.268,15.009-22.407,35.4-28.3,51.186-28.921,10.813-.426,21.581,2.35,31.858,7.908,11.562,6.243,33.847,13.77,50.78-8.082,18.721-24.163,28.676-4.235,32.11,5.532C643.568,371.167,644.02,373.1,644.02,373.1Z" transform="translate(-206.976 -172.709)" fill="#32c553" opacity="0.2"/>
  <rect id="Rectangle_1491" data-name="Rectangle 1491" width="156.225" height="49.062" rx="12" transform="translate(260.08 309.682)" fill="#32c553"/>
  <path id="Path_481" data-name="Path 481" d="M185.468,746.23l12.356-7.289a29.7,29.7,0,0,0-6.32-7.559l-23.311,7.275,18.269-10.742A29.7,29.7,0,0,0,142.5,753.963c0,16.4,13.292,16.972,29.7,16.972s29.7-.568,29.7-16.972a29.535,29.535,0,0,0-2.55-12.046Z" transform="translate(-98.925 -304.854)" fill="#32c553"/>
  <path id="Path_482" data-name="Path 482" d="M188.6,772.633a23.106,23.106,0,0,0-4.377-3.441c-2.247-1.491-4.564-3.008-7.211-3.518-2.324-.446-4.719-.071-7.1-.2a16.571,16.571,0,0,1-10.852-4.977c-1.685-1.743-3.015-3.873-5.042-5.222a11.09,11.09,0,0,0-7.559-1.388,21.8,21.8,0,0,0-2.234.458,29.632,29.632,0,0,0-1.756,10.077c0,16.4,13.292,16.972,29.7,16.972,7.96,0,15.183-.135,20.516-2.15l-.891-1.665a23.291,23.291,0,0,0-3.189-4.945Z" transform="translate(-98.914 -315.306)" fill="#f1c40e" opacity="0.1"/>
  <path id="Path_483" data-name="Path 483" d="M301.766,653.865a7.7,7.7,0,0,0-2.117,3.047c-1.1,3.447,1.982,6.83,2.279,10.439.232,2.866-1.291,5.539-2.156,8.289a17.888,17.888,0,0,0,6.146,18.979,5.116,5.116,0,0,0,2.053,1.059,4.622,4.622,0,0,0,3.505-1.033,9.4,9.4,0,0,0,3.286-4.338,18.824,18.824,0,0,0,.858-5.274l.458-6.907c.478-7.211.91-14.648-.846-21.73-.575-2.324-1.64-7.663-4.325-7.986S303.548,652.122,301.766,653.865Z" transform="translate(-154.424 -277.962)" fill="#3f3d56"/>
  <path id="Path_484" data-name="Path 484" d="M358.681,594.446a226.659,226.659,0,0,0-6.991,34.57,9.677,9.677,0,0,1-1.414,4.706c-1.982,2.666-5.952,2.5-9.244,2.066a5.213,5.213,0,0,1-2.253-.646c-1.24-.839-1.511-2.517-1.659-4.009q-3.383-32.975-4.519-66.125c-.032-.846,27.559-.923,29.922,1.291s.529,10.5,0,13.318A140.083,140.083,0,0,1,358.681,594.446Z" transform="translate(-166.304 -248.213)" fill="#fbbebe"/>
  <path id="Path_485" data-name="Path 485" d="M358.681,594.446a226.659,226.659,0,0,0-6.991,34.57,9.677,9.677,0,0,1-1.414,4.706c-1.982,2.666-5.952,2.5-9.244,2.066a5.213,5.213,0,0,1-2.253-.646c-1.24-.839-1.511-2.517-1.659-4.009q-3.383-32.975-4.519-66.125c-.032-.846,27.559-.923,29.922,1.291s.529,10.5,0,13.318A140.083,140.083,0,0,1,358.681,594.446Z" transform="translate(-166.304 -248.213)" opacity="0.05"/>
  <path id="Path_486" data-name="Path 486" d="M284,552.225,295.175,576.8c3.718,8.173,7.463,16.436,9.238,25.235a80.6,80.6,0,0,1,1.362,11.136,41.976,41.976,0,0,1-.3,9.612c-.407,2.363-1.156,4.661-1.485,7.037-1.291,9.47,4.073,18.379,7.747,27.191a81.989,81.989,0,0,1,5.991,23.737c.336,3.479.523,7.172,2.511,10.045,3.635-1.091,7.185-2.033,10.975-1.608.678-5.558-2.834-10.678-4.125-16.139-2.369-10.007,2.866-20.523,1.085-30.651-.968-5.487-3.97-10.652-3.725-16.217.458-10.148,2.363-20.4.426-30.341-2.182-11.239-8.457-21.458-9.845-32.82-1.065-8.728.646-18.379-4.215-25.713C300.2,536.68,289.216,542.949,284,552.225Z" transform="translate(-149.078 -238.574)" fill="#fbbebe"/>
  <path id="Path_487" data-name="Path 487" d="M338.448,785.657c-1.117.039-2.421,0-3.112-.884a3.461,3.461,0,0,1-.562-1.724A85.08,85.08,0,0,1,334,771.306a7.289,7.289,0,0,1,.865-4.138,11.953,11.953,0,0,1,1.995-1.937c1.711-1.582,2.957-3.873,5.165-4.6a5.565,5.565,0,0,1,5.532,1.452,9.225,9.225,0,0,1,2.453,5.416c.323,2.4.052,5.016,1.323,7.1.5.807,1.207,1.466,1.775,2.227,1.937,2.582,3.673,7.637-.323,8.683C348.551,786.612,342.844,785.515,338.448,785.657Z" transform="translate(-166.8 -317.665)" fill="#3f3d56"/>
  <path id="Path_488" data-name="Path 488" d="M277.511,323.274c2.259-4.364.91-9.98-2.318-13.686s-7.947-5.771-12.763-6.888a33.519,33.519,0,0,0-19.554.878c-4.926,1.891-9.167,5.165-13.712,7.837a62.361,62.361,0,0,1-26.307,8.392c-10.329.871-21.865-.484-29.851,6.094-14.628,12.046-4.441,39.192-18.076,52.336-3.68,3.544-8.592,5.461-12.808,8.347s-7.986,7.5-7.308,12.563a13.664,13.664,0,0,0,3.189,6.546,31.73,31.73,0,0,0,28.153,11.278A34.123,34.123,0,0,0,191.335,399.7c1.291-2.318,2.337-4.855,4.37-6.54,4.074-3.363,10.051-2,15.332-2.163,11.743-.362,22.407-10.426,23.434-22.136.439-5-.413-10.826,3.183-14.338,2.9-2.84,7.43-2.815,11.394-3.686,7.282-1.594,12.582-6.862,15.907-13.292,1.523-2.957,1.369-6.262,3.628-8.715C270.991,326.134,275.361,327.419,277.511,323.274Z" transform="translate(-96.173 -155.067)" fill="#3f3d56"/>
  <g id="Group_351" data-name="Group 351" transform="translate(67.784 146.637)" opacity="0.1">
    <path id="Path_489" data-name="Path 489" d="M217.056,331.618a62.364,62.364,0,0,0,12.634-2.408c-1.162.162-2.324.3-3.493.394-8.1.678-16.952,0-24.247,2.847C206.921,331.941,212.131,332.031,217.056,331.618Z" transform="translate(-187.78 -311.468)"/>
    <path id="Path_490" data-name="Path 490" d="M202.072,445.307c-2.033,1.678-3.105,4.222-4.37,6.539A34.407,34.407,0,0,1,180,467.256c.575-.039,1.149-.09,1.724-.161A34.133,34.133,0,0,0,206.9,449.833c1.291-2.318,2.33-4.861,4.37-6.539l.349-.271C208.075,442.938,204.68,443.151,202.072,445.307Z" transform="translate(-180 -351.802)"/>
    <path id="Path_491" data-name="Path 491" d="M333.586,309.65c-3.228-3.706-7.979-5.765-12.763-6.888a33.545,33.545,0,0,0-19.56.884l-.413.168a37.52,37.52,0,0,1,10.832.962c4.784,1.123,9.541,3.183,12.763,6.895s4.577,9.322,2.317,13.686c-2.15,4.145-6.52,2.853-8.98,5.532-2.259,2.447-2.1,5.758-3.628,8.715-2.86,5.532-7.191,10.193-12.976,12.408,2.021-.478,4.19-.691,6.2-1.13,7.282-1.6,12.582-6.862,15.907-13.292,1.53-2.957,1.375-6.268,3.628-8.715,2.466-2.679,6.836-1.394,8.98-5.532C338.157,318.991,336.808,313.375,333.586,309.65Z" transform="translate(-222.834 -301.727)"/>
    <path id="Path_492" data-name="Path 492" d="M280.647,380.922c-3.964.865-8.5.846-11.394,3.68-3.6,3.518-2.744,9.341-3.183,14.344-.768,8.747-6.92,16.578-14.88,20.135h.588c11.743-.361,22.4-10.432,23.427-22.136.445-5.01-.407-10.833,3.189-14.344a8.779,8.779,0,0,1,2.853-1.82Z" transform="translate(-205.233 -329.746)"/>
  </g>
  <path id="Path_493" data-name="Path 493" d="M334.249,402.758a4.719,4.719,0,0,1-2.666,1.769c-10.626,3.912-21.807,7.9-33.014,6.249-.42-1.762-.833-3.531-1.246-5.294q-.9-3.834-1.807-7.669c-.284-1.22-.575-2.453-.807-3.693h0a21.694,21.694,0,0,1-.381-5.952,12.809,12.809,0,0,1,.387-2.137,11.112,11.112,0,0,1,1.64-3.557c.129-.174.265-.349.407-.516h0a8.14,8.14,0,0,1,2.285-1.9c1.9-1.046,4.519-1.491,5.287-3.518a5.474,5.474,0,0,0-.084-3.228c-.646-2.582-1.814-5.01-2.537-7.566-.917-3.228.465-3.028,3.583-3.809,5.616-1.414,11.491-2.427,17.256-1.291a24.785,24.785,0,0,0,.181,8.541c.717,2.776,2.634,5.41,5.39,6.178.407.116.839.187,1.291.284h0a3.906,3.906,0,0,1,1.659.684,2.835,2.835,0,0,1,.788,1.039,7.955,7.955,0,0,1,.549,2.13q1.517,10.161,2.189,20.419v.258A4.641,4.641,0,0,1,334.249,402.758Z" transform="translate(-152.718 -175.798)" fill="#fbbebe"/>
  <path id="Path_494" data-name="Path 494" d="M266.373,403.847c-2.414,3.673-3.228,8.14-3.964,12.479L257.722,443.5c-.645,3.718-1.22,7.8.684,11.065a26.586,26.586,0,0,1,2.021,3.228,17.828,17.828,0,0,1,.7,3.609c1.1,6.23,7.224,10.432,13.37,11.943,2.221.549,4.816.762,6.565-.716,1.937-1.607,1.937-4.667.794-6.875s-3.228-3.77-5.248-5.248l-6.694-4.932,3.873-29.7c.284-2.156,1.291-4.951,3.473-4.713,1.988.213,3.518,3.111,5.287,2.176a2.627,2.627,0,0,0,1.091-1.6,19.535,19.535,0,0,0,.342-7.6l-.8-9.206c-.265-2.989.5-5.229.865-8.037.419-3.273-1.762-2.279-4.454-1.575C274.417,396.688,269.362,399.289,266.373,403.847Z" transform="translate(-139.547 -188.011)" fill="#fbbebe"/>
  <path id="Path_495" data-name="Path 495" d="M376.1,444.461a4.814,4.814,0,0,1-2.092,1.9A23.808,23.808,0,0,1,356.8,448.78a37.247,37.247,0,0,0-4.093-.956c-2.208-.271-4.454.168-6.681,0-4.519-.342-8.489-3.163-11.62-6.456-1.885-1.937-3.6-5.106-1.84-7.185a4.164,4.164,0,0,1,3.841-1.162,15.281,15.281,0,0,1,3.919,1.459,43.154,43.154,0,0,0,13.679,3.77c3.228.335,7.333-.213,8.45-3.28a8.15,8.15,0,0,0-.22-4.687q-1.562-6.339-3.124-12.685a3.493,3.493,0,0,0-.387-1.052,1.366,1.366,0,0,0-.187-.245,2.925,2.925,0,0,0-1.44-.646,13.427,13.427,0,0,1-6.54-3.331,14.494,14.494,0,0,1-2.66-4.28c-.181-.394-.349-.794-.523-1.194-1.323-3.086-2.718-6.249-3.8-9.49a38.846,38.846,0,0,1-1.659-6.733c-.284-1.982-.439-2.892.645-3.77a6.452,6.452,0,0,1,.923-.581c.5-.265,1.059-.53,1.653-.781l.575-.239a39.616,39.616,0,0,1,5.429-1.73c4.48-1.039,9.264,1.13,12.336,4.558s4.668,7.915,5.687,12.4,1.543,9.083,2.821,13.5c.5,1.73,1.117,3.434,1.543,5.165a49.61,49.61,0,0,1,.975,6.243q.91,8.024,1.814,16.049A5.293,5.293,0,0,1,376.1,444.461Z" transform="translate(-166.032 -183.991)" fill="#fbbebe"/>
  <path id="Path_496" data-name="Path 496" d="M294.43,465.221c1.291,8.237-2.421,16.339-6.01,23.886a20.36,20.36,0,0,0,6.946,2.86,138.108,138.108,0,0,0,49.837,3.75c.4-2.789.775-5.745-.368-8.315-.71-1.594-1.937-2.892-2.718-4.454-1.291-2.582-1.162-5.584-1.02-8.45l1.155-24.422c-8.011-3.693-17.3-.232-26.113.265-4.564.258-9.186-.3-13.686.51-2.337.42-9.683,1.575-10.787,3.983S294.036,462.6,294.43,465.221Z" transform="translate(-150.645 -207.074)" fill="#fbbebe"/>
  <path id="Path_497" data-name="Path 497" d="M294.43,465.221c1.291,8.237-2.421,16.339-6.01,23.886a20.36,20.36,0,0,0,6.946,2.86,138.108,138.108,0,0,0,49.837,3.75c.4-2.789.775-5.745-.368-8.315-.71-1.594-1.937-2.892-2.718-4.454-1.291-2.582-1.162-5.584-1.02-8.45l1.155-24.422c-8.011-3.693-17.3-.232-26.113.265-4.564.258-9.186-.3-13.686.51-2.337.42-9.683,1.575-10.787,3.983S294.036,462.6,294.43,465.221Z" transform="translate(-150.645 -207.074)" opacity="0.05"/>
  <path id="Path_498" data-name="Path 498" d="M312.667,508.327c-8.683-1.807-17.217-4.8-26.081-5a2.305,2.305,0,0,0-1.291.245,2.33,2.33,0,0,0-.813,1.414q-1.375,4.745-2.46,9.561c-2.4,10.671-3.583,22.459,1.7,32.039a9.492,9.492,0,0,1,4.519-7.747,22.582,22.582,0,0,1,18.14-1.6,12.621,12.621,0,0,1,7.34,10.264l30.5.988a1.117,1.117,0,0,0,1.42-1.22,124.434,124.434,0,0,0-.123-29.444c-.336-2.731-.381-6.52-3.454-7.546-3.667-1.227-9.464.206-13.382.039A99.1,99.1,0,0,1,312.667,508.327Z" transform="translate(-147.656 -226.54)" fill="#3f3d56"/>
  <path id="Path_499" data-name="Path 499" d="M343.065,418.282l-.1,13.557-30.858,1.026c-5.662.194-11.368.387-16.888,1.646-1.588.361-3.157.814-4.719,1.259-1.627-5.959-3.228-12.2-2.8-18.276h0a24.03,24.03,0,0,1,.852-4.842c.981-3.409,2.821-6.623,3.8-9.993h0a15.279,15.279,0,0,0,.646-4.041,19.619,19.619,0,0,0-.646-4.048,12.4,12.4,0,0,1-.4-3.325l2.447-.755h0c.071.29.129.575.181.871.1.613.187,1.24.245,1.866h0a38.208,38.208,0,0,1,.129,4.667c-.084,3.112-.5,6.578,1.44,9.038,2.524,3.157,7.379,2.666,11.343,1.879l10.381-2.072c3.279-.645,6.94-1.562,8.651-4.435a9.86,9.86,0,0,0,1.123-4.519v-.31a35.663,35.663,0,0,0-1.014-10.193c-.252-1.046-.562-2.079-.91-3.092h1.039a3.908,3.908,0,0,1,1.659.684,2.835,2.835,0,0,1,.788,1.039l.574-.239a90.3,90.3,0,0,0,11.181,26.468,12.068,12.068,0,0,1,1.549,3.041,8.028,8.028,0,0,1,.258,1.794A10.4,10.4,0,0,1,343.065,418.282Z" transform="translate(-150.366 -184.318)" fill="#ff6f61"/>
  <circle id="Ellipse_301" data-name="Ellipse 301" cx="18.721" cy="18.721" r="18.721" transform="translate(141.377 155.489)" fill="#fbbebe"/>
  <path id="Path_500" data-name="Path 500" d="M266.373,408.61c-2.414,3.673-3.228,8.141-3.964,12.479l-4.687,27.178c-.645,3.718-1.22,7.8.684,11.065a26.582,26.582,0,0,1,2.021,3.228,17.825,17.825,0,0,1,.7,3.609c1.1,6.23,7.224,10.432,13.37,11.943,2.221.549,4.816.762,6.565-.717,1.937-1.607,1.937-4.667.794-6.875s-3.228-3.77-5.248-5.248l-6.694-4.932,3.873-29.7C274.042,428.506,269.362,404.052,266.373,408.61Z" transform="translate(-139.547 -192.774)" fill="#fbbebe"/>
  <path id="Path_501" data-name="Path 501" d="M369.177,409.658c1.02,4.487,1.543,9.083,2.821,13.5.5,1.736,1.117,3.434,1.543,5.164a49.523,49.523,0,0,1,.975,6.236l1.814,16.049a5.319,5.319,0,0,1-.226,2.97,4.852,4.852,0,0,1-2.092,1.9,23.885,23.885,0,0,1-17.211,2.421,34.475,34.475,0,0,0-4.093-.955c-2.208-.278-4.454.168-6.681,0-4.519-.342-8.489-3.157-11.62-6.423-1.885-1.937-3.6-5.113-1.84-7.191a4.163,4.163,0,0,1,3.841-1.162,15.306,15.306,0,0,1,3.919,1.465,43.3,43.3,0,0,0,13.679,3.764c3.228.342,7.333-.207,8.45-3.279a8.15,8.15,0,0,0-.22-4.687l-3.124-12.685C358.984,426.3,368.157,405.177,369.177,409.658Z" transform="translate(-166.032 -193.124)" fill="#fbbebe"/>
  <path id="Path_502" data-name="Path 502" d="M295.709,338.4c-.833-2.989-2-6.727.342-8.754a5.43,5.43,0,0,1,2.918-1.117c5.261-.646,10.7,2.453,15.739.8a8.754,8.754,0,0,0,1.672-15.894c-2.2-1.291-4.829-1.543-7.366-1.769-6.681-.613-13.647-1.181-19.9,1.291S277.6,321.8,278.892,328.39c.6,3.144,2.543,5.849,4.519,8.354,1.517,1.9,7.6,10.974,10.051,10.845C296.91,347.4,296.251,340.346,295.709,338.4Z" transform="translate(-147.198 -158.427)" fill="#3f3d56"/>
  <path id="Path_503" data-name="Path 503" d="M323.006,314.392a8.76,8.76,0,0,0-1.162-.562,8.741,8.741,0,0,1-3.163,14.783c-5.035,1.653-10.477-1.446-15.739-.8a5.428,5.428,0,0,0-2.918,1.117c-2.343,2.027-1.175,5.765-.342,8.754.542,1.937,1.2,8.993-2.234,9.186h-.058c1.065,1.039,2.027,1.717,2.711,1.678,3.434-.194,2.776-7.243,2.234-9.186-.833-2.989-2-6.727.342-8.754a5.429,5.429,0,0,1,2.918-1.117c5.261-.646,10.7,2.453,15.739.8a8.754,8.754,0,0,0,1.672-15.894Z" transform="translate(-153.824 -159.38)" opacity="0.1"/>
  <rect id="Rectangle_1492" data-name="Rectangle 1492" width="210.452" height="65.201" transform="translate(233.692 387.891)" fill="#3f3d56"/>
  <path id="Path_504" data-name="Path 504" d="M586,708.08v23.046L604.076,719.6Z" transform="translate(-256.119 -299.118)" fill="#fff"/>
  <path id="Path_505" data-name="Path 505" d="M294.9,96.606l-10.019,6.352L290.961,91.9a9.9,9.9,0,0,0-6.062-2.163h-.161a11.723,11.723,0,0,1-2.079-.155l-3.4,2.15,1.459-2.647a12.021,12.021,0,0,1-5.939-4.519L268.7,88.44l3.841-6.978c-3.557-4.267-8.347-6.882-13.615-6.882-6.32,0-11.949,3.757-15.584,9.612a11.62,11.62,0,0,1-10.329,5.552h-.342c-6.979,0-12.634,7.908-12.634,17.669s5.655,17.669,12.634,17.669a9.509,9.509,0,0,0,4.4-1.1,18.2,18.2,0,0,1,15.287-.3,15.92,15.92,0,0,0,13,0,18.237,18.237,0,0,1,15.158.3,9.458,9.458,0,0,0,4.351,1.078c6.978,0,12.634-7.915,12.634-17.669A22.408,22.408,0,0,0,294.9,96.606Z" transform="translate(-126.408 -74.58)" fill="#f2f2f2"/>
  <path id="Path_506" data-name="Path 506" d="M276.035,135.1a18.65,18.65,0,0,0-10.807,1.175,15.952,15.952,0,0,1-13,0,18.218,18.218,0,0,0-15.287.3,9.521,9.521,0,0,1-4.4,1.1c-6.2,0-11.355-6.243-12.427-14.48a12.061,12.061,0,0,0,3.1-3.338c3.634-5.862,9.264-9.619,15.584-9.619s11.878,3.712,15.493,9.509a11.949,11.949,0,0,0,10.3,5.623h.161C269.682,125.372,273.956,129.329,276.035,135.1Z" transform="translate(-126.433 -87.219)" opacity="0.03"/>
  <path id="Path_507" data-name="Path 507" d="M846.506,325.722l-5,3.17,3.034-5.52a4.952,4.952,0,0,0-3.021-1.078h-.084a6.076,6.076,0,0,1-1.033-.071l-1.724,1.085.729-1.323a6,6,0,0,1-2.963-2.247l-3.034,1.937,1.937-3.48a8.87,8.87,0,0,0-6.791-3.434,9.232,9.232,0,0,0-7.747,4.8,5.81,5.81,0,0,1-5.164,2.77h-.168c-3.479,0-6.3,3.951-6.3,8.812s2.821,8.818,6.3,8.818a4.746,4.746,0,0,0,2.2-.549,9.089,9.089,0,0,1,7.624-.155,7.917,7.917,0,0,0,3.228.7,8.089,8.089,0,0,0,3.228-.684,9.109,9.109,0,0,1,7.56.142,4.7,4.7,0,0,0,2.169.542c3.479,0,6.3-3.951,6.3-8.818A11.165,11.165,0,0,0,846.506,325.722Z" transform="translate(-335.224 -159.71)" fill="#f2f2f2"/>
  <path id="Path_508" data-name="Path 508" d="M837.069,344.915a9.244,9.244,0,0,0-5.4.587,7.927,7.927,0,0,1-6.456,0,9.115,9.115,0,0,0-7.624.148,4.734,4.734,0,0,1-2.2.555c-3.092,0-5.662-3.118-6.2-7.224a5.94,5.94,0,0,0,1.543-1.665,8.678,8.678,0,0,1,15.494-.058,5.952,5.952,0,0,0,5.164,2.821h.078C833.9,340.06,836.036,342.036,837.069,344.915Z" transform="translate(-335.23 -166.005)" opacity="0.03"/>
  <path id="Path_509" data-name="Path 509" d="M882.957,194.54l8.024,5.093-4.88-8.864a7.954,7.954,0,0,1,4.854-1.73h.129a9.455,9.455,0,0,0,1.666-.123l2.724,1.724-1.169-2.117a9.721,9.721,0,0,0,4.758-3.615l4.874,3.086-3.08-5.59a14.242,14.242,0,0,1,10.91-5.513c5.067,0,9.573,3.008,12.485,7.7a9.328,9.328,0,0,0,8.257,4.448h.271c5.59,0,10.122,6.339,10.122,14.157s-4.519,14.157-10.122,14.157a7.624,7.624,0,0,1-3.525-.884,14.583,14.583,0,0,0-12.266-.239,12.762,12.762,0,0,1-10.413,0,14.6,14.6,0,0,0-12.143.232,7.655,7.655,0,0,1-3.492.865c-5.59,0-10.122-6.339-10.122-14.157a18,18,0,0,1,2.137-8.631Z" transform="translate(-360.616 -110.843)" fill="#f2f2f2"/>
  <path id="Path_510" data-name="Path 510" d="M907.56,225.375a14.938,14.938,0,0,1,8.676.943,12.763,12.763,0,0,0,10.413,0,14.608,14.608,0,0,1,12.266.245,7.618,7.618,0,0,0,3.525.878c4.964,0,9.1-5,9.961-11.62a9.4,9.4,0,0,1-2.485-2.679c-2.911-4.687-7.424-7.7-12.485-7.7s-9.522,2.976-12.433,7.618a9.574,9.574,0,0,1-8.251,4.519h-.129C912.654,217.583,909.225,220.753,907.56,225.375Z" transform="translate(-370.094 -120.962)" opacity="0.03"/>
  <g id="Group_2625" data-name="Group 2625" transform="translate(269.08 319.682)">
    <path id="Path_726" data-name="Path 726" d="M912.659,737.2l-1.682,15.685h-6.349l-3.28-29.435h4.5l2.481,23.212,2.229-23.212h4.457l2.313,23.38,2.4-23.38h4.037l-3.28,29.435h-6.14Z" transform="translate(-901.348 -723.113)" fill="#fff"/>
    <path id="Path_727" data-name="Path 727" d="M963.123,730a7.688,7.688,0,0,1,1.808-5.487,8.062,8.062,0,0,1,10.428,0A7.692,7.692,0,0,1,977.168,730V745.3a7.69,7.69,0,0,1-1.808,5.488,8.063,8.063,0,0,1-10.428,0,7.687,7.687,0,0,1-1.808-5.488Zm4.626,15.6a3.123,3.123,0,0,0,.652,2.25,2.662,2.662,0,0,0,3.49,0,3.125,3.125,0,0,0,.652-2.25V729.7a3.126,3.126,0,0,0-.652-2.25,2.663,2.663,0,0,0-3.49,0,3.124,3.124,0,0,0-.652,2.25Z" transform="translate(-938.777 -722.596)" fill="#fff"/>
    <path id="Path_728" data-name="Path 728" d="M1006.335,723.449h7.317a6.726,6.726,0,0,1,5.193,1.85,7.745,7.745,0,0,1,1.7,5.424v14.886a7.744,7.744,0,0,1-1.7,5.424,6.723,6.723,0,0,1-5.193,1.85h-7.317Zm4.625,4.205v21.025h2.607a2.329,2.329,0,0,0,1.724-.631,3.113,3.113,0,0,0,.63-2.228V730.513a3.114,3.114,0,0,0-.63-2.228,2.329,2.329,0,0,0-1.724-.631Z" transform="translate(-964.959 -723.113)" fill="#fff"/>
    <path id="Path_729" data-name="Path 729" d="M1048.178,730a8,8,0,0,1,1.7-5.487,7.778,7.778,0,0,1,10.218,0,7.992,7.992,0,0,1,1.7,5.487v.925h-4.373V729.7a3.278,3.278,0,0,0-.61-2.25,2.552,2.552,0,0,0-3.406,0,3.274,3.274,0,0,0-.61,2.25,5.21,5.21,0,0,0,.673,2.67,11.086,11.086,0,0,0,1.682,2.187q1.01,1.03,2.166,2.06a20.645,20.645,0,0,1,2.166,2.25,11.485,11.485,0,0,1,1.682,2.775,9.172,9.172,0,0,1,.673,3.658,7.866,7.866,0,0,1-1.745,5.488,7.892,7.892,0,0,1-10.3,0,7.864,7.864,0,0,1-1.745-5.488v-1.808h4.373v2.1a3.04,3.04,0,0,0,.652,2.228,2.729,2.729,0,0,0,3.49,0,3.045,3.045,0,0,0,.652-2.228,5.217,5.217,0,0,0-.673-2.67,11.138,11.138,0,0,0-1.682-2.187q-1.01-1.03-2.166-2.06a20.456,20.456,0,0,1-2.166-2.25,11.431,11.431,0,0,1-1.682-2.775A9.155,9.155,0,0,1,1048.178,730Z" transform="translate(-990.235 -722.596)" fill="#fff"/>
    <path id="Path_730" data-name="Path 730" d="M1094.4,752.884h-4.626V723.449h4.626v12.615h5.256V723.449h4.71v29.435h-4.71V740.269H1094.4Z" transform="translate(-1015.512 -723.113)" fill="#fff"/>
    <path id="Path_731" data-name="Path 731" d="M1148.422,752.884h-4.668l-.8-5.341h-5.676l-.8,5.341h-4.247l4.71-29.435h6.769Zm-10.555-9.335h4.458l-2.229-14.885Z" transform="translate(-1041.24 -723.113)" fill="#fff"/>
    <path id="Path_732" data-name="Path 732" d="M1185.564,723.449a6.726,6.726,0,0,1,5.193,1.85,7.746,7.746,0,0,1,1.7,5.424v3.827a7.745,7.745,0,0,1-1.7,5.424,6.723,6.723,0,0,1-5.193,1.85h-2.187v11.059h-4.626V723.449Zm-2.187,4.205v9.966h2.187a2.276,2.276,0,0,0,1.682-.589,3.1,3.1,0,0,0,.589-2.187v-4.415a3.1,3.1,0,0,0-.589-2.187,2.278,2.278,0,0,0-1.682-.588Z" transform="translate(-1069.426 -723.113)" fill="#fff"/>
    <path id="Path_733" data-name="Path 733" d="M1223.6,735.854h6.349v4.205H1223.6v8.62h7.989v4.205h-12.614V723.449h12.614v4.205H1223.6Z" transform="translate(-1093.798 -723.113)" fill="#fff"/>
  </g>
</svg>
