<svg xmlns="http://www.w3.org/2000/svg" width="62.852" height="53.066" viewBox="0 0 62.852 53.066"><path d="M49.167,0H12.684A12.7,12.7,0,0,0,0,12.684V33.094A12.7,12.7,0,0,0,12.684,45.778h1.882l4.412,5.6a1.812,1.812,0,0,0,2.846,0l4.412-5.6H49.167A12.7,12.7,0,0,0,61.852,33.094V12.684A12.7,12.7,0,0,0,49.167,0ZM34.1,27.874v14.28h-6.34V27.874a1.812,1.812,0,0,0-1.812-1.812H3.624v-6.34h22.32a1.812,1.812,0,0,0,1.812-1.812V3.624H34.1V17.909a1.812,1.812,0,0,0,1.812,1.812h22.32v6.34H35.908A1.812,1.812,0,0,0,34.1,27.874ZM37.72,3.624h9.911L37.72,13.535ZM24.132,13.535,14.221,3.624h9.911ZM37.72,32.249l9.905,9.905H37.72ZM58.228,12.684V16.1H40.283L52.224,4.156a9.076,9.076,0,0,1,6,8.529ZM9.628,4.156,21.569,16.1H3.624V12.684a9.076,9.076,0,0,1,6-8.529Zm-6,28.938V29.686H21.569L9.631,41.624a9.075,9.075,0,0,1-6.007-8.53Zm20.311,9.751L20.4,47.327l-3.533-4.482a1.813,1.813,0,0,0-1.423-.69h-1.22l9.905-9.905V42.636a1.755,1.755,0,0,0-.2.209Zm28.286-1.221L40.283,29.686H58.228v3.408a9.075,9.075,0,0,1-6.007,8.53Zm0,0" transform="translate(0.5 0.5)" fill="#32c553" stroke="#32c553" stroke-width="1"/></svg>