<svg xmlns="http://www.w3.org/2000/svg" xmlns:xlink="http://www.w3.org/1999/xlink" width="684.667" height="501.188" viewBox="0 0 684.667 501.188">
  <defs>
    <linearGradient id="linear-gradient" x1="0.5" x2="0.5" y2="1" gradientUnits="objectBoundingBox">
      <stop offset="0" stop-color="#32c553"/>
      <stop offset="1" stop-color="#1d9e3d"/>
    </linearGradient>
  </defs>
  <g id="Group_11155" data-name="Group 11155" transform="translate(-1575.464 -1289.54)">
    <g id="Group_11153" data-name="Group 11153" transform="translate(1743.251 1289.54)">
      <g id="Group_11151" data-name="Group 11151" transform="translate(45.352 0.722)">
        <g id="Group_11149" data-name="Group 11149">
          <path id="Path_7728" data-name="Path 7728" d="M2152.792,1606.569c-2.97-10.463-3.488-17.911-4.822-28.546-1.508-12.142-3.444-24.2-5.425-36.3a16.276,16.276,0,0,1-.388-4.09,45.777,45.777,0,0,1,1.421-5.813,15.516,15.516,0,0,0-5.124-14.811c-9.3-7.707-11.453-16.1-18.126-25.833a198.843,198.843,0,0,0-16.792-21.14c-1.937-2.153-17.524-15.586-17.136-16.749a45.321,45.321,0,0,0,1.808-8.352c6.5-.259,13.993-.775,19.979-3.445,6.027-2.755,10.806-7.707,17.177-9.687,2.757-.861,5.684-1.077,8.354-2.24,1.206-.516,2.066-1.42,3.185-1.98,1.551-.775,3.23-.56,4.823-.99,2.54-.646,5.338-2.412,7.62-3.659s4.435-3.918,3.745-6.674a3.186,3.186,0,0,0-.6-1.378,2.98,2.98,0,0,0,.6-3.272,2.741,2.741,0,0,0-1.119-1.12,3.577,3.577,0,0,0,.345-2.928,3.47,3.47,0,0,0-.948-1.248,2.913,2.913,0,0,0-.99-2.842,3.115,3.115,0,0,0-2.712-.388,4.162,4.162,0,0,0-2.626,2.067,37.785,37.785,0,0,1-3.833,1.249c-1.377.344-2.066.431-2.324.086-.259-.258-.259-.646-.086-1.421a10.911,10.911,0,0,1,.948-3.013c.215-.432,2.369-4.866.9-6.76-.086-.13-.43-.561-.818-.517-.732.043-.819,1.593-2.109,3.4-.733.991-.862.775-1.465,1.679a12.651,12.651,0,0,0-1.248,3.316,9.389,9.389,0,0,1-2.411,3.487c.947,3.7.215,6.933-3.23,8.956a65.805,65.805,0,0,1-8.74,4.305,54.909,54.909,0,0,1-13.389,3.444,63.244,63.244,0,0,1-9.516.6,42.676,42.676,0,0,0,3.273-14.725,41.8,41.8,0,0,0-.173-6.243c.173-1.335.388-2.713.559-4.048.3-.473.6-.9.862-1.377,4.262-8.008,2.368-16.017,1.808-18.256-.86-3.443-3.574-6.328-4.392-9.515-.818-3.1-.861-9.816.043-12.874a17.608,17.608,0,0,1,3.056-5.167c1.249-1.722,2.541-3.4,3.789-5.123,2.368-3.1,6.5-1.249,9.085-4.305a6.556,6.556,0,0,0,1.291-3.445,79.323,79.323,0,0,0,.776-9.644,2.653,2.653,0,0,0,2.411-.818,1.982,1.982,0,0,0,.516-1.205c-1.42-2.325-2.884-4.607-4.305-6.932a5.806,5.806,0,0,0,1.378-2.324c.388-1.163.3-2.2-.172-4.564-.3-1.378-.689-3.186-1.292-5.3a16.9,16.9,0,0,0-2.023-8.482c-5.08-9-17.438-9.128-19.116-9.128a22.586,22.586,0,0,0-10.378,2.411,25.814,25.814,0,0,0-6.028,4,29.669,29.669,0,0,0-5.511,7.19c-2.109,3.4-2.324,4.779-2.368,5.726a8.894,8.894,0,0,0,.9,3.918,5.727,5.727,0,0,1,2.411-2.841c.345-.172.689-.3.991-.431a38.521,38.521,0,0,0-.947,6.588c-.259,6.373,1.636,12.358,6.845,16.189-6.286-.9-12.916-1.722-18.9.258a50.7,50.7,0,0,0-7.837,3.833c-13.821,7.534-30.31,10.72-42.71,20.881a6.345,6.345,0,0,0-1.895,2.239,6.668,6.668,0,0,0,.258,3.875c3.789,13.562,7.577,27.125,12.27,40.429a33.079,33.079,0,0,0,3.186,6.975c1.076,1.593,4.177,3.315,4.392,5.167a11.671,11.671,0,0,1-.3,2.712,4.792,4.792,0,0,0,.473,3.186,2.889,2.889,0,0,0,2.627,1.679c1.205,0,2.281-.99,3.445-1.248,2.109-.431,5.467,1.808,6.156,3.831.948,2.885-1.808,6.717-3.273,9-5.079,8.052-10.375,16.706-13.3,26.006a46.738,46.738,0,0,0-2.238,14.423,32.094,32.094,0,0,0,1.033,7.837c.345,1.205,2.368,3.961,1.852,5.167-8.783,20.71-15.026,35.392-17.266,40.429-.043.086-.043.129-.086.215-.129.259-.216.474-.3.646-.044.173-.129.3-.172.474-1.205,3.229-2.024,7.19-5.081,9.128a10.932,10.932,0,0,1-6.071,1.421c-9.3,0-18.04-4.263-27.426-3.186a28.08,28.08,0,0,0-9.687,2.885,32.328,32.328,0,0,0-3.488,1.937,226.461,226.461,0,0,1-28.072,4.177c-2.153.171-4.392.343-6.63.473-1.722.086-3.4.171-5.081.258-2.8-8.74-12.314-12.96-16.06-21.312-.818.044-1.592.129-2.411.172-1.809.129-7.234,8.439-8.353,9.86a78.9,78.9,0,0,0-8.4,12.443,37.84,37.84,0,0,1-2.152,3.918,31.2,31.2,0,0,1-3.272,3.875c-7.061,7.707-14.553,17.911-16.4,28.46-.474,2.539-1.508,7.363.129,9.428,2.282,2.842,7.018,2.024,9.128-.473,1.851-2.24,2.627-5.3,4.434-7.578,2.67-3.359,7.062-4.607,11.2-5.769,13.476-3.961,25.876-12.486,39.481-15.371a56.466,56.466,0,0,1,16.362-.86c4.692.3,9.3.947,13.906,1.507,10.247,1.42,19.891,1.162,30.139,1.377,3.272.086,7.405.3,12.357.775,2.454.172,5.08.517,7.879.9a15.669,15.669,0,0,0,9.171,1.679,13.916,13.916,0,0,0,8.31-3.961,11.131,11.131,0,0,0,2.582-3.789c6.416-8.4,12.831-16.878,19.16-25.316,4.779-6.329,8.7-14.079,13.476-20.71,2.412-3.273,5.124-8.309,8.439-10.807,5.3-3.961,11.194,6.372,15.5,8.611,1.248.646,2.626,1.119,3.918,1.635a68.406,68.406,0,0,1,17.438,10.85,82.082,82.082,0,0,1,11.323,11.281,83.441,83.441,0,0,0,5.3,34.013c2.971,7.664,4.09,7.061,8.311,17.61a134.716,134.716,0,0,1,9.127,38.448h25.92C2157.1,1624.221,2154.773,1613.328,2152.792,1606.569Zm-107.767-205.2a5.846,5.846,0,0,1-2.369-2.8,26.018,26.018,0,0,0-.9-2.5c-.387-.818-.775-1.378-.818-1.508-1.55-2.583-2.627-8.224-2.627-8.224-1.29-6.888-1.937-15.328-2.023-16.4,2.411-.216,4.779-.474,7.234-.689-.044,2.5.043,5.21.258,8.094a72.875,72.875,0,0,0,2.454,13C2045.843,1394.005,2045.413,1397.665,2045.025,1401.367Z" transform="translate(-1859.084 -1290.5)" fill="url(#linear-gradient)"/>
        </g>
        <g id="Group_11150" data-name="Group 11150" transform="translate(149.035 222.032)">
          <path id="Path_7729" data-name="Path 7729" d="M2065.255,1585.956c-.609-.214-7.979,19.272-7.852,19.326a10.067,10.067,0,0,0,.508-1.069C2061.624,1594.808,2065.667,1586.1,2065.255,1585.956Z" transform="translate(-2057.402 -1585.954)" fill="url(#linear-gradient)"/>
        </g>
      </g>
      <g id="Group_11152" data-name="Group 11152">
        <path id="Path_7730" data-name="Path 7730" d="M2028.779,1590.012c-5.812-.861-12.7,2.54-18.17,4.09-1.55.473-13.648-13-15.758-14.854-4.176-3.789-8.438-7.362-12.873-10.678-2.024-1.55-4-2.971-6.071-4.392-6.114-4.047-13.864-5.167-19.763-8.912a26.8,26.8,0,0,1-7.75-7.405,26.194,26.194,0,0,1-3.229-6.588,30.222,30.222,0,0,1-.9-3.4c-1.291-6.071-5.381-18.212-16.059-43.443a33.151,33.151,0,0,0,4-11.366c3.1-20.581-15.285-36.726-17.609-38.621-3.66-10.29,1.205-20.623,4-30.526,1.033-3.7.948-3.789,1.679-6.544a131.026,131.026,0,0,1,11.582-27.728c10.247,6.156,17.136,16.661,26.005,24.455a32.614,32.614,0,0,1,3.1,7.061c2.24,6.932,3.057,14.466,4.693,21.527,2.842,12.486,1.98,17.911,1.722,19.5a32.685,32.685,0,0,1-1.55,5.511,25.924,25.924,0,0,1-5.209,8.094c-.388,2.626-.776,5.3-1.163,7.922,1.378,1.68,2.841,3.358,4.262,5.038.388-.474.732-.948,1.119-1.421a7.4,7.4,0,0,0,2.11,1.032,9.93,9.93,0,0,0,6.975-.818,13.027,13.027,0,0,0,3.616-2.583,11.342,11.342,0,0,0,2.369-3.832,52.891,52.891,0,0,0-1.679-14.338c-.345-1.205-.646-2.153-.99-3.788-2.369-11.883,1.636-24.284-.173-36.339-2.712-18.084-15.241-33.756-26.436-47.534-2.97-8.568-9.558-19.117-18.384-22.561a21.245,21.245,0,0,0-8.956-1.335,20.187,20.187,0,0,0-7.1,1.808,12.453,12.453,0,0,1-4.822-2.54c-4.521-3.832-5.037-9.516-2.756-14.726.216-.516.3-.9.818-1.119,1.248,1.852,1.679,4.09,3.659,5.468a7.883,7.883,0,0,0,4.263,1.248,14.257,14.257,0,0,1-3.574-5.166c-1.205-2.928-.9-5.124-.689-13.519.044-2.455.044-4.435.086-5.6a24.61,24.61,0,0,1,5.6,25.79,9.5,9.5,0,0,0,2.927-1.679c3.488-2.971,3.4-7.707,3.358-8.525a11.93,11.93,0,0,1,2.239,2.367c2.928,4.09,1.937,9.042,1.636,10.334a34.892,34.892,0,0,0,2.325-13.777,39.02,39.02,0,0,0-.688-5.555c1.248,2.885,4.65,3.617,5.166,3.7-.947-1.895-1.937-3.919-2.841-6.071-1.248-2.884-2.282-5.683-3.186-8.309a9.028,9.028,0,0,0,3.617.086,11.747,11.747,0,0,0,7.664-5.167c-1.593,2.369-10.377-.688-8.611-3.875.474-.861,2.368-1.033,4.736-.173-4.865-10.505-16.275-14.423-25.532-6.544-3.143,2.712-3.4,4.909-7.147,6.717-1.034.516-3.4,1.722-4.607,1.507-1.377-.172-3.143-2.067-4.521-2.669a20.865,20.865,0,0,0-10.16-1.335c-12.96,1.12-22,11.065-20.15,24.455a20.206,20.206,0,0,0,1.55,5.554c.99,1.163,1.937,2.282,2.928,3.444a22.123,22.123,0,0,1,0,2.928,16.893,16.893,0,0,1-1.162,4.736,2.855,2.855,0,0,0,1.076,1.163,3.178,3.178,0,0,0,2.412.473c.387.818,1.033,2.067,1.851,3.531,2.885,4.951,4.349,7.448,6.76,8.525.776.344,3.66,1.42,8.353-.862a11.514,11.514,0,0,1,1.981,4.134,11.707,11.707,0,0,1,0,5.554,18.486,18.486,0,0,1-4.478,2.756c-4.478,1.765-7.965,2.756-11.281,6.33-7.233,7.879-14.6,13.3-22.862,20.021a68.9,68.9,0,0,0-6.329,5.769c-.9-1.421-2.2-3.445-3.573-5.942-5.425-9.773-9.688-20.235-9.6-31.6a14.514,14.514,0,0,0,1.765-2.971c0-6.2,1.033-12.27.646-18.729-.387-4.779-5.984-5.21-9.945-4.133-.215.043-5.425,2.971-3.875,3.057a2.417,2.417,0,0,0-1.765.516,2.794,2.794,0,0,0-.56,3.186,2.758,2.758,0,0,0-1.852.775c-.6.689-.559,1.593-.516,2.928.043,1.033.129,2.584.172,4.822,1.205,3.66,2.11,6.243,2.756,8.094a19.2,19.2,0,0,1,1.335,4.865,21.815,21.815,0,0,1,.172,3.1c.56,1.55,1.335,4,2.24,7.018,1.765,6.329,2.066,12.917,4.176,19.117,2.239,6.458,5.812,12.313,7.19,19.073.517,2.454,3.488,9.6,6.8,9,11.668-2.368,20.235-11.021,29.88-17.265a8.342,8.342,0,0,1,2.584,3.7c.3.776.646,2.2.086,6.114a54.188,54.188,0,0,1-.99,5.339c-.6,2.5-.646,4.564-.344,10.462.431,8.7,1.033,15.715,1.636,21.27.775,7.879.991,9.128,1.292,10.419a55.6,55.6,0,0,0,4.65,13.347c-6.286,4.952-19.074,15.2-32.249,26.565-11.84,10.2-31.258,22.776-34.788,38.965a21.753,21.753,0,0,0,1.163,12.4c.732,1.766-.99,7.535-1.205,9.343-.474,4.22-.862,8.439-1.292,12.615a246.136,246.136,0,0,1-3.531,25.1c-1.249,6.2-2.669,10.937-3.746,14.811-1.937,6.631-4,12.443-5.769,17.222h18.342a14.257,14.257,0,0,1,1.205-2.54c3.745-6.717,5.726-15.327,8.4-22.518,5.684-15.587,14.079-31.689,13.218-48.7-.129-2.067-.345-3.7-.474-4.822-.688-4.865,13.046-11.969,16.017-13.864,7.492-4.737,15.156-9.343,22.6-14.208,3.7-2.411,9.128-6.028,15.586-10.807,3.143,6.544,6.673,13.347,10.592,20.278,3.1,5.468,6.244,10.635,9.386,15.544,4,6.286,8.052,12.1,11.97,17.523a22.563,22.563,0,0,0,3.228,4.133c6.243,6.157,14.768,6.286,17.481,6.2a126.731,126.731,0,0,0,12.615,7.1c10.807,5.382,23.034,8.224,33.109,14.983a66.2,66.2,0,0,1,12.616,11.022,5.016,5.016,0,0,0-.646,2.411c.042,4.434,7.405,8.052,9.73,11.582a17.973,17.973,0,0,1,2.67,6.673h14.338a23.767,23.767,0,0,0-1.723-15.155,27.04,27.04,0,0,0,2.411-4.564C2033.859,1603.661,2037.648,1591.217,2028.779,1590.012Zm-125.118-283.39c1.076-1.248,2.324-1.937,3.272-1.722,1.808.387,2.325,3.487,2.669,5.338a13.865,13.865,0,0,1,0,5.684c-.258-.473-.56-1.032-.818-1.636A52.949,52.949,0,0,0,1903.661,1306.622Z" transform="translate(-1798.735 -1289.54)" fill="url(#linear-gradient)"/>
      </g>
    </g>
    <g id="Group_11154" data-name="Group 11154" transform="translate(1575.464 1641.131)">
      <path id="Path_7731" data-name="Path 7731" d="M1631.668,1827.941l-8.357,77.932h-31.549l-16.3-146.254h22.355l12.327,115.332,11.074-115.332h22.147l11.491,116.168,11.91-116.168h20.059l-16.3,146.254h-30.505Z" transform="translate(-1575.464 -1757.948)" fill="#1e1e1e"/>
      <path id="Path_7732" data-name="Path 7732" d="M1736.436,1794.167q0-17.755,8.984-27.266t25.908-9.506q16.925,0,25.909,9.506t8.984,27.266v76.053q0,17.762-8.984,27.267t-25.909,9.506q-16.923,0-25.908-9.506t-8.984-27.267Zm22.984,77.516q0,7.942,3.237,11.178a13.23,13.23,0,0,0,17.341,0q3.238-3.239,3.24-11.178V1792.7q0-7.938-3.24-11.178a13.229,13.229,0,0,0-17.341,0q-3.242,3.241-3.237,11.178Z" transform="translate(-1615.466 -1757.395)" fill="#1e1e1e"/>
      <path id="Path_7733" data-name="Path 7733" d="M1849.036,1759.619h36.355q17.34,0,25.8,9.192t8.46,26.952v73.965q0,17.758-8.46,26.952t-25.8,9.192h-36.355Zm22.982,20.894v104.466h12.954q5.432,0,8.567-3.134t3.135-11.073v-76.053q0-7.937-3.135-11.072t-8.567-3.135Z" transform="translate(-1643.448 -1757.948)" fill="#1e1e1e"/>
      <path id="Path_7734" data-name="Path 7734" d="M1958.367,1794.167q0-17.755,8.463-27.266t25.384-9.506q16.923,0,25.386,9.506t8.462,27.266v4.6h-21.73v-6.06q0-7.938-3.029-11.178t-8.463-3.238q-5.436,0-8.462,3.238t-3.029,11.178a25.875,25.875,0,0,0,3.343,13.268,55.072,55.072,0,0,0,8.357,10.866q5.016,5.12,10.761,10.236a102.693,102.693,0,0,1,10.761,11.178,57.064,57.064,0,0,1,8.357,13.79,45.586,45.586,0,0,1,3.343,18.178q0,17.762-8.67,27.267t-25.6,9.506q-16.923,0-25.594-9.506t-8.67-27.267v-8.983h21.73v10.447q0,7.942,3.237,11.073a13.562,13.562,0,0,0,17.343,0q3.235-3.133,3.237-11.073a25.927,25.927,0,0,0-3.343-13.268,55.373,55.373,0,0,0-8.357-10.866q-5.017-5.118-10.761-10.236a101.784,101.784,0,0,1-10.761-11.178,56.816,56.816,0,0,1-8.357-13.79A45.488,45.488,0,0,1,1958.367,1794.167Z" transform="translate(-1670.461 -1757.395)" fill="#1e1e1e"/>
      <path id="Path_7735" data-name="Path 7735" d="M2089.43,1905.873h-22.984V1759.619h22.984v62.68h26.117v-62.68h23.4v146.254h-23.4v-62.68H2089.43Z" transform="translate(-1697.475 -1757.948)" fill="#1e1e1e"/>
      <path id="Path_7736" data-name="Path 7736" d="M2257.536,1905.873h-23.192l-3.97-26.535h-28.205l-3.97,26.535h-21.1l23.4-146.254h33.638Zm-52.443-46.383h22.149l-11.075-73.963Z" transform="translate(-1724.972 -1757.948)" fill="#1e1e1e"/>
      <path id="Path_7737" data-name="Path 7737" d="M2332.161,1759.619q17.339,0,25.8,9.192t8.463,26.952v19.014q0,17.761-8.463,26.952t-25.8,9.193H2321.3v54.95h-22.984V1759.619Zm-10.865,20.894v49.518h10.865q5.43,0,8.357-2.926t2.926-10.864V1794.3q0-7.94-2.926-10.866t-8.357-2.924Z" transform="translate(-1755.095 -1757.948)" fill="#1e1e1e"/>
      <path id="Path_7738" data-name="Path 7738" d="M2426.113,1821.255h31.548v20.895h-31.548v42.83h39.7v20.894h-62.68V1759.619h62.68v20.894h-39.7Z" transform="translate(-1781.142 -1757.948)" fill="#1e1e1e"/>
    </g>
  </g>
</svg>
