<svg xmlns="http://www.w3.org/2000/svg" width="58.663" height="53.706" viewBox="0 0 58.663 53.706"><g transform="translate(1 1)"><g transform="translate(16.511 19.916)"><g transform="translate(0 0)"><path d="M188.645,206.938l-6.063-4.274a1.662,1.662,0,0,0-2.617,1.357v2.614H150.855a1.66,1.66,0,1,0,0,3.32h29.11v2.614a1.662,1.662,0,0,0,2.617,1.357l6.063-4.274A1.663,1.663,0,0,0,188.645,206.938Z" transform="translate(-149.195 -202.358)" fill="#32c553" stroke="#32c553" stroke-width="2"/></g></g><g transform="translate(0 0)"><g transform="translate(0 0)"><path d="M47.64,58.909a1.66,1.66,0,0,0-2.268.606,22.533,22.533,0,1,1,0-22.531,1.66,1.66,0,1,0,2.874-1.662,25.853,25.853,0,1,0,0,25.856A1.66,1.66,0,0,0,47.64,58.909Z" transform="translate(0 -22.397)" fill="#32c553" stroke="#32c553" stroke-width="2"/></g></g></g></svg>