<svg xmlns="http://www.w3.org/2000/svg" width="61" height="57.832" viewBox="0 0 61 57.832"><g transform="translate(0 -7.712)"><path d="M111.3,26.94a9.95,9.95,0,0,0,9.614-10.011,9.623,9.623,0,0,0-19.228,0A9.95,9.95,0,0,0,111.3,26.94Z" transform="translate(-80.804)" fill="#32c553"/><path d="M21.793,137.276l7.048.6,5.246-11.335a1.547,1.547,0,0,1,2.951.65v5.572l17.081-16.816a30.994,30.994,0,0,0-7.946-1.232c-4.244,0-11.915,1.676-14.685,4.707-2.968,3.248-8.424,12.2-11.764,17.865A8.21,8.21,0,0,1,21.793,137.276Z" transform="translate(-15.673 -85.029)" fill="#32c553"/><path d="M207.771,240.606a5.129,5.129,0,0,0-4.032-1.245l-16.847,2.106,1.776,8.117h15.708a5.131,5.131,0,0,0,3.4-8.978Z" transform="translate(-148.507 -184.04)" fill="#32c553"/><path d="M5.132,239.323a5.131,5.131,0,1,0,0,10.262H36.994l-1.683-7.691S5.343,239.323,5.132,239.323Z" transform="translate(0 -184.041)" fill="#32c553"/><path d="M104.02,147.839l11.927,1.022h2.969l3.374-.422V136.452a1.547,1.547,0,0,1,2.951-.65l5.367,11.6,6.9-.862a8.229,8.229,0,0,1,2.1.01c-3.34-5.665-8.8-14.618-11.764-17.865a10.692,10.692,0,0,0-3.508-2.314l-20.313,20v1.473Z" transform="translate(-82.656 -94.286)" fill="#32c553"/></g></svg>