<svg xmlns="http://www.w3.org/2000/svg" width="61.802" height="69.161" viewBox="0 0 61.802 69.161"><g transform="translate(-38.25)"><g transform="translate(38.25)"><path d="M69.151,69.161a7.121,7.121,0,0,0,7.271-6.916H61.88A7.121,7.121,0,0,0,69.151,69.161Zm23.63-20.748V29.394c0-10.72-7.634-19.365-18.177-21.786V5.187a5.46,5.46,0,0,0-10.906,0V7.608C53.155,10.028,45.521,18.674,45.521,29.394V48.413L38.25,55.329v3.458h61.8V55.329ZM85.51,51.871H52.792V29.394c0-8.645,7.271-15.561,16.359-15.561S85.51,20.748,85.51,29.394Z" transform="translate(-38.25)" fill="#32c553"/></g></g></svg>