<svg xmlns="http://www.w3.org/2000/svg" width="63.865" height="43.459" viewBox="0 0 63.865 43.459"><g transform="translate(-0.004 0)"><path d="M199.987,234.281a1.14,1.14,0,1,0,0-2.281h-6.843a1.14,1.14,0,1,0,0,2.281Zm0,0" transform="translate(-164.629 -198.927)" fill="#32c553"/><path d="M139.475,40.73a3.437,3.437,0,0,1,2.785-.768,3.517,3.517,0,0,1,2.851,3.5v-.122h9.124a1.14,1.14,0,0,0,1.14-1.14V1.141A1.14,1.14,0,0,0,154.235,0h-25.09A1.141,1.141,0,0,0,128,1.141V42.2a1.14,1.14,0,0,0,1.14,1.14h9.124a3.413,3.413,0,0,1,1.207-2.607Zm9.057-21.342h-7.983V17.107h7.983Zm-7.983-5.7V9.124h2.281v4.562Zm4.562,0V9.124h2.281v4.562Zm4.562-4.562h2.281v4.562h-2.281Zm-10.264-5.7h9.124V5.7h-9.124Zm-4.562,0h2.281V5.7h-2.281Zm3.421,5.7v4.562h-2.281V9.124Zm-3.421,7.983h3.421v2.281h-3.421Zm0,4.562h13.685V23.95H134.847Zm11.4,4.562v2.281h-9.124V26.23ZM133.706,13.685h-2.281V9.124h2.281Zm1.14,20.528a3.422,3.422,0,0,1,3.421-3.421h6.843a3.421,3.421,0,1,1,0,6.843h-6.843A3.422,3.422,0,0,1,134.847,34.214Zm0,0" transform="translate(-109.753)" fill="#32c553"/><path d="M1.144,32A1.141,1.141,0,0,0,0,33.14V65.073a1.141,1.141,0,0,0,1.14,1.14H13.689V32Zm3.421,2.281H6.847v2.281H4.566Zm4.562,5.7V43.4H6.847V39.983Zm-6.843,0H4.566V43.4H2.285ZM11.408,58.23H6.847a1.14,1.14,0,1,0,0,2.281h4.562v2.281H6.847a3.421,3.421,0,0,1,0-6.843h4.562Zm0-4.562H9.128V51.388h2.281Zm0-4.562H6.847V46.826h4.562Zm0-12.545H9.128V34.281h2.281Zm0,0" transform="translate(0 -27.438)" fill="#32c553"/><path d="M364.549,32H352V66.214h12.545a1.141,1.141,0,0,0,1.14-1.14V33.14A1.141,1.141,0,0,0,364.549,32Zm-10.264,2.281h5.7v2.281h-5.7Zm4.562,5.7V43.4h-2.281V39.983Zm-4.562,6.843h3.421v2.281h-3.421Zm0,4.562h2.281v2.281h-2.281Zm4.562,11.4h-4.562V60.511h4.562a1.14,1.14,0,1,0,0-2.281h-4.562V55.949h4.562a3.421,3.421,0,1,1,0,6.843ZM363.409,43.4h-2.281V39.983h2.281Zm0,0" transform="translate(-301.82 -27.438)" fill="#32c553"/></g></svg>