<svg xmlns="http://www.w3.org/2000/svg" width="63.616" height="63.492" viewBox="0 0 63.616 63.492"><path d="M10.3,39.095a2.484,2.484,0,0,0,3.447-.683,21.614,21.614,0,0,1,35.882-.044,2.485,2.485,0,1,0,4.124-2.774A26.522,26.522,0,0,0,40.676,25.417a14.04,14.04,0,1,0-17.8-.055A26.515,26.515,0,0,0,9.614,35.648,2.485,2.485,0,0,0,10.3,39.095ZM31.808,5.47a9.07,9.07,0,1,1-9.07,9.07A9.081,9.081,0,0,1,31.808,5.47ZM41.718,44.5l-3.7,2.673a1.555,1.555,0,0,0-.571,1.746l1.492,4.324a1.568,1.568,0,0,1,.079.56,1.638,1.638,0,0,1-2.576,1.186l-3.7-2.673a1.582,1.582,0,0,0-1.849,0l-3.7,2.673A1.637,1.637,0,0,1,24.6,53.8a1.593,1.593,0,0,1,.081-.56l1.491-4.324a1.555,1.555,0,0,0-.571-1.746L21.9,44.5a1.676,1.676,0,0,1,.924-3H27.4a1.431,1.431,0,0,0,1.5-.906l1.415-4.352a1.576,1.576,0,0,1,2.991,0L34.719,40.6a1.431,1.431,0,0,0,1.5.906h4.579A1.676,1.676,0,0,1,41.718,44.5Zm21.247,8.7-3.7,2.673a1.555,1.555,0,0,0-.571,1.746l1.492,4.324a1.568,1.568,0,0,1,.079.56,1.638,1.638,0,0,1-2.576,1.186l-3.7-2.673a1.582,1.582,0,0,0-1.849,0l-3.7,2.673A1.637,1.637,0,0,1,45.85,62.5a1.593,1.593,0,0,1,.081-.56l1.491-4.324a1.555,1.555,0,0,0-.571-1.746l-3.7-2.673a1.676,1.676,0,0,1,.924-3h4.579a1.431,1.431,0,0,0,1.5-.906l1.415-4.352a1.576,1.576,0,0,1,2.991,0l1.415,4.352a1.431,1.431,0,0,0,1.5.906h4.579A1.676,1.676,0,0,1,62.965,53.2Zm-42.494,0-3.7,2.673a1.555,1.555,0,0,0-.571,1.746l1.492,4.324a1.568,1.568,0,0,1,.079.56,1.638,1.638,0,0,1-2.576,1.186l-3.7-2.673a1.582,1.582,0,0,0-1.849,0l-3.7,2.673A1.637,1.637,0,0,1,3.356,62.5a1.593,1.593,0,0,1,.081-.56l1.491-4.324a1.555,1.555,0,0,0-.571-1.746L.651,53.2a1.676,1.676,0,0,1,.924-3H6.155a1.431,1.431,0,0,0,1.5-.906l1.415-4.352a1.576,1.576,0,0,1,2.991,0l1.415,4.352a1.431,1.431,0,0,0,1.5.906h4.579A1.676,1.676,0,0,1,20.471,53.2Z" transform="translate(0 -0.5)" fill="#32c553"/></svg>