<svg xmlns="http://www.w3.org/2000/svg" width="68.025" height="68.025" viewBox="0 0 68.025 68.025"><g transform="translate(-28.365 -28.365)"><path d="M13.083,16.333a1.415,1.415,0,0,0-1.416,1.416v2.836H14.5V17.749A1.424,1.424,0,0,0,13.083,16.333Z" transform="translate(32.288 47.46)" fill="#fd907e"/><path d="M68.232,8H15.793A7.8,7.8,0,0,0,8,15.793V68.228a7.8,7.8,0,0,0,7.793,7.8H68.228a7.8,7.8,0,0,0,7.8-7.793V15.793A7.8,7.8,0,0,0,68.232,8ZM30.674,54.057a2.126,2.126,0,1,1-4.252,0V51.932H23.586v2.126a2.126,2.126,0,1,1-4.252,0V44.844a5.667,5.667,0,0,1,11.335,0v9.213ZM40.6,56.183H38.471a2.127,2.127,0,0,1-2.126-2.126V41.3a2.127,2.127,0,0,1,2.126-2.126H40.6a8.5,8.5,0,0,1,0,17.006ZM58.428,45.554H59.61a5.32,5.32,0,0,1,0,10.629H55.477a2.126,2.126,0,0,1,0-4.252H59.61a1.1,1.1,0,0,0,0-2.126H58.428a5.32,5.32,0,0,1,0-10.629h4.133a2.126,2.126,0,0,1,0,4.252H58.428a1.1,1.1,0,0,0,0,2.126ZM67.4,23.71a2.833,2.833,0,1,1-4,4.009L61.855,26.18l-1.539,1.539a2.833,2.833,0,0,1-4-4.009l1.539-1.539-1.539-1.539a2.835,2.835,0,0,1,4.009-4.009l1.539,1.539L63.4,16.622a2.835,2.835,0,0,1,4.009,4.009l-1.539,1.539Z" transform="translate(20.365 20.365)" fill="#fc573b"/><path d="M15.667,16.333v8.5a4.252,4.252,0,0,0,0-8.5Z" transform="translate(45.295 47.46)" fill="#fd907e"/></g></svg>