<svg xmlns="http://www.w3.org/2000/svg" width="68" height="68" viewBox="0 0 68 68"><g transform="translate(0.996 0.996)"><g transform="translate(11.183 10.696)"><path d="M135.395,109.883a21.847,21.847,0,0,1-21.846,21.846q-.669,0-1.328-.04a21.847,21.847,0,0,1,0-43.613q.659-.04,1.328-.04a21.846,21.846,0,0,1,21.846,21.846Z" transform="translate(-91.702 -88.037)" fill="#d9f0f4"/><path d="M269.366,109.883A21.847,21.847,0,0,1,247.52,131.73q-.669,0-1.328-.04a21.847,21.847,0,0,0,0-43.613q.659-.04,1.328-.04a21.846,21.846,0,0,1,21.846,21.846Z" transform="translate(-225.674 -88.037)" fill="#bae1e5"/><g transform="translate(0.782 8.293)"><ellipse cx="2.325" cy="2.324" rx="2.325" ry="2.324" fill="#ff6b81"/><ellipse cx="2.325" cy="2.324" rx="2.325" ry="2.324" transform="translate(18.739 18.126)" fill="#ff6b81"/><ellipse cx="2.325" cy="2.324" rx="2.325" ry="2.324" transform="translate(31.385 4.161)" fill="#ff6b81"/></g></g><path d="M20.268,13.885A6.386,6.386,0,1,1,13.883,7.5a6.373,6.373,0,0,1,6.386,6.386Z" transform="translate(-7.497 -7.499)" fill="#d9f0f4"/><path d="M53.291,13.885a6.384,6.384,0,0,1-7.711,6.246,6.386,6.386,0,0,0,0-12.492,6.386,6.386,0,0,1,7.714,6.246Z" transform="translate(-40.52 -7.499)" fill="#bae1e5"/><path d="M34.919,70.591a6.386,6.386,0,0,1-7.472,0,3.681,3.681,0,0,1,3.736-3.672,3.749,3.749,0,0,1,3,1.465A3.624,3.624,0,0,1,34.919,70.591Z" transform="translate(-24.797 -59.027)" fill="#ff6b81"/><path d="M50.658,80.156A6.381,6.381,0,0,1,45.6,81.224a6.4,6.4,0,0,0,4.323-3.275A3.624,3.624,0,0,1,50.658,80.156Z" transform="translate(-40.537 -68.592)" fill="#ed2061"/><circle cx="1.992" cy="1.992" r="1.992" transform="translate(4.393 3.907)" fill="#fdd9b4"/><g transform="translate(53.237)"><path d="M421.111,13.885A6.386,6.386,0,1,1,414.726,7.5,6.373,6.373,0,0,1,421.111,13.885Z" transform="translate(-408.34 -7.499)" fill="#d9f0f4"/><path d="M454.134,13.885a6.384,6.384,0,0,1-7.711,6.246,6.386,6.386,0,0,0,0-12.492,6.386,6.386,0,0,1,7.714,6.246Z" transform="translate(-441.362 -7.499)" fill="#bae1e5"/><path d="M435.762,70.591a6.386,6.386,0,0,1-7.472,0,3.681,3.681,0,0,1,3.736-3.672,3.749,3.749,0,0,1,3,1.465A3.624,3.624,0,0,1,435.762,70.591Z" transform="translate(-425.64 -59.027)" fill="#09eaa3"/><path d="M451.5,80.156a6.381,6.381,0,0,1-5.061,1.068,6.4,6.4,0,0,0,4.323-3.275A3.624,3.624,0,0,1,451.5,80.156Z" transform="translate(-441.38 -68.592)" fill="#14bb87"/><circle cx="1.992" cy="1.992" r="1.992" transform="translate(4.393 3.907)" fill="#fdd9b4"/></g><g transform="translate(0 53.237)"><path d="M20.268,414.727a6.387,6.387,0,1,1-6.386-6.386,6.373,6.373,0,0,1,6.386,6.386Z" transform="translate(-7.497 -408.341)" fill="#d9f0f4"/><path d="M53.291,414.727a6.384,6.384,0,0,1-7.711,6.246,6.386,6.386,0,0,0,0-12.492,6.387,6.387,0,0,1,7.714,6.246Z" transform="translate(-40.52 -408.341)" fill="#bae1e5"/><path d="M34.919,471.434a6.386,6.386,0,0,1-7.472,0,3.681,3.681,0,0,1,3.736-3.672,3.749,3.749,0,0,1,3,1.465A3.624,3.624,0,0,1,34.919,471.434Z" transform="translate(-24.797 -459.87)" fill="#56788b"/><path d="M50.658,481a6.38,6.38,0,0,1-5.061,1.068,6.4,6.4,0,0,0,4.323-3.275A3.624,3.624,0,0,1,50.658,481Z" transform="translate(-40.537 -469.435)" fill="#415e6f"/><circle cx="1.992" cy="1.992" r="1.992" transform="translate(4.393 3.907)" fill="#fdd9b4"/></g><g transform="translate(53.237 53.237)"><path d="M421.111,414.727a6.387,6.387,0,1,1-6.386-6.386A6.373,6.373,0,0,1,421.111,414.727Z" transform="translate(-408.34 -408.341)" fill="#d9f0f4"/><path d="M454.134,414.727a6.384,6.384,0,0,1-7.711,6.246,6.386,6.386,0,0,0,0-12.492,6.387,6.387,0,0,1,7.714,6.246Z" transform="translate(-441.362 -408.341)" fill="#bae1e5"/><path d="M435.762,471.434a6.386,6.386,0,0,1-7.472,0,3.681,3.681,0,0,1,3.736-3.672,3.748,3.748,0,0,1,3,1.465A3.624,3.624,0,0,1,435.762,471.434Z" transform="translate(-425.64 -459.87)" fill="#9090fb"/><path d="M451.5,481a6.38,6.38,0,0,1-5.061,1.068,6.4,6.4,0,0,0,4.323-3.275A3.624,3.624,0,0,1,451.5,481Z" transform="translate(-441.38 -469.435)" fill="#6c5fea"/><circle cx="1.992" cy="1.992" r="1.992" transform="translate(4.393 3.907)" fill="#fdd9b4"/></g></g><path d="M126.24,113.619a1,1,0,0,0-1.364.351,20.983,20.983,0,0,1-4.6,5.416q-1.229-.553-2.547-1a31.346,31.346,0,0,0,3.483-14.012h6.53a20.754,20.754,0,0,1-1.079,5.711,1,1,0,1,0,1.886.641,22.861,22.861,0,0,0-32-27.718,23.069,23.069,0,0,0-7.392,5.973,3.319,3.319,0,0,0-3.325,5.532A22.858,22.858,0,0,0,118.4,123.126a22.983,22.983,0,0,0,8.191-8.143A1,1,0,0,0,126.24,113.619Zm-10.471,4.188a34.716,34.716,0,0,0-7.872-1.09v-3.271a3.32,3.32,0,0,0,0-6.335v-2.733h11.318a29.009,29.009,0,0,1-3.446,13.429Zm-8.868-6.2a1.328,1.328,0,1,1,1.329-1.328A1.33,1.33,0,0,1,106.9,111.607Zm-1-4.5a3.32,3.32,0,0,0,0,6.335v3.271a34.718,34.718,0,0,0-7.872,1.09,29.009,29.009,0,0,1-3.446-13.429H105.9Zm0,11.6v5.453c-2.462-.339-4.794-1.929-6.733-4.588A33,33,0,0,1,105.9,118.71Zm1.992,5.453v-5.453a33,33,0,0,1,6.733.865c-1.938,2.659-4.271,4.249-6.733,4.588Zm0-41.561c2.476.349,4.819,1.986,6.727,4.588a33,33,0,0,1-6.727.863Zm-1.992,0v5.452a33,33,0,0,1-6.742-.867C101.066,84.579,103.408,82.946,105.9,82.6Zm1.992,7.445a34.716,34.716,0,0,0,7.87-1.089,23.979,23.979,0,0,1,1.982,4.565,3.319,3.319,0,0,0,1.273,6.07c.1.92.165,1.854.192,2.793H107.9V90.046Zm11.65,7.6a1.328,1.328,0,1,1,1.329-1.328A1.33,1.33,0,0,1,119.547,97.642Zm8.191,4.744h-6.53c-.028-1.037-.1-2.069-.212-3.085A3.32,3.32,0,0,0,119.672,93a26.463,26.463,0,0,0-1.947-4.622q1.311-.44,2.537-.991a20.818,20.818,0,0,1,7.475,15ZM118.413,86q-.852.338-1.747.622a17.922,17.922,0,0,0-1.816-2.284q-.187-.2-.377-.387A20.83,20.83,0,0,1,118.413,86Zm-20.96-1.214q.936-.476,1.9-.853a17.489,17.489,0,0,0-2.218,2.69q-.9-.286-1.757-.626A20.723,20.723,0,0,1,97.453,84.788Zm-9.291,6.037a1.328,1.328,0,1,1-1.329,1.328A1.33,1.33,0,0,1,88.162,90.825Zm0,4.648a3.318,3.318,0,0,0,2.633-5.342,21.07,21.07,0,0,1,2.737-2.752q1.228.553,2.545.995A27.3,27.3,0,0,0,93.7,94.458a1,1,0,1,0,1.926.508,25.208,25.208,0,0,1,2.394-6.011,34.717,34.717,0,0,0,7.881,1.092v12.34H94.587c.029-1.035.1-2.065.224-3.074a1,1,0,1,0-1.978-.234c-.129,1.085-.208,2.194-.238,3.308H86.063a20.613,20.613,0,0,1,1.548-6.958A3.318,3.318,0,0,0,88.162,95.473Zm-2.1,8.9h6.53a31.349,31.349,0,0,0,3.483,14.012q-1.311.44-2.538.991A20.818,20.818,0,0,1,86.064,104.378Zm9.325,16.384q.852-.338,1.747-.622a17.558,17.558,0,0,0,2.181,2.666,20.834,20.834,0,0,1-3.928-2.044Zm22.007.643a20.665,20.665,0,0,1-2.917,1.407,17.556,17.556,0,0,0,2.187-2.672q.9.286,1.757.626Q117.919,121.1,117.4,121.4Z" transform="translate(-72.885 -69.843)"/><path d="M7.382,400.843a7.382,7.382,0,1,0,7.382,7.382A7.39,7.39,0,0,0,7.382,400.843ZM4.689,412.892a2.69,2.69,0,0,1,2.692-2.165,2.69,2.69,0,0,1,2.692,2.165,5.381,5.381,0,0,1-5.384,0Zm1.7-5.154a1,1,0,1,1,1,1A1,1,0,0,1,6.385,407.738Zm5.31,3.713a4.6,4.6,0,0,0-1.835-2.046,2.988,2.988,0,1,0-4.958,0,4.6,4.6,0,0,0-1.835,2.046,5.39,5.39,0,1,1,8.629,0Z" transform="translate(0 -347.606)"/><path d="M408.224,400.843a7.382,7.382,0,1,0,7.382,7.382A7.39,7.39,0,0,0,408.224,400.843Zm-2.692,12.049a2.756,2.756,0,0,1,5.385,0,5.381,5.381,0,0,1-5.385,0Zm1.7-5.154a1,1,0,1,1,1,1A1,1,0,0,1,407.227,407.738Zm5.31,3.713a4.6,4.6,0,0,0-1.835-2.046,2.988,2.988,0,1,0-4.958,0,4.6,4.6,0,0,0-1.835,2.046,5.389,5.389,0,1,1,8.629,0Z" transform="translate(-347.605 -347.606)"/><path d="M7.382,14.763A7.382,7.382,0,1,0,0,7.381,7.39,7.39,0,0,0,7.382,14.763ZM4.689,12.049A2.69,2.69,0,0,1,7.381,9.883a2.69,2.69,0,0,1,2.692,2.166,5.381,5.381,0,0,1-5.384,0ZM6.385,6.9a1,1,0,1,1,1,1A1,1,0,0,1,6.385,6.9Zm1-4.9A5.387,5.387,0,0,1,11.7,10.608,4.6,4.6,0,0,0,9.861,8.562a2.988,2.988,0,1,0-4.958,0,4.6,4.6,0,0,0-1.835,2.046A5.387,5.387,0,0,1,7.382,1.992Z"/><path d="M408.224,14.763a7.382,7.382,0,1,0-7.382-7.382A7.39,7.39,0,0,0,408.224,14.763Zm-2.692-2.714a2.756,2.756,0,0,1,5.385,0,5.381,5.381,0,0,1-5.385,0Zm1.7-5.154a1,1,0,1,1,1,1A1,1,0,0,1,407.227,6.9Zm1-4.9a5.387,5.387,0,0,1,4.314,8.616A4.6,4.6,0,0,0,410.7,8.562a2.988,2.988,0,1,0-4.958,0,4.6,4.6,0,0,0-1.835,2.046,5.387,5.387,0,0,1,4.314-8.616Z" transform="translate(-347.605)"/><path d="M36.521,134.669a1,1,0,0,0-1.206.727c-.13.526-3.153,13.066-.012,29.745a1,1,0,1,0,1.958-.369,75.4,75.4,0,0,1-.012-28.9A1,1,0,0,0,36.521,134.669Z" transform="translate(-29.38 -116.758)"/><path d="M452.717,165.936a.995.995,0,0,0,1.163-.794c3.141-16.679.118-29.219-.012-29.745a1,1,0,0,0-1.934.479,75.4,75.4,0,0,1-.012,28.9,1,1,0,0,0,.795,1.163Z" transform="translate(-391.886 -116.758)"/><path d="M167.928,448.766a75.394,75.394,0,0,1-28.9.012h0a1,1,0,0,0-.479,1.934,65.38,65.38,0,0,0,14.5,1.434,82.579,82.579,0,0,0,15.246-1.422,1,1,0,0,0-.369-1.958Z" transform="translate(-119.494 -389.149)"/><path d="M138.792,34.121a1,1,0,0,0,.24-.029,75.223,75.223,0,0,1,28.9.012,1,1,0,1,0,.369-1.958c-16.679-3.141-29.219-.118-29.745.012a1,1,0,0,0,.239,1.963Z" transform="translate(-119.495 -26.643)"/></svg>