<svg xmlns="http://www.w3.org/2000/svg" width="74.099" height="113.413" viewBox="0 0 74.099 113.413"><g transform="translate(-185.513 -327.582)"><g transform="translate(185.513 327.582)"><g transform="translate(49.131 51.829)"><g transform="translate(1.56 18.72)"><path d="M235.334,393.433a3.5,3.5,0,0,1,.31.8c.466,1.541-.077,5.692-1.04,9.119a15.175,15.175,0,0,0,.008,6.494l-2.538.343s.085-3.152-.08-8.017a51.894,51.894,0,0,1,.6-9.673C232.9,391.705,235.054,392.849,235.334,393.433Z" transform="translate(-231.963 -392.229)" fill="#e4a473"/></g><g transform="translate(0.397)"><path d="M235.741,395.8c-.1.976-3.068.892-3.166-.726.167-4.069-3.973-18.958.175-19.713,0,0,3.388-1.6,3.479,2.752.024,1.083-.516,6.585-.381,9.656C235.922,389.442,235.712,394.612,235.741,395.8Z" transform="translate(-230.898 -375.076)" fill="#e4a473"/></g><g transform="translate(0 33.533)"><path d="M234.388,405.913a11.191,11.191,0,0,0,.434,2.537,12.188,12.188,0,0,1,.449,2.258,4.382,4.382,0,0,0,.59,1.806c.2.408-.438,1.063-.989-.071a4.524,4.524,0,0,1-.547-1.413s.027,1.866.029,2.853.112,1.817-.368,1.752c-.243-.034-.416-.372-.479-1.688s-.154-2.8-.154-2.8.139,5.009-.431,5.011c-.366.005-.525-.371-.506-1.94s.1-3.064.1-3.064-.441,4.171-.475,4.5c-.044.42-.823.669-.644-.949s.41-3.731.41-3.731-.547,3.631-1.014,3.618c-.6-.015-.051-1.868.32-3.938a4.9,4.9,0,0,1,.828-2.514,8.18,8.18,0,0,0,.274-2.339Z" transform="translate(-230.534 -405.804)" fill="#e4a473"/></g></g><g transform="translate(49.895)"><g transform="translate(2.187 7.164)"><path d="M236.325,351.046a3.389,3.389,0,0,0,.348-.791c.541-1.513.2-5.686-.6-9.158a15.2,15.2,0,0,1,.321-6.486l-2.518-.464s-.068,3.153-.467,8a51.973,51.973,0,0,0,.133,9.691C233.812,352.654,236.017,351.614,236.325,351.046Z" transform="translate(-233.239 -334.147)" fill="#e4a473"/></g><g transform="translate(0 22.578)"><path d="M236.856,348.965c-.053-.979-3.02-1.036-3.194.573-.029,4.074-4.887,18.745-.778,19.7,0,0,3.305,1.763,3.609-2.582.077-1.081-.2-6.6.083-9.662C236.731,355.33,236.768,350.152,236.856,348.965Z" transform="translate(-231.234 -348.271)" fill="#e4a473"/></g><g transform="translate(1.402)"><path d="M235.979,337.888a11.164,11.164,0,0,1,.555-2.512,12.356,12.356,0,0,0,.558-2.236,4.358,4.358,0,0,1,.675-1.772c.224-.4-.385-1.085-.991.021a4.463,4.463,0,0,0-.614,1.386s.118-1.864.168-2.847.2-1.809-.283-1.768c-.247.022-.432.35-.561,1.662s-.288,2.789-.288,2.789.38-5-.19-5.028c-.364-.021-.541.347-.6,1.915s-.041,3.065-.041,3.065-.241-4.186-.26-4.521c-.022-.425-.788-.71-.686.916s.23,3.749.23,3.749-.371-3.654-.839-3.663c-.6-.011-.143,1.864.129,3.949s.449,2.019.706,2.55a8.242,8.242,0,0,1,.163,2.352Z" transform="translate(-232.519 -327.582)" fill="#e4a473"/></g></g><g transform="translate(58.665 45.34)"><g transform="translate(3.219 1.834)"><path d="M243.171,371.7s-1.839,4.269-.4,6.393c1.423,2.1,2.956,3.277,2.519,4.959s-1.1,3.659-.535,5.05,1.171,1.761.161,3.347a5.234,5.234,0,0,0-.392,4.691,5.146,5.146,0,0,1-.081,4.378,3.033,3.033,0,0,0,1.421-2.824,7.4,7.4,0,0,1,.369-4.846c.737-1.273,1.306-2.2.761-4s.133-2.918.818-4.866,1.65-3.492.892-5.1a10.747,10.747,0,0,1-1.075-4.034c-.074-1.55.839-4.4-3.085-4C242.427,371.063,244.466,371.137,243.171,371.7Z" transform="translate(-242.22 -370.811)" fill="#25140c"/></g><g transform="translate(1.2 1.755)"><path d="M241.32,371.633s-1.838,4.268-.4,6.392c1.424,2.1,2.956,3.279,2.521,4.959s-1.1,3.659-.536,5.05,1.171,1.76.163,3.346a5.223,5.223,0,0,0-.392,4.691,5.155,5.155,0,0,1-.083,4.38,3.031,3.031,0,0,0,1.421-2.824,7.4,7.4,0,0,1,.37-4.845c.737-1.277,1.306-2.2.761-4s.134-2.918.818-4.867,1.652-3.492.892-5.1a10.752,10.752,0,0,1-1.075-4.035c-.073-1.551.84-4.4-3.084-4C240.578,370.989,242.618,371.064,241.32,371.633Z" transform="translate(-240.37 -370.738)" fill="#25140c"/></g><g transform="translate(0 1.75)"><path d="M246.448,372.684s.786,3.518-.815,5.524c-1.585,1.982-3.205,3.032-2.9,4.745s.812,3.734.136,5.077-1.306,1.663-.427,3.323a5.23,5.23,0,0,1,.022,4.707,5.151,5.151,0,0,0-.265,4.371A3.03,3.03,0,0,1,241,397.5a7.4,7.4,0,0,0,.013-4.859c-.633-1.328-1.127-2.3-.443-4.049s.1-2.919-.431-4.916-1.371-3.611-.488-5.155a10.745,10.745,0,0,0,1.39-3.935c.2-1.541-.488-4.456,3.392-3.747C246.529,371.221,245.2,372.015,246.448,372.684Z" transform="translate(-239.27 -370.733)" fill="#25140c"/></g><g transform="translate(1.198 0.126)"><path d="M241.979,378.755c.586-2.1-2.626-4.026-.328-8.149,1.09-1.958,3.349-2.391,3.746,2.733.344,4.463-2.64,8.776-1.65,15.582.307,2.111.861,5.491.24,7.176a7.072,7.072,0,0,0-.295,5.153s-2.705-1.344-2.061-3.3c2.4-7.282-.477-3.307-.111-9.026.133-2.072-1.016-3.345-1.126-4.695C240.129,381.071,242.032,381.057,241.979,378.755Z" transform="translate(-240.368 -369.245)" fill="#311b12"/></g><g transform="translate(1.608)"><path d="M247.1,378.971c-.42-2.14,1.851-3.7-.115-7.987-.934-2.036-5.4-3.45-6.194,1.627-.7,4.423,6.634,9.677,2.8,17.082-.981,1.894-.349,4.677.136,6.408a7.074,7.074,0,0,1-.11,5.161s2.8-1.128,2.313-3.127c-1.821-7.449.737-3.259.822-8.989.031-2.077,1.275-3.254,1.494-4.593C248.759,381.424,246.864,381.26,247.1,378.971Z" transform="translate(-240.744 -369.13)" fill="#3e2118"/></g></g><g transform="translate(25.01 39.853)"><path d="M224.639,378.568a9.833,9.833,0,0,1,5.7-1.3c2.958.63,5.927,1.623,7.093,1.043s.653-4.456.721-6.1c.133-3.149.529-5.688-.463-6.679-1.245-1.246-2.754-1.693-6.341-1.27-2.495.295-14.444,4.018-16.275,5.333a13.617,13.617,0,0,0-6.152,3.723c-.965,1.007-.222,2.517-.091,8.982.071,1.36,2.95,1.263,3.586,4.017a82.16,82.16,0,0,1,.863.081c.767-1.194,4.051,2.145,4.329.925.806-2.252,4.005-2.946,5.321-6.1A4.292,4.292,0,0,1,224.639,378.568Z" transform="translate(-208.431 -364.102)" fill="#e4a473"/></g><g transform="translate(58.39 39.705)"><path d="M250.634,369.1a13.226,13.226,0,0,0-5.035-2.575c-2.519-.593-3.309-.858-5.763-.084-2.266.716.708-1.588,2.537-2.163s5.291-.177,6.23-.146c3.214.11,4.478,1.991,3.93,3.758C251.967,369.723,252.575,369.39,250.634,369.1Z" transform="translate(-239.018 -363.966)" fill="#3e2118"/></g><g transform="translate(53.204 44.698)"><path d="M238.962,368.794s-2.533.849-3.79-.147-1.028,5.364-.361,5.034a6.164,6.164,0,0,1,3.96,0S238.8,371.03,238.962,368.794Z" transform="translate(-234.267 -368.541)" fill="#e4a473"/></g><g transform="translate(1.609 59.911)"><g transform="translate(0 24.327)"><path d="M196.948,404.888a4.257,4.257,0,0,0-.895.732c-1.549,1.488-3.971,6.917-5.154,10.774a68.288,68.288,0,0,1-3.912,9.108l3.071,1.71a82.007,82.007,0,0,1,5.3-10.7c3.412-5.486,3.751-6.906,4.757-9.757C200.206,405.609,197.668,404.392,196.948,404.888Z" transform="translate(-186.987 -404.774)" fill="#e4a473"/></g><g transform="translate(9.196)"><path d="M195.459,407.488c-.464,1.21,2.787,3.094,3.9,1.267,1.9-3.895,9.529-16.361,11.194-20.4,0,0-3.169-9.224-6.537-4.554-2.259,3.134-5.009,12.282-6.658,16.407A45.781,45.781,0,0,0,195.459,407.488Z" transform="translate(-195.414 -382.482)" fill="#e4a473"/></g></g><g transform="translate(3.108 49.655)"><path d="M218.147,390.087l.881-12.8-8.38-4.208c-6.446,3.592-11.2,24.367-12.647,27.983-.751,1.882-1.5,5.52-2.258,7.14s-3.364,5.139-4.969,11.08a41.1,41.1,0,0,1-2.413,6.028l3.009,1.48a68.9,68.9,0,0,1,3.867-7.395c3.412-5.486,3.751-6.906,4.757-9.757a.134.134,0,0,1,0-.021l.007-.01c1.757-3.608,12.829-18.034,15.13-22.842C217.574,385.992,218.133,390.076,218.147,390.087Z" transform="translate(-188.361 -373.084)" fill="#100c0b"/></g><g transform="translate(1.542 104.07)"><path d="M186.926,424.317l.42-1.37,3.562.7-.286,1.4S187.212,425.621,186.926,424.317Z" transform="translate(-186.926 -422.947)" fill="#fff" fill-rule="evenodd"/></g><g transform="translate(0 104.631)"><g transform="translate(3.099 4.66)"><path d="M191.654,427.731a6.947,6.947,0,0,1,.027,1.99c-.168.662-.6,1.913-3.286,1.794l-.043-.586S191.666,427.834,191.654,427.731Z" transform="translate(-188.353 -427.731)" fill="#d4d4d3"/></g><g transform="translate(0 4.66)"><path d="M185.608,427.731a7,7,0,0,0-.026,1.99c.168.662.6,1.913,3.286,1.794l.041-.586S185.6,427.834,185.608,427.731Z" transform="translate(-185.513 -427.731)" fill="#d4d4d3"/></g><g transform="translate(1.386 0.619)"><path d="M190.624,424.293a7.457,7.457,0,0,0-3.841-.02,4.371,4.371,0,0,0,.591,1.45,8.052,8.052,0,0,0,2.253.443C189.684,426.148,190.624,424.293,190.624,424.293Z" transform="translate(-186.783 -424.028)" fill="#00000c" fill-rule="evenodd"/></g><g transform="translate(0.121 0.305)"><path d="M186.377,424.964c-.026-2.293.922-.493,1-.292.131.349,2.618.349,2.748,0,.075-.2.887-2.205,1.053.374a20.479,20.479,0,0,1,.673,4.547c-.408,1.6-.676,1.791-3.1,1.791s-2.888-.289-3.1-1.791C185.467,428.514,186.377,424.964,186.377,424.964Z" transform="translate(-185.623 -423.741)" fill="#120e0e" fill-rule="evenodd"/></g><g transform="translate(2.28 7.476)"><path d="M187.6,430.742c0,.238.343.244.765.244s.763-.007.763-.244-.343-.431-.763-.431S187.6,430.5,187.6,430.742Z" transform="translate(-187.602 -430.311)" fill="#d4d4d3" fill-rule="evenodd"/></g><g transform="translate(0.122 1.611)"><g transform="translate(0 2.311)"><path d="M185.647,429.291a5.7,5.7,0,0,1,.08-1.474c.143-.076.288-.14.418-.194.772-.321,2.162-1.24,1.638.289a2.548,2.548,0,0,0-1.289,2.9C185.952,430.566,185.764,430.108,185.647,429.291Z" transform="translate(-185.624 -427.055)" fill="#2c2428" fill-rule="evenodd"/></g><g transform="translate(4.334)"><path d="M191.391,427.847a2.771,2.771,0,0,0-1.8-1.47l.032-.517a2.562,2.562,0,0,1,1.577,1.031,2.2,2.2,0,0,0-1.561-1.35l.029-.6a3.372,3.372,0,0,1,1.346.916c.122.563.271,1.306.372,1.995Z" transform="translate(-189.596 -424.937)" fill="#2c2428" fill-rule="evenodd"/></g><g transform="translate(0.132)"><path d="M187.474,425.542a2.2,2.2,0,0,0-1.558,1.35,2.551,2.551,0,0,1,1.576-1.031l.033.517a2.773,2.773,0,0,0-1.779,1.435c.108-.691.264-1.433.394-2a3.333,3.333,0,0,1,1.305-.875Z" transform="translate(-185.745 -424.937)" fill="#2c2428" fill-rule="evenodd"/></g><g transform="translate(3.875 2.227)"><path d="M189.385,427.919c-.793-1.728.868-.61,1.637-.289a4.277,4.277,0,0,1,.433.2,5.725,5.725,0,0,1,.068,1.468c-.213.834-.386,1.284-.846,1.523C191.546,428.853,189.385,427.919,189.385,427.919Z" transform="translate(-189.175 -426.978)" fill="#2c2428" fill-rule="evenodd"/></g></g><g transform="translate(1.832 0.142)"><path d="M189.761,424.471s-.322,4.146-.8,4.615-.881-.057-1.186-1.584-.57-3.093-.57-3.093-.167-.549.678-.75C188.8,423.438,190.066,423.765,189.761,424.471Z" transform="translate(-187.192 -423.591)" fill="#120e0e"/></g><g transform="translate(1.574 1.23)"><path d="M189.165,424.784s.1-.256.75-.183a19.186,19.186,0,0,1-.327,3.536c-.3.966-.453,1.433-1.229,1.344s-.967-1.4-1.173-2.471a15.836,15.836,0,0,1-.23-2.36.928.928,0,0,1,.833.134s.132,4.341.693,4.438S189.288,425.769,189.165,424.784Z" transform="translate(-186.955 -424.588)" fill="#0c0805" fill-rule="evenodd"/></g><g transform="translate(2.081 1.752)"><path d="M187.775,425.322a.348.348,0,0,1-.323-.05c-.065-.065-.027-.15.086-.186a.341.341,0,0,1,.323.047C187.926,425.2,187.889,425.284,187.775,425.322Z" transform="translate(-187.42 -425.067)" fill="#fff" fill-rule="evenodd"/><g transform="translate(0.048 0.029)"><path d="M187.747,425.293a.268.268,0,0,1-.259-.039c-.051-.049-.021-.118.07-.146a.281.281,0,0,1,.256.038C187.867,425.2,187.837,425.265,187.747,425.293Z" transform="translate(-187.463 -425.093)" fill="#161615" fill-rule="evenodd"/></g><g transform="translate(0.087 0.955)"><path d="M187.877,426.188a.351.351,0,0,1-.331-.028c-.077-.061-.055-.146.049-.19a.356.356,0,0,1,.332.028C188,426.058,187.981,426.145,187.877,426.188Z" transform="translate(-187.5 -425.942)" fill="#fff" fill-rule="evenodd"/><g transform="translate(0.049 0.028)"><path d="M187.843,426.165a.283.283,0,0,1-.261-.024c-.063-.047-.045-.117.039-.152a.279.279,0,0,1,.262.024C187.943,426.06,187.926,426.127,187.843,426.165Z" transform="translate(-187.544 -425.967)" fill="#161615" fill-rule="evenodd"/></g></g><g transform="translate(0.258 1.877)"><path d="M188.054,427.024a.365.365,0,0,1-.333-.005c-.091-.056-.086-.142.01-.2a.372.372,0,0,1,.333.007C188.155,426.884,188.15,426.971,188.054,427.024Z" transform="translate(-187.656 -426.787)" fill="#fff" fill-rule="evenodd"/><g transform="translate(0.05 0.029)"><path d="M188.017,427a.294.294,0,0,1-.265,0c-.07-.044-.065-.111.009-.153a.292.292,0,0,1,.264.005C188.1,426.893,188.093,426.958,188.017,427Z" transform="translate(-187.702 -426.814)" fill="#161615" fill-rule="evenodd"/></g></g><g transform="translate(0.312 2.812)"><path d="M188.132,427.863a.37.37,0,0,1-.332.026c-.1-.047-.124-.131-.048-.191a.358.358,0,0,1,.331-.028C188.188,427.716,188.209,427.8,188.132,427.863Z" transform="translate(-187.706 -427.643)" fill="#fff" fill-rule="evenodd"/><g transform="translate(0.048 0.028)"><path d="M188.087,427.841a.281.281,0,0,1-.263.022c-.082-.035-.1-.1-.038-.149a.285.285,0,0,1,.262-.024C188.133,427.727,188.148,427.794,188.087,427.841Z" transform="translate(-187.75 -427.669)" fill="#161615" fill-rule="evenodd"/></g></g><g transform="translate(0.012 0.435)"><path d="M187.786,425.72a.34.34,0,0,1-.322-.05c-.068-.065-.028-.148.084-.187a.343.343,0,0,1,.323.05C187.936,425.6,187.9,425.682,187.786,425.72Z" transform="translate(-187.431 -425.465)" fill="#fff" fill-rule="evenodd"/><g transform="translate(0.048 0.029)"><path d="M187.757,425.693a.274.274,0,0,1-.256-.039c-.051-.051-.023-.118.068-.148a.282.282,0,0,1,.258.04C187.877,425.6,187.846,425.662,187.757,425.693Z" transform="translate(-187.475 -425.492)" fill="#161615" fill-rule="evenodd"/></g></g><g transform="translate(0.138 1.397)"><path d="M187.925,426.594a.366.366,0,0,1-.332-.028c-.077-.061-.056-.147.05-.192a.361.361,0,0,1,.331.029C188.052,426.463,188.03,426.549,187.925,426.594Z" transform="translate(-187.547 -426.347)" fill="#fff" fill-rule="evenodd"/><g transform="translate(0.049 0.028)"><path d="M187.89,426.568a.282.282,0,0,1-.262-.024c-.062-.048-.044-.115.039-.151a.287.287,0,0,1,.263.023C187.991,426.466,187.973,426.532,187.89,426.568Z" transform="translate(-187.591 -426.373)" fill="#161615" fill-rule="evenodd"/></g></g><g transform="translate(0.288 2.32)"><path d="M188.082,427.43a.367.367,0,0,1-.334-.008c-.091-.055-.086-.14.01-.192a.366.366,0,0,1,.335.007C188.183,427.289,188.178,427.377,188.082,427.43Z" transform="translate(-187.683 -427.193)" fill="#fff" fill-rule="evenodd"/><g transform="translate(0.05 0.029)"><path d="M188.044,427.407a.288.288,0,0,1-.265-.005c-.07-.043-.067-.112.008-.153a.291.291,0,0,1,.265.005C188.123,427.3,188.12,427.365,188.044,427.407Z" transform="translate(-187.729 -427.219)" fill="#161615" fill-rule="evenodd"/></g></g><g transform="translate(0.473 3.245)"><path d="M188.28,428.259a.36.36,0,0,1-.332.027c-.1-.045-.127-.131-.048-.193a.365.365,0,0,1,.33-.026C188.335,428.112,188.356,428.2,188.28,428.259Z" transform="translate(-187.853 -428.04)" fill="#fff" fill-rule="evenodd"/><g transform="translate(0.049 0.029)"><path d="M188.234,428.241a.283.283,0,0,1-.261.02c-.083-.036-.1-.1-.039-.151a.284.284,0,0,1,.263-.021C188.28,428.124,188.3,428.19,188.234,428.241Z" transform="translate(-187.898 -428.066)" fill="#161615" fill-rule="evenodd"/></g></g><g transform="translate(1.755)"><path d="M189.145,425.322a.349.349,0,0,0,.324-.05c.065-.065.026-.15-.086-.186a.342.342,0,0,0-.323.047C188.993,425.2,189.034,425.284,189.145,425.322Z" transform="translate(-189.027 -425.067)" fill="#fff" fill-rule="evenodd"/><g transform="translate(0.05 0.029)"><path d="M189.166,425.293a.263.263,0,0,0,.256-.039c.052-.049.021-.118-.068-.146a.281.281,0,0,0-.256.038C189.047,425.2,189.076,425.265,189.166,425.293Z" transform="translate(-189.073 -425.093)" fill="#161615" fill-rule="evenodd"/></g></g><g transform="translate(0.207 0.08)"><path d="M187.627,425.631c.057-.057.048-.089.373-.013a1.227,1.227,0,0,0,1.231-.477s.394-.025.273.176c0,0-.531.555-1.014.523l-.009-.005a1.688,1.688,0,0,1-.363-.009C187.584,425.762,187.583,425.68,187.627,425.631Z" transform="translate(-187.61 -425.14)" fill="#bababa" fill-rule="evenodd"/></g><g transform="translate(1.666 0.955)"><path d="M189.043,426.188a.35.35,0,0,0,.331-.028c.079-.061.057-.146-.048-.19a.355.355,0,0,0-.332.028C188.915,426.058,188.937,426.145,189.043,426.188Z" transform="translate(-188.947 -425.942)" fill="#fff" fill-rule="evenodd"/><g transform="translate(0.05 0.028)"><path d="M189.066,426.165a.291.291,0,0,0,.265-.024c.061-.047.043-.117-.039-.152a.281.281,0,0,0-.263.024C188.969,426.06,188.985,426.127,189.066,426.165Z" transform="translate(-188.993 -425.967)" fill="#161615" fill-rule="evenodd"/></g></g><g transform="translate(0.341 1.028)"><path d="M187.745,426.514c.041-.06.031-.109.369-.036a1.036,1.036,0,0,0,.182.023c.482-.087.47-.205.848-.492,0,0,.4,0,.238.19a2.97,2.97,0,0,1-.49.312c-.035.095-.18.189-.624.165C187.725,426.647,187.707,426.566,187.745,426.514Z" transform="translate(-187.733 -426.009)" fill="#bababa" fill-rule="evenodd"/></g><g transform="translate(1.496 1.877)"><path d="M188.865,427.024a.37.37,0,0,0,.335-.005c.089-.056.085-.142-.01-.2a.377.377,0,0,0-.335.007C188.766,426.884,188.769,426.971,188.865,427.024Z" transform="translate(-188.791 -426.787)" fill="#fff" fill-rule="evenodd"/><g transform="translate(0.049 0.029)"><path d="M188.9,427a.292.292,0,0,0,.264,0c.07-.044.067-.111-.009-.153a.3.3,0,0,0-.265.005C188.815,426.893,188.819,426.958,188.9,427Z" transform="translate(-188.835 -426.814)" fill="#161615" fill-rule="evenodd"/></g></g><g transform="translate(0.502 1.941)"><path d="M187.881,427.363c.016-.035.019-.067.082-.078a.142.142,0,0,1,.068-.017c.53-.052.5-.158.943-.423,0,0,.4.026.2.2a2.556,2.556,0,0,1-.225.129C188.163,427.622,187.854,427.417,187.881,427.363Z" transform="translate(-187.879 -426.845)" fill="#bababa" fill-rule="evenodd"/></g><g transform="translate(1.443 2.812)"><path d="M188.789,427.863a.371.371,0,0,0,.333.026c.1-.047.126-.131.047-.191a.358.358,0,0,0-.331-.028C188.732,427.716,188.711,427.8,188.789,427.863Z" transform="translate(-188.742 -427.643)" fill="#fff" fill-rule="evenodd"/><g transform="translate(0.05 0.028)"><path d="M188.825,427.841a.281.281,0,0,0,.263.022c.083-.035.1-.1.036-.149a.283.283,0,0,0-.261-.024C188.779,427.727,188.764,427.794,188.825,427.841Z" transform="translate(-188.788 -427.669)" fill="#161615" fill-rule="evenodd"/></g></g><g transform="translate(0.577 2.861)"><path d="M187.992,428.25a.473.473,0,0,0,.124.026,2.367,2.367,0,0,0,.957-.365c.247-.157-.133-.224-.133-.224-.506.236-.445.343-.886.419C187.862,428.141,187.992,428.25,187.992,428.25Z" transform="translate(-187.949 -427.688)" fill="#bababa" fill-rule="evenodd"/></g><g transform="translate(1.743 0.435)"><path d="M189.135,425.72a.347.347,0,0,0,.324-.05c.064-.065.025-.148-.086-.187a.346.346,0,0,0-.324.05C188.983,425.6,189.02,425.682,189.135,425.72Z" transform="translate(-189.016 -425.465)" fill="#fff" fill-rule="evenodd"/><g transform="translate(0.049 0.029)"><path d="M189.156,425.693a.272.272,0,0,0,.255-.039c.052-.051.021-.118-.07-.148a.277.277,0,0,0-.254.04C189.035,425.6,189.065,425.662,189.156,425.693Z" transform="translate(-189.062 -425.492)" fill="#161615" fill-rule="evenodd"/></g></g><g transform="translate(0.102 0.08)"><path d="M187.81,425.141c.237.231.279.352.473.451a.9.9,0,0,0,.756.026c.321-.094.32-.044.373.013s.044.11-.488.194a1.491,1.491,0,0,1-1.387-.509C187.414,425.116,187.81,425.141,187.81,425.141Z" transform="translate(-187.513 -425.14)" fill="#fff" fill-rule="evenodd"/></g><g transform="translate(1.616 1.397)"><path d="M189,426.594a.363.363,0,0,0,.331-.028c.077-.061.056-.147-.049-.192a.36.36,0,0,0-.331.029C188.869,426.463,188.891,426.549,189,426.594Z" transform="translate(-188.9 -426.347)" fill="#fff" fill-rule="evenodd"/><g transform="translate(0.049 0.028)"><path d="M189.022,426.568a.277.277,0,0,0,.26-.024c.061-.048.045-.115-.037-.151a.287.287,0,0,0-.263.023C188.922,426.466,188.937,426.532,189.022,426.568Z" transform="translate(-188.946 -426.373)" fill="#161615" fill-rule="evenodd"/></g></g><g transform="translate(0.199 1.028)"><path d="M187.64,426.2c-.159-.192.238-.19.238-.19.381.29.272.4.816.486a.67.67,0,0,0,.214-.016c.336-.073.326-.024.37.036s.019.133-.525.161A1.385,1.385,0,0,1,187.64,426.2Z" transform="translate(-187.602 -426.009)" fill="#fff"/><g transform="translate(0.361 0.425)"><path d="M187.938,426.4a.083.083,0,0,0,0,.021A.015.015,0,0,1,187.938,426.4Z" transform="translate(-187.933 -426.398)" fill="#fff"/></g></g><g transform="translate(1.466 2.32)"><path d="M188.838,427.43a.368.368,0,0,0,.334-.008c.091-.055.085-.14-.01-.192a.364.364,0,0,0-.334.007C188.738,427.289,188.742,427.377,188.838,427.43Z" transform="translate(-188.763 -427.193)" fill="#fff" fill-rule="evenodd"/><g transform="translate(0.049 0.029)"><path d="M188.867,427.407a.288.288,0,0,0,.265-.005c.071-.043.069-.112-.008-.153a.291.291,0,0,0-.265.005C188.788,427.3,188.792,427.365,188.867,427.407Z" transform="translate(-188.808 -427.219)" fill="#161615" fill-rule="evenodd"/></g></g><g transform="translate(0.379 1.941)"><path d="M188.019,426.845c.443.265.414.371.943.423a.166.166,0,0,1,.07.017c.062.011.063.043.081.078.025.053-.207.146-1.066-.186a2.365,2.365,0,0,1-.225-.129C187.625,426.871,188.019,426.845,188.019,426.845Z" transform="translate(-187.767 -426.845)" fill="#fff" fill-rule="evenodd"/></g><g transform="translate(1.282 3.245)"><path d="M188.642,428.259a.357.357,0,0,0,.331.027c.1-.045.127-.131.049-.193a.37.37,0,0,0-.332-.026C188.585,428.112,188.563,428.2,188.642,428.259Z" transform="translate(-188.595 -428.04)" fill="#fff" fill-rule="evenodd"/><g transform="translate(0.049 0.029)"><path d="M188.677,428.241a.287.287,0,0,0,.263.02c.083-.036.1-.1.037-.151a.282.282,0,0,0-.262-.021C188.632,428.124,188.615,428.19,188.677,428.241Z" transform="translate(-188.64 -428.066)" fill="#161615" fill-rule="evenodd"/></g></g><g transform="translate(0.443 2.861)"><path d="M187.909,427.912l.033.015c.936.483.991.343.98.286a.165.165,0,0,0-.008-.046,4.461,4.461,0,0,1-.873-.479S187.662,427.755,187.909,427.912Z" transform="translate(-187.826 -427.688)" fill="#fff" fill-rule="evenodd"/></g></g><g transform="translate(0.996)"><path d="M188.521,425.214s-2.368-.1-2.07-1.343,1.794.681,2.078,1.209l-.139.021s-.882-1.28-1.392-1.314-.384.379-.22.526a3.588,3.588,0,0,0,1.378.8c.05.016.23-.048.28-.034C188.5,425.1,188.448,425.2,188.521,425.214Z" transform="translate(-186.425 -423.461)" fill="#bababa" fill-rule="evenodd"/><g transform="translate(1.846 0.107)"><path d="M188.228,424.919s.707-1.451,1.639-1.355.971.8-.356,1.272l-1.327.471-.009-.215a8.435,8.435,0,0,0,1.411-.546c.442-.26.885-.576.478-.662s-.711-.091-1.242.505c-.255.284-.407.6-.519.716s-.187.046-.187.046Z" transform="translate(-188.117 -423.559)" fill="#bababa" fill-rule="evenodd"/></g><g transform="translate(1.929 1.605)"><path d="M188.38,425.2a2.46,2.46,0,0,0,.468.715,1.834,1.834,0,0,1,.315,1.314c-.037.033.063.167.063.167s.143.007.231-.252a1.143,1.143,0,0,0-.422-1.355c-.656-.588-.739-.852-.739-.852S188.015,424.886,188.38,425.2Z" transform="translate(-188.193 -424.932)" fill="#d2d1d1" fill-rule="evenodd"/></g><g transform="translate(1.146 1.544)"><path d="M188.379,424.876a10.888,10.888,0,0,0-.3,1.341c-.053.489-.437,1.155-.4,1.424s-.18.251-.18.251-.139-.129.239-1.026a5.788,5.788,0,0,0,.371-1.539C188.209,425.022,188.2,424.91,188.379,424.876Z" transform="translate(-187.475 -424.876)" fill="#d2d1d1" fill-rule="evenodd"/></g></g></g><g transform="translate(25.638 52.63)"><g transform="translate(15.063 27.654)"><path d="M222.842,406.246a4.777,4.777,0,0,0,.019,1.157c.216,3.229,1.615,8.26,4.2,11.359a69.518,69.518,0,0,1,6.5,9.9l3.31-.822s-2.223-4.384-4.956-10.721c-3.159-7.331-4.761-13.328-6.373-15.887C224.7,400.457,222.9,405.373,222.842,406.246Z" transform="translate(-222.81 -401.151)" fill="#e4a473"/></g><g transform="translate(5.164 3.692)"><path d="M223.771,411.3c.579,1.16,5.209-1.9,4.611-3.949.435-2.943-1.021-4.031-1.535-5.639-2.559-8-5.106-14.79-10.122-22.52,0,0-5.343,5.028-1.735,9.515,4.64,5.779,2.259,10.065,4.58,13.852C221.091,405.045,222.992,408.154,223.771,411.3Z" transform="translate(-213.739 -379.193)" fill="#e4a473"/></g><g transform="translate(15.063 27.654)"><path d="M234.815,423.582c-.815-1.745-1.817-3.949-2.9-6.461-3.159-7.331-4.761-13.328-6.373-15.887-.842-.777-2.641,4.139-2.7,5.012a4.777,4.777,0,0,0,.019,1.157c.216,3.229,1.615,8.26,4.2,11.359a50.173,50.173,0,0,1,3.481,4.82Z" transform="translate(-222.81 -401.151)" fill="#100c0b"/></g><path d="M224.2,411.61c.579,1.16,5.209-1.9,4.611-3.949.435-2.943-1.021-4.031-1.535-5.639-2.559-8-2.315-9.325-4.951-21.222,0,0-8.788-6.625-12.317-4.606-3.154,1.8,2.076,5.193,2.747,7.827,2.173,8.519,4.924,15.062,7.245,18.849C221.523,405.354,223.424,408.462,224.2,411.61Z" transform="translate(-209.007 -375.81)" fill="#100c0b"/><g transform="translate(25.021 53.348)"><path d="M232.059,428.149a2.652,2.652,0,1,0,1.729-3.33A2.653,2.653,0,0,0,232.059,428.149Z" transform="translate(-231.935 -424.696)" fill="#e4a473"/></g><g transform="translate(25.266 53.368)"><path d="M236.655,425.926l-.29-1.135s-2.427.551-3.78-.077l-.426.766S233.563,427.3,236.655,425.926Z" transform="translate(-232.159 -424.714)" fill="#fff"/></g><g transform="translate(23.491 52.019)"><g transform="translate(0.002 6.842)"><path d="M230.55,429.747c-.033.6.038,1.187,3.571,1.317a43.985,43.985,0,0,1,4.948.24,13.217,13.217,0,0,0,6.212-.4c.861-.319,1.592-.649,1.619-.881,0-.035,0-.069.005-.1,0,.119-.012.228-.017.309-.026.231-.758.561-1.621.877a14.677,14.677,0,0,1-6.161.473c-2.208-.185-3.716-.258-5-.306-3.642-.133-3.6-.754-3.567-1.373C230.543,429.852,230.546,429.8,230.55,429.747Z" transform="translate(-230.534 -429.747)" fill="#616160"/></g><g transform="translate(0.67 0.832)"><path d="M231.2,424.723a3.52,3.52,0,0,0,.181.423,1.489,1.489,0,0,1,.212.848l.177.017a1.309,1.309,0,0,0-.048-.5l.016,0a1.9,1.9,0,0,0-.1-.9c-.1-.268-.249-.4-.376-.36C231.2,424.271,231.078,424.357,231.2,424.723Zm.128-.291a.619.619,0,0,1,.141.241,1.568,1.568,0,0,1,.1.459c-.01-.02-.019-.043-.029-.064a3.42,3.42,0,0,1-.171-.4A.642.642,0,0,1,231.325,424.432Z" transform="translate(-231.147 -424.24)" fill="#0c0805"/></g><g transform="translate(0.257 1.707)"><path d="M233.8,430.184a21.438,21.438,0,0,1,2.44.462,31.586,31.586,0,0,0,4.012.574,30.03,30.03,0,0,0,3.88-.151,10.4,10.4,0,0,0,2.608-.649l.106-.368a1.114,1.114,0,0,0-.363-.486,17.081,17.081,0,0,0-2.425-.92,10.139,10.139,0,0,1-3.671-1.874c-1-.82-2.237-1.581-2.59-1.493s-.978.485-2.213.835c-2.427.692-1.157.749-2.876.034-.776-.322-.766-1.28-.838-1.079a2.262,2.262,0,0,1-.423,1.323,4.5,4.5,0,0,0-.658,3.057A7.811,7.811,0,0,0,233.8,430.184Z" transform="translate(-230.768 -425.042)" fill="#120e0e" fill-rule="evenodd"/></g><g transform="translate(5.634 0.041)"><path d="M235.772,424.5c.26-.327.236-.689.609-.949.2-.141.668.07,1.257,1.126a5.94,5.94,0,0,0,1.562,1.649l-.057-.008a12.183,12.183,0,0,0,2.625,1.6l-.133.26c-1.528-.805-2.9-1.625-3.851-2.217-.419-.166-1.083.055-1.339-.1C235.658,425.406,235.605,424.714,235.772,424.5Z" transform="translate(-235.695 -423.515)" fill="#120e0e" fill-rule="evenodd"/></g><g transform="translate(0.215 4.408)"><path d="M246.6,429.979a.556.556,0,0,1-.431.424l-.2.059-.008,0c-.069.02-.141.04-.215.06l0,0c-.076.022-.155.041-.238.062l-.005,0-.24.06-.02,0c-.085.021-.169.038-.258.057h0q-.133.028-.268.052h-.019c-.086.016-.172.028-.258.041l-.023,0c-.093.013-.186.024-.277.033a21.96,21.96,0,0,1-7.891-.423c-.86-.177-4.753-.575-5.514-1.056-.007-.1.074-.474.071-.571a6.985,6.985,0,0,0,.7.528c1.115.6,4.663.844,5.884,1.091a17.068,17.068,0,0,0,7.42-.11s1.567-.47.478-1.064c-.941-.514-3.19-1.421-3.19-1.421l.026-.3c3.229,1.532,3.451.887,4.232,1.44.127.089.489.445.471.75C246.761,429.707,246.64,429.791,246.6,429.979Z" transform="translate(-230.73 -427.517)" fill="#120e0e" fill-rule="evenodd"/></g><g transform="translate(0.249 2.96)"><path d="M230.77,429a3.915,3.915,0,0,1,.678-2.712c.024-.033.048-.063.07-.1.165.037.248.173.013.539a6.3,6.3,0,0,0-.618,2.347A.667.667,0,0,0,230.77,429Z" transform="translate(-230.761 -426.19)" fill="#0c0805"/></g><g transform="translate(10.373 4.72)"><path d="M241.416,428.524s-.716-.947.369-.671c.4.1,3.669,1.32,3.386,1.844-.186.339-.091.37-.812.668a12.079,12.079,0,0,1-3.463.355c1.33-.312,1.119-.856.3-1.587a8.587,8.587,0,0,0-1.161-.93Z" transform="translate(-240.038 -427.803)" fill="#120e0e" fill-rule="evenodd"/></g><g transform="translate(7.447 4.503)"><path d="M240.659,428.31s-3.542,2.459-.713,2.485c0,0-2.039.091-2.459-.279s.15-1.633,1.953-2.912Z" transform="translate(-237.356 -427.604)" fill="#2c2428"/></g><g transform="translate(5.435 3.477)"><path d="M239.3,427.37s-3.694,2.815-1.649,3.283c0,0-1.576.019-1.935-.413-.727-.87.563-2.3,2.367-3.576Z" transform="translate(-235.513 -426.664)" fill="#2c2428"/></g><g transform="translate(2.793 2.475)"><path d="M237.971,426.547s-4.406,3.328-2.137,3.912c0,0-1.969.029-2.326-.4-.454-.545,1.937-2.546-.376-3.6-.463-.21,3.2-.233,3.88-.715Z" transform="translate(-233.092 -425.746)" fill="#2c2428"/></g><g transform="translate(0.427 1.022)"><path d="M231.22,426.76a2.364,2.364,0,0,1,.213-.311l.048-.065a3.3,3.3,0,0,0,.247-1.212c.02-1.305.618-.571.665-.371.1.441.077,1.436,1.97,1.415a6.017,6.017,0,0,0,2.909-.773c.538-.312.762-.3.829-.282a7.235,7.235,0,0,1,1.747,1.443,16.719,16.719,0,0,0,3.023,1.828,1.316,1.316,0,0,1-1.382.391h0c-.028-.009-.055-.02-.084-.029h0c-.031-.011-.059-.025-.091-.038a.066.066,0,0,1-.017-.009l-.08-.035-.1-.055c-1.116-.63-2.905-1.908-3.344-2.169a3.164,3.164,0,0,0-2.03.033c-1.939.541-2.207-.02-3.419.325-.423.12-.975.626-1.4,1.685-.009.016.072-.961.057-.958l.473-.664a.3.3,0,0,1-.044,0l-.005,0a.145.145,0,0,1-.049-.019l-.005,0c-.015-.011-.029-.02-.045-.032l0,0h0A.793.793,0,0,1,231.22,426.76Z" transform="translate(-230.923 -424.414)" fill="#0c0805" fill-rule="evenodd"/></g><g transform="translate(6.749)"><g transform="translate(0.294 2.078)"><path d="M237.352,425.577a.183.183,0,0,1-.366-.022.183.183,0,1,1,.366.022Z" transform="translate(-236.986 -425.382)" fill="#fff" fill-rule="evenodd"/><g transform="translate(0.038 0.038)"><path d="M237.309,425.57a.144.144,0,1,1-.134-.153A.143.143,0,0,1,237.309,425.57Z" transform="translate(-237.021 -425.417)" fill="#161615" fill-rule="evenodd"/></g></g><g transform="translate(0.417 2.002)"><path d="M237.245,425.731s.848.069,1.016-.266c0,0-.02-.217-.145-.133-.345.231-.455.118-.948.095C237.168,425.427,236.968,425.661,237.245,425.731Z" transform="translate(-237.098 -425.312)" fill="#bababa" fill-rule="evenodd"/></g><g transform="translate(1.238 2.965)"><path d="M238.219,426.367a.187.187,0,0,1-.176.193.183.183,0,1,1-.017-.366A.183.183,0,0,1,238.219,426.367Z" transform="translate(-237.851 -426.195)" fill="#fff" fill-rule="evenodd"/><g transform="translate(0.039 0.037)"><path d="M238.176,426.367a.145.145,0,0,1-.289.017.147.147,0,0,1,.138-.155A.145.145,0,0,1,238.176,426.367Z" transform="translate(-237.887 -426.229)" fill="#161615" fill-rule="evenodd"/></g></g><g transform="translate(1.363 2.779)"><path d="M238.128,426.542s.851-.023.981-.377c0,0-.043-.214-.159-.116-.318.266-.438.166-.932.2C238.017,426.248,237.846,426.5,238.128,426.542Z" transform="translate(-237.966 -426.024)" fill="#bababa" fill-rule="evenodd"/></g><g transform="translate(2.229 3.706)"><path d="M239.122,427.026a.184.184,0,0,1-.15.211.183.183,0,1,1,.15-.211Z" transform="translate(-238.759 -426.873)" fill="#fff" fill-rule="evenodd"/><g transform="translate(0.038 0.038)"><path d="M239.081,427.028a.145.145,0,1,1-.167-.118A.144.144,0,0,1,239.081,427.028Z" transform="translate(-238.794 -426.908)" fill="#161615" fill-rule="evenodd"/></g></g><g transform="translate(2.353 3.418)"><path d="M239.052,427.216s.815-.111.9-.477c0,0-.068-.206-.171-.1-.285.3-.388.205-.875.3C238.907,426.937,238.767,427.21,239.052,427.216Z" transform="translate(-238.873 -426.61)" fill="#bababa" fill-rule="evenodd"/></g><g transform="translate(3.293 4.362)"><path d="M240.09,427.6a.184.184,0,0,1-.346.123.184.184,0,0,1,.346-.123Z" transform="translate(-239.734 -427.475)" fill="#fff" fill-rule="evenodd"/><g transform="translate(0.038 0.038)"><path d="M240.049,427.606a.144.144,0,1,1-.184-.088A.145.145,0,0,1,240.049,427.606Z" transform="translate(-239.769 -427.51)" fill="#161615" fill-rule="evenodd"/></g></g><g transform="translate(3.413 3.991)"><path d="M240.047,427.8s.715-.186.739-.561c0,0-.1-.19-.186-.064-.226.348-.279.2-.742.374C239.858,427.552,239.769,427.847,240.047,427.8Z" transform="translate(-239.844 -427.135)" fill="#bababa" fill-rule="evenodd"/></g><g transform="translate(0.717 2.495)"><path d="M237.74,425.956a.183.183,0,0,1-.366-.021.183.183,0,0,1,.366.021Z" transform="translate(-237.374 -425.764)" fill="#fff" fill-rule="evenodd"/><g transform="translate(0.038 0.037)"><path d="M237.7,425.95a.147.147,0,0,1-.153.138.145.145,0,1,1,.153-.138Z" transform="translate(-237.409 -425.798)" fill="#161615" fill-rule="evenodd"/></g></g><g transform="translate(0.854 1.899)"><path d="M237.889,425.218s.547.143.074.618c-.3.3-.393.239-.428.172s-.1-.111.144-.25C237.972,425.592,238.008,425.249,237.889,425.218Z" transform="translate(-237.499 -425.218)" fill="#fff" fill-rule="evenodd"/></g><g transform="translate(1.705 3.331)"><path d="M238.645,426.7a.183.183,0,0,1-.174.191.181.181,0,0,1-.192-.172.183.183,0,1,1,.366-.018Z" transform="translate(-238.279 -426.53)" fill="#fff" fill-rule="evenodd"/><g transform="translate(0.038 0.038)"><path d="M238.6,426.7a.145.145,0,1,1-.152-.138A.146.146,0,0,1,238.6,426.7Z" transform="translate(-238.314 -426.565)" fill="#161615" fill-rule="evenodd"/></g></g><g transform="translate(1.834 2.669)"><path d="M238.71,425.923s.557.117.136.643c-.264.33-.361.279-.4.217s-.107-.1.119-.264C238.829,426.321,238.829,425.942,238.71,425.923Z" transform="translate(-238.397 -425.923)" fill="#fff" fill-rule="evenodd"/></g><g transform="translate(2.736 4.014)"><path d="M239.587,427.308a.183.183,0,1,1-.212-.15A.184.184,0,0,1,239.587,427.308Z" transform="translate(-239.224 -427.155)" fill="#fff" fill-rule="evenodd"/><g transform="translate(0.038 0.038)"><path d="M239.545,427.311a.144.144,0,1,1-.167-.119A.144.144,0,0,1,239.545,427.311Z" transform="translate(-239.258 -427.19)" fill="#161615" fill-rule="evenodd"/></g></g><g transform="translate(2.856 3.376)"><path d="M239.527,426.571s.591,0,.237.573c-.222.357-.325.319-.374.264s-.119-.088.084-.277C239.718,426.9,239.648,426.574,239.527,426.571Z" transform="translate(-239.334 -426.571)" fill="#fff" fill-rule="evenodd"/></g><g transform="translate(3.845 4.578)"><path d="M240.595,427.794a.183.183,0,1,1-.234-.11A.181.181,0,0,1,240.595,427.794Z" transform="translate(-240.24 -427.672)" fill="#fff" fill-rule="evenodd"/><g transform="translate(0.039 0.039)"><path d="M240.557,427.805a.145.145,0,1,1-.186-.088A.144.144,0,0,1,240.557,427.805Z" transform="translate(-240.275 -427.708)" fill="#161615" fill-rule="evenodd"/></g></g><g transform="translate(3.95 3.931)"><path d="M240.336,427.088s.648-.11.4.515c-.156.391-.265.371-.325.323s-.13-.065.036-.287C240.647,427.371,240.455,427.068,240.336,427.088Z" transform="translate(-240.336 -427.08)" fill="#fff" fill-rule="evenodd"/></g><g transform="translate(0 0.268)"><path d="M237.936,425.468s-1.669-.76-1.1-1.546,1.092,1,1.145,1.456l-.108-.027s-.264-1.159-.621-1.331-.384.156-.308.308a2.809,2.809,0,0,0,.757.968c.032.025.179.033.211.057S237.887,425.435,237.936,425.468Z" transform="translate(-236.717 -423.723)" fill="#bababa" fill-rule="evenodd"/></g><g transform="translate(0.987)"><path d="M237.69,425.242s-.287-1.2.311-1.6.967-.013.41.919l-.558.934-.11-.121a6.574,6.574,0,0,0,.571-1.018c.136-.371.247-.774-.037-.623s-.469.3-.5.909c-.009.294.051.551.045.677s-.091.12-.091.12Z" transform="translate(-237.621 -423.478)" fill="#bababa" fill-rule="evenodd"/></g><g transform="translate(1.076 1.844)"><path d="M237.929,425.281a1.878,1.878,0,0,0,.627.187,1.372,1.372,0,0,1,.827.611c-.005.038.118.067.118.067s.091-.07.017-.263a.863.863,0,0,0-.911-.581,1.978,1.978,0,0,1-.856-.134S237.56,425.279,237.929,425.281Z" transform="translate(-237.702 -425.167)" fill="#d2d1d1" fill-rule="evenodd"/></g><g transform="translate(1.07 1.821)"><path d="M237.7,425.146a8.254,8.254,0,0,0,.9.536c.342.152.734.588.938.622s.139.19.139.19-.127.076-.688-.414a4.242,4.242,0,0,0-1.026-.63C237.766,425.3,237.683,425.283,237.7,425.146Z" transform="translate(-237.697 -425.146)" fill="#d2d1d1" fill-rule="evenodd"/></g></g><g transform="translate(0 5.684)"><path d="M230.641,429.3a3.919,3.919,0,0,0,.178-.61,16.738,16.738,0,0,0,5.318,1.431c1.1.11,2.883.428,4.163.5a31.829,31.829,0,0,0,3.779-.031,11.044,11.044,0,0,0,2.075-.426.518.518,0,0,0,.372-.511c.015-.311.115-.609.29-.29a2.209,2.209,0,0,1,.071.86c-.027.231-.757.563-1.622.88a14.847,14.847,0,0,1-6.192.468c-2.2-.184-3.683-.256-4.965-.3-3.641-.133-3.6-.753-3.569-1.372A2.468,2.468,0,0,1,230.641,429.3Z" transform="translate(-230.532 -428.686)" fill="#d4d4d3"/></g><g transform="translate(0.475 6.719)"><path d="M231.443,429.64a20.741,20.741,0,0,0,3.226.762c1.538.091.557.372-1.039.433C230.939,430.939,230.449,429.53,231.443,429.64Z" transform="translate(-230.967 -429.634)" fill="#a8a8a7"/></g><g transform="translate(10.526 7.789)"><path d="M240.275,431.3a11.132,11.132,0,0,0,4.572-.685s-1.073.116-1.82.2C240.282,431.128,239.964,430.5,240.275,431.3Z" transform="translate(-240.178 -430.615)" fill="#a8a8a7"/></g></g></g><g transform="translate(56.028 40.185)"><path d="M242.118,364.406s-4.6,1.5-4.867,5.686l-.4,1.592,7.628-6.329Z" transform="translate(-236.854 -364.406)" fill="#3e2118"/><g transform="translate(0.003 7.175)"><path d="M241.231,378.419s-4.416-2.219-4.1-5.821l-.272-1.617,7.114,6.9Z" transform="translate(-236.857 -370.981)" fill="#3e2118"/></g></g><g transform="translate(56.022 40.289)"><path d="M244.942,379.127c-4.625-.18-8.245-3.6-8.089-7.634s4.032-7.163,8.656-6.985,8.245,3.6,8.085,7.634S249.566,379.306,244.942,379.127Z" transform="translate(-236.849 -364.501)" fill="#e4a473"/></g><g transform="translate(58.9 43.21)"><path d="M250.045,367.328a3.829,3.829,0,0,1-.767,3.908c-3.331,3.882-3.165,7.163-8.366,6.3-1.4-.231-2.375-.115.079,1.228,1.682.92,6.013.913,6.953.955,3.213.14,8.066-3.6,6.4-9.925C253.861,367.941,253.569,366.74,250.045,367.328Z" transform="translate(-239.486 -367.177)" fill="#3e2118"/></g><g transform="translate(61.168 39.505)"><g transform="translate(0.182 0.113)"><path d="M249.632,369.019s-7.021-.828-7.9-4.149a9.082,9.082,0,0,1,7.811-.207c3.52,1.516,2.687,4.277,2.687,4.277s3.02,2.4.9,6.528c-2.755,5.36-10.677,4.511-10.677,4.511S240.919,370.811,249.632,369.019Z" transform="translate(-241.731 -363.887)" fill="#3e2118"/></g><path d="M246.823,379.855c2.156-.424,5.033-1.52,6.48-4.335a6.474,6.474,0,0,0,.761-2.693,6.843,6.843,0,0,0-1.569-4.467c.023-.093-.011.268,0,0,.036-.941-.286-2.682-2.852-3.788a9.377,9.377,0,0,0-8.007.216l-.072.043.019.064c.37,1.4,1.885,2.578,4.377,3.409a20.76,20.76,0,0,0,3.044.747c-5.654,1.454-6.692,6.13-6.8,8.848a11.473,11.473,0,0,0,.095,2.1l.015.092.132.013A15.992,15.992,0,0,0,246.823,379.855Zm6.166-4.421c-1.124,2.184-3.227,3.595-6.251,4.192a15.861,15.861,0,0,1-2.633.286c7.33-1.08,9.049-4.4,9.153-7.091a8.415,8.415,0,0,0-.527-3.133,4.844,4.844,0,0,1,1,3.127A6.28,6.28,0,0,1,252.989,375.435ZM243.2,365.1c2.011.263,5.972,1.105,8.365,3.753l-.2.008C249.468,367.146,245.272,365.728,243.2,365.1Zm7.71,3.735c-1.54-.44-5.934-1.8-8.4-3.685C244.184,365.636,248.8,367.089,250.908,368.835Zm-1.4-2.878a4.321,4.321,0,0,1,2.059,2.483,12.947,12.947,0,0,0-5.873-3.1,20.394,20.394,0,0,0-2.377-.465A11.187,11.187,0,0,1,249.511,365.957Zm2.116,3.16.031-.017c-.008.009-.015.02-.02.025Zm.387-.044h.075a8.825,8.825,0,0,1,.068,1.468c-.143,3.728-2.781,6.065-4.966,7.371a18.286,18.286,0,0,1-3.557,1.61,17.7,17.7,0,0,0,7.08-6.6,9.882,9.882,0,0,0,1.269-3.586l.046.053Zm.482.924a8.124,8.124,0,0,1,.426,2.809c-.1,2.625-1.8,5.871-9.055,6.9A18.621,18.621,0,0,0,247.4,378.1c2.242-1.335,4.944-3.727,5.091-7.544C252.5,370.368,252.5,370.184,252.5,370Zm-9.348,9.489a127.032,127.032,0,0,0,8.435-9.747,10.314,10.314,0,0,1-1.181,3.093A17.624,17.624,0,0,1,243.149,379.487Zm8.4-10.232a120.452,120.452,0,0,1-8.837,10.265c.989-5.173,7.953-9.786,8.736-10.29Zm-4.494,3.056a16.58,16.58,0,0,0-4.331,5.942c.351-2.558,1.87-6.826,7.882-8.789A32.259,32.259,0,0,0,247.054,372.31Zm2.417-7.537c2.419,1.04,2.724,2.688,2.69,3.575,0,.035,0,.069-.008.1l-.1.345-.043.012.009-.243-.057.083a4.422,4.422,0,0,0-2.24-2.866c-1.7-.994-4.156-1.355-7.306-1.075A9.027,9.027,0,0,1,249.471,364.773Zm-7.494.3c2.21,1.844,6.307,3.229,8.27,3.82l-.594.016C249.295,368.866,243.036,368.025,241.978,365.073Zm7.7,4.072,1.238-.037a11.881,11.881,0,0,0-7.082,5.06,10.634,10.634,0,0,0-1.245,3.025C242.86,374.4,244.213,370.278,249.681,369.144Z" transform="translate(-241.564 -363.783)" fill="#25140c"/></g><g transform="translate(24.574 48.318)"><path d="M222.963,380.51,209.5,371.859l-1.469,2.012,14.64,7.85Z" transform="translate(-208.031 -371.859)" fill="#221c1e"/></g><g transform="translate(27.292 40.008)"><path d="M238.487,366.505c-.024.074-4.862-.087-7.333-2.261.011.01-1.946.115-3.532.392-3.118.435-12.919,3.842-17.1,7.063,0,0,5.777,5.109,11.893,9.581-.135-.1,4.325-4.1,5.447-3.991.8.061,3.917.336,3.925.341s2.135-2.529,6.363-.895a7.976,7.976,0,0,1,.094-1.3c.04-.176-7.126-.234-7-4.347.287-4.707,3.129-4.252,7.031-3.307C238.351,367.356,238.421,366.933,238.487,366.505Z" transform="translate(-210.522 -364.244)" fill="#d32023"/><g transform="translate(14.05 0.632)" opacity="0.33"><path d="M223.9,368.144a2.861,2.861,0,0,1,1.456-3.321,2.73,2.73,0,0,0-1.846,3.42,3.232,3.232,0,0,0,2.678,2.507A3.6,3.6,0,0,1,223.9,368.144Z" transform="translate(-223.396 -364.823)" fill="#5f140e"/></g><g transform="translate(15.535 6.678)" opacity="0.33"><path d="M225.171,373.521a2.832,2.832,0,0,1,.907-3.158c-1.1.362-1.581,1.789-1.18,3.227s1.27,2.482,1.995,2.586A4.163,4.163,0,0,1,225.171,373.521Z" transform="translate(-224.757 -370.363)" fill="#5f140e"/></g></g></g></g></svg>