<svg xmlns="http://www.w3.org/2000/svg" width="47.429" height="56.136" viewBox="0 0 47.429 56.136"><g transform="translate(-1.059 0.5)"><path d="M47.988,34.3H42.4c0-9.425-7.905-17.09-17.629-17.09S7.146,24.875,7.146,34.3H1.559c0-12.509,10.416-22.677,23.216-22.677S47.988,21.788,47.988,34.3Z" transform="translate(0 20.839)" fill="#32c553" stroke="#32c553" stroke-width="1"/><path d="M19.7,30.643A15.322,15.322,0,1,1,35.029,15.322,15.342,15.342,0,0,1,19.7,30.643Zm0-25.057a9.735,9.735,0,1,0,9.738,9.735A9.745,9.745,0,0,0,19.7,5.587Z" transform="translate(5.07)" fill="#32c553" stroke="#32c553" stroke-width="1"/></g></svg>