<svg xmlns="http://www.w3.org/2000/svg" width="56" height="81.473" viewBox="0 0 56 81.473"><g transform="translate(-51.4)"><path d="M110.027,6,104.08,78.652A6.413,6.413,0,0,1,97.836,84.4H69.191a6.413,6.413,0,0,1-6.244-5.749L57,6Z" transform="translate(-4.212 -4.513)" fill="#f4f5f7"/><path d="M70.384,79.052,64.437,6.4H57.4l5.947,72.652A6.413,6.413,0,0,0,69.591,84.8h7.037A6.267,6.267,0,0,1,70.384,79.052Z" transform="translate(-4.513 -4.814)" fill="#fff"/><path d="M125.1,147.184l2.577-38.457a27.454,27.454,0,0,1-18.039.1c-7.632-2.874-17.841,1.09-17.841,1.09l2.775,37.268Z" transform="translate(-30.389 -81.074)" fill="#50c1e9"/><path d="M106.469,107.769c-7.037-.991-14.669,1.883-14.669,1.883l2.775,37.268h6.443l-2.874-37.168A40.748,40.748,0,0,1,106.469,107.769Z" transform="translate(-30.389 -80.908)" fill="#87d3e8"/><g transform="translate(51.4)"><path d="M105.815,0H52.887A1.592,1.592,0,0,0,51.8.5a1.58,1.58,0,0,0-.4,1.189l5.947,72.652a7.845,7.845,0,0,0,7.731,7.136H93.722a7.845,7.845,0,0,0,7.731-7.136L107.4,1.685A1.9,1.9,0,0,0,107,.5,1.641,1.641,0,0,0,105.815,0ZM93.722,78.4H64.979a4.8,4.8,0,0,1-4.658-4.262h38.06A4.875,4.875,0,0,1,93.722,78.4Zm4.956-7.235H60.023L54.473,3.073h49.756Z" transform="translate(-51.4)" fill="#56596a"/><path d="M88.274,142.935a1.506,1.506,0,0,0,1.487,1.388h30.528a1.44,1.44,0,0,0,1.487-1.388l2.577-38.457a1.6,1.6,0,0,0-.595-1.288,1.392,1.392,0,0,0-1.388-.2,25.794,25.794,0,0,1-17.048.1A20.62,20.62,0,0,0,98.483,102a36.349,36.349,0,0,0-12.092,2.28,1.623,1.623,0,0,0-.991,1.487Zm10.308-37.961a17.683,17.683,0,0,1,5.848.892,28.649,28.649,0,0,0,16.85.595L118.9,141.349H91.149l-2.676-34.691A35.71,35.71,0,0,1,98.582,104.973Z" transform="translate(-76.975 -76.725)" fill="#56596a"/></g></g></svg>